G04 EAGLE Gerber RS-274X export*
G75*
%MOMM*%
%FSLAX34Y34*%
%LPD*%
%INSolder Mask bottom*%
%IPPOS*%
%AMOC8*
5,1,8,0,0,1.08239X$1,22.5*%
G01*
%ADD10C,0.000000*%
%ADD11C,3.301600*%
%ADD12P,1.539592X8X292.500000*%
%ADD13P,1.539592X8X22.500000*%
%ADD14C,1.422400*%
%ADD15P,1.539592X8X202.500000*%
%ADD16P,1.539592X8X112.500000*%
%ADD17C,1.459600*%
%ADD18C,1.826600*%
%ADD19C,1.981200*%
%ADD20C,2.032000*%
%ADD21C,1.409600*%
%ADD22C,1.609600*%


D10*
X0Y0D02*
X500000Y0D01*
X500000Y500000D01*
X0Y500000D01*
X0Y0D01*
X454000Y470000D02*
X454005Y470393D01*
X454019Y470785D01*
X454043Y471177D01*
X454077Y471568D01*
X454120Y471959D01*
X454173Y472348D01*
X454236Y472735D01*
X454307Y473121D01*
X454389Y473506D01*
X454479Y473888D01*
X454580Y474267D01*
X454689Y474645D01*
X454808Y475019D01*
X454935Y475390D01*
X455072Y475758D01*
X455218Y476123D01*
X455373Y476484D01*
X455536Y476841D01*
X455708Y477194D01*
X455889Y477542D01*
X456079Y477886D01*
X456276Y478226D01*
X456482Y478560D01*
X456696Y478889D01*
X456919Y479213D01*
X457149Y479531D01*
X457386Y479844D01*
X457632Y480150D01*
X457885Y480451D01*
X458145Y480745D01*
X458412Y481033D01*
X458686Y481314D01*
X458967Y481588D01*
X459255Y481855D01*
X459549Y482115D01*
X459850Y482368D01*
X460156Y482614D01*
X460469Y482851D01*
X460787Y483081D01*
X461111Y483304D01*
X461440Y483518D01*
X461774Y483724D01*
X462114Y483921D01*
X462458Y484111D01*
X462806Y484292D01*
X463159Y484464D01*
X463516Y484627D01*
X463877Y484782D01*
X464242Y484928D01*
X464610Y485065D01*
X464981Y485192D01*
X465355Y485311D01*
X465733Y485420D01*
X466112Y485521D01*
X466494Y485611D01*
X466879Y485693D01*
X467265Y485764D01*
X467652Y485827D01*
X468041Y485880D01*
X468432Y485923D01*
X468823Y485957D01*
X469215Y485981D01*
X469607Y485995D01*
X470000Y486000D01*
X470393Y485995D01*
X470785Y485981D01*
X471177Y485957D01*
X471568Y485923D01*
X471959Y485880D01*
X472348Y485827D01*
X472735Y485764D01*
X473121Y485693D01*
X473506Y485611D01*
X473888Y485521D01*
X474267Y485420D01*
X474645Y485311D01*
X475019Y485192D01*
X475390Y485065D01*
X475758Y484928D01*
X476123Y484782D01*
X476484Y484627D01*
X476841Y484464D01*
X477194Y484292D01*
X477542Y484111D01*
X477886Y483921D01*
X478226Y483724D01*
X478560Y483518D01*
X478889Y483304D01*
X479213Y483081D01*
X479531Y482851D01*
X479844Y482614D01*
X480150Y482368D01*
X480451Y482115D01*
X480745Y481855D01*
X481033Y481588D01*
X481314Y481314D01*
X481588Y481033D01*
X481855Y480745D01*
X482115Y480451D01*
X482368Y480150D01*
X482614Y479844D01*
X482851Y479531D01*
X483081Y479213D01*
X483304Y478889D01*
X483518Y478560D01*
X483724Y478226D01*
X483921Y477886D01*
X484111Y477542D01*
X484292Y477194D01*
X484464Y476841D01*
X484627Y476484D01*
X484782Y476123D01*
X484928Y475758D01*
X485065Y475390D01*
X485192Y475019D01*
X485311Y474645D01*
X485420Y474267D01*
X485521Y473888D01*
X485611Y473506D01*
X485693Y473121D01*
X485764Y472735D01*
X485827Y472348D01*
X485880Y471959D01*
X485923Y471568D01*
X485957Y471177D01*
X485981Y470785D01*
X485995Y470393D01*
X486000Y470000D01*
X485995Y469607D01*
X485981Y469215D01*
X485957Y468823D01*
X485923Y468432D01*
X485880Y468041D01*
X485827Y467652D01*
X485764Y467265D01*
X485693Y466879D01*
X485611Y466494D01*
X485521Y466112D01*
X485420Y465733D01*
X485311Y465355D01*
X485192Y464981D01*
X485065Y464610D01*
X484928Y464242D01*
X484782Y463877D01*
X484627Y463516D01*
X484464Y463159D01*
X484292Y462806D01*
X484111Y462458D01*
X483921Y462114D01*
X483724Y461774D01*
X483518Y461440D01*
X483304Y461111D01*
X483081Y460787D01*
X482851Y460469D01*
X482614Y460156D01*
X482368Y459850D01*
X482115Y459549D01*
X481855Y459255D01*
X481588Y458967D01*
X481314Y458686D01*
X481033Y458412D01*
X480745Y458145D01*
X480451Y457885D01*
X480150Y457632D01*
X479844Y457386D01*
X479531Y457149D01*
X479213Y456919D01*
X478889Y456696D01*
X478560Y456482D01*
X478226Y456276D01*
X477886Y456079D01*
X477542Y455889D01*
X477194Y455708D01*
X476841Y455536D01*
X476484Y455373D01*
X476123Y455218D01*
X475758Y455072D01*
X475390Y454935D01*
X475019Y454808D01*
X474645Y454689D01*
X474267Y454580D01*
X473888Y454479D01*
X473506Y454389D01*
X473121Y454307D01*
X472735Y454236D01*
X472348Y454173D01*
X471959Y454120D01*
X471568Y454077D01*
X471177Y454043D01*
X470785Y454019D01*
X470393Y454005D01*
X470000Y454000D01*
X469607Y454005D01*
X469215Y454019D01*
X468823Y454043D01*
X468432Y454077D01*
X468041Y454120D01*
X467652Y454173D01*
X467265Y454236D01*
X466879Y454307D01*
X466494Y454389D01*
X466112Y454479D01*
X465733Y454580D01*
X465355Y454689D01*
X464981Y454808D01*
X464610Y454935D01*
X464242Y455072D01*
X463877Y455218D01*
X463516Y455373D01*
X463159Y455536D01*
X462806Y455708D01*
X462458Y455889D01*
X462114Y456079D01*
X461774Y456276D01*
X461440Y456482D01*
X461111Y456696D01*
X460787Y456919D01*
X460469Y457149D01*
X460156Y457386D01*
X459850Y457632D01*
X459549Y457885D01*
X459255Y458145D01*
X458967Y458412D01*
X458686Y458686D01*
X458412Y458967D01*
X458145Y459255D01*
X457885Y459549D01*
X457632Y459850D01*
X457386Y460156D01*
X457149Y460469D01*
X456919Y460787D01*
X456696Y461111D01*
X456482Y461440D01*
X456276Y461774D01*
X456079Y462114D01*
X455889Y462458D01*
X455708Y462806D01*
X455536Y463159D01*
X455373Y463516D01*
X455218Y463877D01*
X455072Y464242D01*
X454935Y464610D01*
X454808Y464981D01*
X454689Y465355D01*
X454580Y465733D01*
X454479Y466112D01*
X454389Y466494D01*
X454307Y466879D01*
X454236Y467265D01*
X454173Y467652D01*
X454120Y468041D01*
X454077Y468432D01*
X454043Y468823D01*
X454019Y469215D01*
X454005Y469607D01*
X454000Y470000D01*
D11*
X470000Y470000D03*
D10*
X14000Y400000D02*
X14005Y400393D01*
X14019Y400785D01*
X14043Y401177D01*
X14077Y401568D01*
X14120Y401959D01*
X14173Y402348D01*
X14236Y402735D01*
X14307Y403121D01*
X14389Y403506D01*
X14479Y403888D01*
X14580Y404267D01*
X14689Y404645D01*
X14808Y405019D01*
X14935Y405390D01*
X15072Y405758D01*
X15218Y406123D01*
X15373Y406484D01*
X15536Y406841D01*
X15708Y407194D01*
X15889Y407542D01*
X16079Y407886D01*
X16276Y408226D01*
X16482Y408560D01*
X16696Y408889D01*
X16919Y409213D01*
X17149Y409531D01*
X17386Y409844D01*
X17632Y410150D01*
X17885Y410451D01*
X18145Y410745D01*
X18412Y411033D01*
X18686Y411314D01*
X18967Y411588D01*
X19255Y411855D01*
X19549Y412115D01*
X19850Y412368D01*
X20156Y412614D01*
X20469Y412851D01*
X20787Y413081D01*
X21111Y413304D01*
X21440Y413518D01*
X21774Y413724D01*
X22114Y413921D01*
X22458Y414111D01*
X22806Y414292D01*
X23159Y414464D01*
X23516Y414627D01*
X23877Y414782D01*
X24242Y414928D01*
X24610Y415065D01*
X24981Y415192D01*
X25355Y415311D01*
X25733Y415420D01*
X26112Y415521D01*
X26494Y415611D01*
X26879Y415693D01*
X27265Y415764D01*
X27652Y415827D01*
X28041Y415880D01*
X28432Y415923D01*
X28823Y415957D01*
X29215Y415981D01*
X29607Y415995D01*
X30000Y416000D01*
X30393Y415995D01*
X30785Y415981D01*
X31177Y415957D01*
X31568Y415923D01*
X31959Y415880D01*
X32348Y415827D01*
X32735Y415764D01*
X33121Y415693D01*
X33506Y415611D01*
X33888Y415521D01*
X34267Y415420D01*
X34645Y415311D01*
X35019Y415192D01*
X35390Y415065D01*
X35758Y414928D01*
X36123Y414782D01*
X36484Y414627D01*
X36841Y414464D01*
X37194Y414292D01*
X37542Y414111D01*
X37886Y413921D01*
X38226Y413724D01*
X38560Y413518D01*
X38889Y413304D01*
X39213Y413081D01*
X39531Y412851D01*
X39844Y412614D01*
X40150Y412368D01*
X40451Y412115D01*
X40745Y411855D01*
X41033Y411588D01*
X41314Y411314D01*
X41588Y411033D01*
X41855Y410745D01*
X42115Y410451D01*
X42368Y410150D01*
X42614Y409844D01*
X42851Y409531D01*
X43081Y409213D01*
X43304Y408889D01*
X43518Y408560D01*
X43724Y408226D01*
X43921Y407886D01*
X44111Y407542D01*
X44292Y407194D01*
X44464Y406841D01*
X44627Y406484D01*
X44782Y406123D01*
X44928Y405758D01*
X45065Y405390D01*
X45192Y405019D01*
X45311Y404645D01*
X45420Y404267D01*
X45521Y403888D01*
X45611Y403506D01*
X45693Y403121D01*
X45764Y402735D01*
X45827Y402348D01*
X45880Y401959D01*
X45923Y401568D01*
X45957Y401177D01*
X45981Y400785D01*
X45995Y400393D01*
X46000Y400000D01*
X45995Y399607D01*
X45981Y399215D01*
X45957Y398823D01*
X45923Y398432D01*
X45880Y398041D01*
X45827Y397652D01*
X45764Y397265D01*
X45693Y396879D01*
X45611Y396494D01*
X45521Y396112D01*
X45420Y395733D01*
X45311Y395355D01*
X45192Y394981D01*
X45065Y394610D01*
X44928Y394242D01*
X44782Y393877D01*
X44627Y393516D01*
X44464Y393159D01*
X44292Y392806D01*
X44111Y392458D01*
X43921Y392114D01*
X43724Y391774D01*
X43518Y391440D01*
X43304Y391111D01*
X43081Y390787D01*
X42851Y390469D01*
X42614Y390156D01*
X42368Y389850D01*
X42115Y389549D01*
X41855Y389255D01*
X41588Y388967D01*
X41314Y388686D01*
X41033Y388412D01*
X40745Y388145D01*
X40451Y387885D01*
X40150Y387632D01*
X39844Y387386D01*
X39531Y387149D01*
X39213Y386919D01*
X38889Y386696D01*
X38560Y386482D01*
X38226Y386276D01*
X37886Y386079D01*
X37542Y385889D01*
X37194Y385708D01*
X36841Y385536D01*
X36484Y385373D01*
X36123Y385218D01*
X35758Y385072D01*
X35390Y384935D01*
X35019Y384808D01*
X34645Y384689D01*
X34267Y384580D01*
X33888Y384479D01*
X33506Y384389D01*
X33121Y384307D01*
X32735Y384236D01*
X32348Y384173D01*
X31959Y384120D01*
X31568Y384077D01*
X31177Y384043D01*
X30785Y384019D01*
X30393Y384005D01*
X30000Y384000D01*
X29607Y384005D01*
X29215Y384019D01*
X28823Y384043D01*
X28432Y384077D01*
X28041Y384120D01*
X27652Y384173D01*
X27265Y384236D01*
X26879Y384307D01*
X26494Y384389D01*
X26112Y384479D01*
X25733Y384580D01*
X25355Y384689D01*
X24981Y384808D01*
X24610Y384935D01*
X24242Y385072D01*
X23877Y385218D01*
X23516Y385373D01*
X23159Y385536D01*
X22806Y385708D01*
X22458Y385889D01*
X22114Y386079D01*
X21774Y386276D01*
X21440Y386482D01*
X21111Y386696D01*
X20787Y386919D01*
X20469Y387149D01*
X20156Y387386D01*
X19850Y387632D01*
X19549Y387885D01*
X19255Y388145D01*
X18967Y388412D01*
X18686Y388686D01*
X18412Y388967D01*
X18145Y389255D01*
X17885Y389549D01*
X17632Y389850D01*
X17386Y390156D01*
X17149Y390469D01*
X16919Y390787D01*
X16696Y391111D01*
X16482Y391440D01*
X16276Y391774D01*
X16079Y392114D01*
X15889Y392458D01*
X15708Y392806D01*
X15536Y393159D01*
X15373Y393516D01*
X15218Y393877D01*
X15072Y394242D01*
X14935Y394610D01*
X14808Y394981D01*
X14689Y395355D01*
X14580Y395733D01*
X14479Y396112D01*
X14389Y396494D01*
X14307Y396879D01*
X14236Y397265D01*
X14173Y397652D01*
X14120Y398041D01*
X14077Y398432D01*
X14043Y398823D01*
X14019Y399215D01*
X14005Y399607D01*
X14000Y400000D01*
D11*
X30000Y400000D03*
D10*
X14000Y30000D02*
X14005Y30393D01*
X14019Y30785D01*
X14043Y31177D01*
X14077Y31568D01*
X14120Y31959D01*
X14173Y32348D01*
X14236Y32735D01*
X14307Y33121D01*
X14389Y33506D01*
X14479Y33888D01*
X14580Y34267D01*
X14689Y34645D01*
X14808Y35019D01*
X14935Y35390D01*
X15072Y35758D01*
X15218Y36123D01*
X15373Y36484D01*
X15536Y36841D01*
X15708Y37194D01*
X15889Y37542D01*
X16079Y37886D01*
X16276Y38226D01*
X16482Y38560D01*
X16696Y38889D01*
X16919Y39213D01*
X17149Y39531D01*
X17386Y39844D01*
X17632Y40150D01*
X17885Y40451D01*
X18145Y40745D01*
X18412Y41033D01*
X18686Y41314D01*
X18967Y41588D01*
X19255Y41855D01*
X19549Y42115D01*
X19850Y42368D01*
X20156Y42614D01*
X20469Y42851D01*
X20787Y43081D01*
X21111Y43304D01*
X21440Y43518D01*
X21774Y43724D01*
X22114Y43921D01*
X22458Y44111D01*
X22806Y44292D01*
X23159Y44464D01*
X23516Y44627D01*
X23877Y44782D01*
X24242Y44928D01*
X24610Y45065D01*
X24981Y45192D01*
X25355Y45311D01*
X25733Y45420D01*
X26112Y45521D01*
X26494Y45611D01*
X26879Y45693D01*
X27265Y45764D01*
X27652Y45827D01*
X28041Y45880D01*
X28432Y45923D01*
X28823Y45957D01*
X29215Y45981D01*
X29607Y45995D01*
X30000Y46000D01*
X30393Y45995D01*
X30785Y45981D01*
X31177Y45957D01*
X31568Y45923D01*
X31959Y45880D01*
X32348Y45827D01*
X32735Y45764D01*
X33121Y45693D01*
X33506Y45611D01*
X33888Y45521D01*
X34267Y45420D01*
X34645Y45311D01*
X35019Y45192D01*
X35390Y45065D01*
X35758Y44928D01*
X36123Y44782D01*
X36484Y44627D01*
X36841Y44464D01*
X37194Y44292D01*
X37542Y44111D01*
X37886Y43921D01*
X38226Y43724D01*
X38560Y43518D01*
X38889Y43304D01*
X39213Y43081D01*
X39531Y42851D01*
X39844Y42614D01*
X40150Y42368D01*
X40451Y42115D01*
X40745Y41855D01*
X41033Y41588D01*
X41314Y41314D01*
X41588Y41033D01*
X41855Y40745D01*
X42115Y40451D01*
X42368Y40150D01*
X42614Y39844D01*
X42851Y39531D01*
X43081Y39213D01*
X43304Y38889D01*
X43518Y38560D01*
X43724Y38226D01*
X43921Y37886D01*
X44111Y37542D01*
X44292Y37194D01*
X44464Y36841D01*
X44627Y36484D01*
X44782Y36123D01*
X44928Y35758D01*
X45065Y35390D01*
X45192Y35019D01*
X45311Y34645D01*
X45420Y34267D01*
X45521Y33888D01*
X45611Y33506D01*
X45693Y33121D01*
X45764Y32735D01*
X45827Y32348D01*
X45880Y31959D01*
X45923Y31568D01*
X45957Y31177D01*
X45981Y30785D01*
X45995Y30393D01*
X46000Y30000D01*
X45995Y29607D01*
X45981Y29215D01*
X45957Y28823D01*
X45923Y28432D01*
X45880Y28041D01*
X45827Y27652D01*
X45764Y27265D01*
X45693Y26879D01*
X45611Y26494D01*
X45521Y26112D01*
X45420Y25733D01*
X45311Y25355D01*
X45192Y24981D01*
X45065Y24610D01*
X44928Y24242D01*
X44782Y23877D01*
X44627Y23516D01*
X44464Y23159D01*
X44292Y22806D01*
X44111Y22458D01*
X43921Y22114D01*
X43724Y21774D01*
X43518Y21440D01*
X43304Y21111D01*
X43081Y20787D01*
X42851Y20469D01*
X42614Y20156D01*
X42368Y19850D01*
X42115Y19549D01*
X41855Y19255D01*
X41588Y18967D01*
X41314Y18686D01*
X41033Y18412D01*
X40745Y18145D01*
X40451Y17885D01*
X40150Y17632D01*
X39844Y17386D01*
X39531Y17149D01*
X39213Y16919D01*
X38889Y16696D01*
X38560Y16482D01*
X38226Y16276D01*
X37886Y16079D01*
X37542Y15889D01*
X37194Y15708D01*
X36841Y15536D01*
X36484Y15373D01*
X36123Y15218D01*
X35758Y15072D01*
X35390Y14935D01*
X35019Y14808D01*
X34645Y14689D01*
X34267Y14580D01*
X33888Y14479D01*
X33506Y14389D01*
X33121Y14307D01*
X32735Y14236D01*
X32348Y14173D01*
X31959Y14120D01*
X31568Y14077D01*
X31177Y14043D01*
X30785Y14019D01*
X30393Y14005D01*
X30000Y14000D01*
X29607Y14005D01*
X29215Y14019D01*
X28823Y14043D01*
X28432Y14077D01*
X28041Y14120D01*
X27652Y14173D01*
X27265Y14236D01*
X26879Y14307D01*
X26494Y14389D01*
X26112Y14479D01*
X25733Y14580D01*
X25355Y14689D01*
X24981Y14808D01*
X24610Y14935D01*
X24242Y15072D01*
X23877Y15218D01*
X23516Y15373D01*
X23159Y15536D01*
X22806Y15708D01*
X22458Y15889D01*
X22114Y16079D01*
X21774Y16276D01*
X21440Y16482D01*
X21111Y16696D01*
X20787Y16919D01*
X20469Y17149D01*
X20156Y17386D01*
X19850Y17632D01*
X19549Y17885D01*
X19255Y18145D01*
X18967Y18412D01*
X18686Y18686D01*
X18412Y18967D01*
X18145Y19255D01*
X17885Y19549D01*
X17632Y19850D01*
X17386Y20156D01*
X17149Y20469D01*
X16919Y20787D01*
X16696Y21111D01*
X16482Y21440D01*
X16276Y21774D01*
X16079Y22114D01*
X15889Y22458D01*
X15708Y22806D01*
X15536Y23159D01*
X15373Y23516D01*
X15218Y23877D01*
X15072Y24242D01*
X14935Y24610D01*
X14808Y24981D01*
X14689Y25355D01*
X14580Y25733D01*
X14479Y26112D01*
X14389Y26494D01*
X14307Y26879D01*
X14236Y27265D01*
X14173Y27652D01*
X14120Y28041D01*
X14077Y28432D01*
X14043Y28823D01*
X14019Y29215D01*
X14005Y29607D01*
X14000Y30000D01*
D11*
X30000Y30000D03*
D12*
X230200Y481300D03*
X230200Y455900D03*
D13*
X275200Y415200D03*
X300600Y415200D03*
D12*
X190200Y118300D03*
X190200Y92900D03*
D13*
X288200Y210200D03*
X313600Y210200D03*
D14*
X110500Y207500D03*
D15*
X59700Y207500D03*
D14*
X277000Y468200D03*
D13*
X327800Y468200D03*
D16*
X179800Y299700D03*
X179800Y325100D03*
D17*
X122900Y448700D03*
X72900Y448700D03*
D18*
X62900Y475700D03*
X132900Y475700D03*
D19*
X474700Y169300D03*
X474700Y194700D03*
X474700Y220100D03*
X474700Y245500D03*
X474700Y270900D03*
X474700Y296300D03*
X474700Y321700D03*
X474700Y347100D03*
X26600Y169800D03*
X26600Y195200D03*
X26600Y220600D03*
X26600Y246000D03*
X26600Y271400D03*
X26600Y296800D03*
X26600Y322200D03*
X26600Y347600D03*
D13*
X282500Y360300D03*
X307900Y360300D03*
X364100Y335300D03*
X389500Y335300D03*
D19*
X328300Y276300D03*
X302900Y276300D03*
X277500Y276300D03*
D12*
X311000Y135300D03*
X311000Y33700D03*
X371800Y481300D03*
X371800Y379700D03*
X416800Y483300D03*
X416800Y381700D03*
D20*
X416100Y276500D03*
X365300Y276500D03*
D21*
X168400Y441400D03*
X168400Y461400D03*
X168400Y421400D03*
D22*
X168400Y401400D03*
X168400Y481400D03*
D16*
X225500Y412000D03*
X206450Y399300D03*
X225500Y386600D03*
D19*
X355600Y38700D03*
X381000Y38700D03*
X406400Y38700D03*
X431800Y38700D03*
X457200Y38700D03*
X482600Y38700D03*
D20*
X230600Y38600D03*
X281400Y38600D03*
D16*
X420000Y139200D03*
X420000Y240800D03*
D12*
X110000Y182700D03*
X110000Y157300D03*
M02*
