M48
;GenerationSoftware,Autodesk,EAGLE,9.4.2*%
;CreationDate,2019-06-03T00:12:44Z*%
FMAT,2
ICI,OFF
METRIC,TZ,000.000
T8C0.350
T7C0.800
T6C0.813
T5C0.850
T4C1.000
T3C1.016
T2C1.150
T1C3.200
%
G90
M71
T1
X3000Y40000
X47000Y47000
X3000Y3000
T2
X6290Y47570
X13290Y47570
T3
X40640Y3870
X38100Y3870
X35560Y3870
X36530Y27650
X41610Y27650
X27750Y27630
X30290Y27630
X2660Y32220
X32830Y27630
X2660Y34760
X2660Y29680
X2660Y27140
X2660Y24600
X2660Y22060
X2660Y19520
X2660Y16980
X47470Y34710
X47470Y32170
X47470Y29630
X47470Y27090
X47470Y24550
X48260Y3870
X47470Y22010
X45720Y3870
X43180Y3870
X47470Y16930
X47470Y19470
X23060Y3860
X28140Y3860
T4
X16840Y48140
X16840Y40140
T5
X7290Y44870
X12290Y44870
T6
X27520Y41520
X30060Y41520
X19020Y11830
X19020Y9290
X28820Y21020
X31360Y21020
X5970Y20750
X27700Y46820
X32780Y46820
X17980Y29970
X17980Y32510
X22550Y38660
X11050Y20750
X28250Y36030
X30790Y36030
X36410Y33530
X38950Y33530
X31100Y13530
X31100Y3370
X37180Y48130
X37180Y37970
X41680Y48330
X41680Y38170
X22550Y41200
X20645Y39930
X23020Y48130
X23020Y45590
X42000Y13920
X42000Y24080
X11000Y18270
X11000Y15730
T7
X16840Y44140
X16840Y46140
X16840Y42140
T8
X20500Y6000
X18000Y17000
X23500Y29500
X36000Y29500
X23500Y24500
X23000Y22000
X22000Y20026
X18000Y24000
X9500Y24000
X15500Y23000
X11000Y23000
X14500Y27000
X21000Y19500
X23500Y8000
X18980Y20500
X23556Y20582
X19480Y18000
X28500Y31500
X25620Y38660
X19000Y42140
X16000Y29500
X13500Y25500
X16500Y22000
X17500Y19500
X20500Y17000
X22000Y7000
M30