G04 EAGLE Gerber RS-274X export*
G75*
%MOMM*%
%FSLAX34Y34*%
%LPD*%
%INTop Layer*%
%IPPOS*%
%AMOC8*
5,1,8,0,0,1.08239X$1,22.5*%
G01*
%ADD10C,0.000000*%
%ADD11P,1.429621X8X292.500000*%
%ADD12P,1.429621X8X22.500000*%
%ADD13C,1.320800*%
%ADD14P,1.429621X8X202.500000*%
%ADD15P,1.429621X8X112.500000*%
%ADD16R,0.400000X1.350000*%
%ADD17C,1.358000*%
%ADD18C,1.725000*%
%ADD19R,1.500000X1.500000*%
%ADD20C,1.879600*%
%ADD21R,1.500000X0.500000*%
%ADD22R,0.500000X1.500000*%
%ADD23C,1.930400*%
%ADD24C,1.308000*%
%ADD25C,1.508000*%
%ADD26C,0.152400*%
%ADD27C,0.654800*%

G36*
X496718Y2544D02*
X496718Y2544D01*
X496737Y2542D01*
X496839Y2564D01*
X496941Y2580D01*
X496958Y2590D01*
X496978Y2594D01*
X497067Y2647D01*
X497158Y2696D01*
X497172Y2710D01*
X497189Y2720D01*
X497256Y2799D01*
X497328Y2874D01*
X497336Y2892D01*
X497349Y2907D01*
X497388Y3003D01*
X497431Y3097D01*
X497433Y3117D01*
X497441Y3135D01*
X497459Y3302D01*
X497459Y496698D01*
X497456Y496718D01*
X497458Y496737D01*
X497436Y496839D01*
X497420Y496941D01*
X497410Y496958D01*
X497406Y496978D01*
X497353Y497067D01*
X497304Y497158D01*
X497290Y497172D01*
X497280Y497189D01*
X497201Y497256D01*
X497126Y497328D01*
X497108Y497336D01*
X497093Y497349D01*
X496997Y497388D01*
X496903Y497431D01*
X496883Y497433D01*
X496865Y497441D01*
X496698Y497459D01*
X3302Y497459D01*
X3282Y497456D01*
X3263Y497458D01*
X3161Y497436D01*
X3059Y497420D01*
X3042Y497410D01*
X3022Y497406D01*
X2933Y497353D01*
X2842Y497304D01*
X2828Y497290D01*
X2811Y497280D01*
X2744Y497201D01*
X2672Y497126D01*
X2664Y497108D01*
X2651Y497093D01*
X2612Y496997D01*
X2569Y496903D01*
X2567Y496883D01*
X2559Y496865D01*
X2541Y496698D01*
X2541Y3302D01*
X2544Y3282D01*
X2542Y3263D01*
X2564Y3161D01*
X2580Y3059D01*
X2590Y3042D01*
X2594Y3022D01*
X2647Y2933D01*
X2696Y2842D01*
X2710Y2828D01*
X2720Y2811D01*
X2799Y2744D01*
X2874Y2672D01*
X2892Y2664D01*
X2907Y2651D01*
X3003Y2612D01*
X3097Y2569D01*
X3117Y2567D01*
X3135Y2559D01*
X3302Y2541D01*
X496698Y2541D01*
X496718Y2544D01*
G37*
%LPC*%
G36*
X203012Y55201D02*
X203012Y55201D01*
X200201Y58012D01*
X200201Y61988D01*
X202490Y64277D01*
X202543Y64351D01*
X202603Y64420D01*
X202615Y64450D01*
X202634Y64476D01*
X202661Y64563D01*
X202695Y64648D01*
X202699Y64689D01*
X202706Y64712D01*
X202705Y64744D01*
X202713Y64815D01*
X202713Y139714D01*
X202710Y139734D01*
X202712Y139753D01*
X202690Y139855D01*
X202674Y139957D01*
X202664Y139974D01*
X202660Y139994D01*
X202607Y140083D01*
X202558Y140174D01*
X202544Y140188D01*
X202534Y140205D01*
X202455Y140272D01*
X202380Y140344D01*
X202362Y140352D01*
X202347Y140365D01*
X202251Y140404D01*
X202157Y140447D01*
X202137Y140449D01*
X202119Y140457D01*
X201952Y140475D01*
X199668Y140475D01*
X199338Y140805D01*
X199322Y140817D01*
X199310Y140833D01*
X199223Y140889D01*
X199139Y140949D01*
X199120Y140955D01*
X199103Y140966D01*
X199002Y140991D01*
X198903Y141021D01*
X198884Y141021D01*
X198864Y141026D01*
X198761Y141018D01*
X198658Y141015D01*
X198639Y141008D01*
X198619Y141007D01*
X198524Y140966D01*
X198427Y140931D01*
X198411Y140918D01*
X198393Y140910D01*
X198262Y140805D01*
X197932Y140475D01*
X197848Y140475D01*
X197828Y140472D01*
X197809Y140474D01*
X197707Y140452D01*
X197605Y140436D01*
X197588Y140426D01*
X197568Y140422D01*
X197479Y140369D01*
X197388Y140320D01*
X197374Y140306D01*
X197357Y140296D01*
X197290Y140217D01*
X197218Y140142D01*
X197210Y140124D01*
X197197Y140109D01*
X197158Y140013D01*
X197115Y139919D01*
X197113Y139899D01*
X197105Y139881D01*
X197087Y139714D01*
X197087Y123224D01*
X197101Y123134D01*
X197109Y123043D01*
X197121Y123014D01*
X197126Y122982D01*
X197169Y122901D01*
X197205Y122817D01*
X197231Y122785D01*
X197242Y122764D01*
X197265Y122742D01*
X197310Y122686D01*
X198329Y121667D01*
X198329Y114933D01*
X193567Y110171D01*
X186833Y110171D01*
X182071Y114933D01*
X182071Y121667D01*
X186833Y126429D01*
X191752Y126429D01*
X191772Y126432D01*
X191791Y126430D01*
X191893Y126452D01*
X191995Y126468D01*
X192012Y126478D01*
X192032Y126482D01*
X192121Y126535D01*
X192212Y126584D01*
X192226Y126598D01*
X192243Y126608D01*
X192310Y126687D01*
X192382Y126762D01*
X192390Y126780D01*
X192403Y126795D01*
X192442Y126891D01*
X192485Y126985D01*
X192487Y127005D01*
X192495Y127023D01*
X192513Y127190D01*
X192513Y139714D01*
X192510Y139734D01*
X192512Y139753D01*
X192490Y139855D01*
X192474Y139957D01*
X192464Y139974D01*
X192460Y139994D01*
X192407Y140083D01*
X192358Y140174D01*
X192344Y140188D01*
X192334Y140205D01*
X192255Y140272D01*
X192180Y140344D01*
X192162Y140352D01*
X192147Y140365D01*
X192051Y140404D01*
X191957Y140447D01*
X191937Y140449D01*
X191919Y140457D01*
X191752Y140475D01*
X191684Y140475D01*
X191594Y140461D01*
X191503Y140453D01*
X191473Y140441D01*
X191441Y140436D01*
X191360Y140393D01*
X191276Y140357D01*
X191244Y140331D01*
X191224Y140320D01*
X191201Y140297D01*
X191145Y140252D01*
X190860Y139967D01*
X190281Y139632D01*
X189634Y139459D01*
X188049Y139459D01*
X188049Y149012D01*
X188046Y149031D01*
X188048Y149051D01*
X188026Y149153D01*
X188010Y149255D01*
X188000Y149272D01*
X187996Y149292D01*
X187943Y149381D01*
X187894Y149472D01*
X187880Y149486D01*
X187870Y149503D01*
X187866Y149506D01*
X187918Y149560D01*
X187926Y149578D01*
X187939Y149593D01*
X187978Y149690D01*
X188021Y149783D01*
X188023Y149803D01*
X188031Y149821D01*
X188049Y149988D01*
X188049Y159541D01*
X189634Y159541D01*
X190281Y159368D01*
X190860Y159033D01*
X191145Y158748D01*
X191219Y158695D01*
X191289Y158635D01*
X191319Y158623D01*
X191345Y158604D01*
X191432Y158577D01*
X191517Y158543D01*
X191558Y158539D01*
X191580Y158532D01*
X191612Y158533D01*
X191684Y158525D01*
X191752Y158525D01*
X191772Y158528D01*
X191791Y158526D01*
X191893Y158548D01*
X191995Y158564D01*
X192012Y158574D01*
X192032Y158578D01*
X192121Y158631D01*
X192212Y158680D01*
X192226Y158694D01*
X192243Y158704D01*
X192310Y158783D01*
X192382Y158858D01*
X192390Y158876D01*
X192403Y158891D01*
X192442Y158987D01*
X192485Y159081D01*
X192487Y159101D01*
X192495Y159119D01*
X192513Y159286D01*
X192513Y175185D01*
X192499Y175275D01*
X192491Y175366D01*
X192479Y175396D01*
X192474Y175428D01*
X192431Y175508D01*
X192395Y175592D01*
X192369Y175624D01*
X192358Y175645D01*
X192335Y175667D01*
X192290Y175723D01*
X190001Y178012D01*
X190001Y181250D01*
X189987Y181340D01*
X189979Y181431D01*
X189967Y181460D01*
X189962Y181492D01*
X189919Y181573D01*
X189883Y181657D01*
X189857Y181689D01*
X189846Y181710D01*
X189823Y181732D01*
X189778Y181788D01*
X189076Y182490D01*
X187513Y184053D01*
X187513Y200185D01*
X187499Y200275D01*
X187491Y200366D01*
X187479Y200396D01*
X187474Y200428D01*
X187431Y200508D01*
X187395Y200592D01*
X187369Y200625D01*
X187358Y200645D01*
X187335Y200667D01*
X187290Y200723D01*
X185001Y203012D01*
X185001Y206988D01*
X187290Y209277D01*
X187343Y209351D01*
X187403Y209420D01*
X187415Y209450D01*
X187434Y209476D01*
X187461Y209563D01*
X187495Y209648D01*
X187499Y209689D01*
X187506Y209712D01*
X187505Y209744D01*
X187513Y209815D01*
X187513Y243218D01*
X187557Y243279D01*
X187617Y243349D01*
X187629Y243379D01*
X187648Y243405D01*
X187675Y243492D01*
X187709Y243577D01*
X187713Y243618D01*
X187720Y243640D01*
X187719Y243672D01*
X187727Y243744D01*
X187727Y255714D01*
X187724Y255734D01*
X187726Y255753D01*
X187704Y255855D01*
X187688Y255957D01*
X187678Y255974D01*
X187674Y255994D01*
X187621Y256083D01*
X187572Y256174D01*
X187558Y256188D01*
X187548Y256205D01*
X187469Y256272D01*
X187394Y256344D01*
X187376Y256352D01*
X187361Y256365D01*
X187265Y256404D01*
X187171Y256447D01*
X187151Y256449D01*
X187133Y256457D01*
X186966Y256475D01*
X183668Y256475D01*
X183338Y256805D01*
X183322Y256817D01*
X183310Y256833D01*
X183223Y256889D01*
X183139Y256949D01*
X183120Y256955D01*
X183103Y256966D01*
X183002Y256991D01*
X182903Y257021D01*
X182884Y257021D01*
X182864Y257026D01*
X182761Y257018D01*
X182658Y257015D01*
X182639Y257008D01*
X182619Y257007D01*
X182524Y256966D01*
X182427Y256931D01*
X182411Y256918D01*
X182393Y256910D01*
X182262Y256805D01*
X181932Y256475D01*
X181848Y256475D01*
X181828Y256472D01*
X181809Y256474D01*
X181707Y256452D01*
X181605Y256436D01*
X181588Y256426D01*
X181568Y256422D01*
X181479Y256369D01*
X181388Y256320D01*
X181374Y256306D01*
X181357Y256296D01*
X181290Y256217D01*
X181218Y256142D01*
X181210Y256124D01*
X181197Y256109D01*
X181158Y256013D01*
X181115Y255919D01*
X181113Y255899D01*
X181105Y255881D01*
X181087Y255714D01*
X181087Y245560D01*
X181090Y245540D01*
X181088Y245521D01*
X181110Y245419D01*
X181126Y245317D01*
X181136Y245300D01*
X181140Y245280D01*
X181193Y245191D01*
X181242Y245100D01*
X181256Y245086D01*
X181266Y245069D01*
X181345Y245002D01*
X181420Y244930D01*
X181438Y244922D01*
X181453Y244909D01*
X181549Y244870D01*
X181643Y244827D01*
X181663Y244825D01*
X181681Y244817D01*
X181848Y244799D01*
X181988Y244799D01*
X184799Y241988D01*
X184799Y238012D01*
X181988Y235201D01*
X178012Y235201D01*
X175201Y238012D01*
X175201Y241988D01*
X176290Y243077D01*
X176343Y243151D01*
X176403Y243220D01*
X176415Y243250D01*
X176434Y243276D01*
X176461Y243363D01*
X176495Y243448D01*
X176499Y243489D01*
X176506Y243512D01*
X176505Y243544D01*
X176513Y243615D01*
X176513Y255714D01*
X176510Y255734D01*
X176512Y255753D01*
X176490Y255855D01*
X176474Y255957D01*
X176464Y255974D01*
X176460Y255994D01*
X176407Y256083D01*
X176358Y256174D01*
X176344Y256188D01*
X176334Y256205D01*
X176255Y256272D01*
X176180Y256344D01*
X176162Y256352D01*
X176147Y256365D01*
X176051Y256404D01*
X175957Y256447D01*
X175937Y256449D01*
X175919Y256457D01*
X175752Y256475D01*
X175668Y256475D01*
X175338Y256805D01*
X175322Y256817D01*
X175310Y256833D01*
X175223Y256889D01*
X175139Y256949D01*
X175120Y256955D01*
X175103Y256966D01*
X175002Y256991D01*
X174903Y257021D01*
X174884Y257021D01*
X174864Y257026D01*
X174761Y257018D01*
X174658Y257015D01*
X174639Y257008D01*
X174619Y257007D01*
X174524Y256966D01*
X174427Y256931D01*
X174411Y256918D01*
X174393Y256910D01*
X174262Y256805D01*
X173932Y256475D01*
X167668Y256475D01*
X167338Y256805D01*
X167322Y256817D01*
X167310Y256833D01*
X167223Y256889D01*
X167139Y256949D01*
X167120Y256955D01*
X167103Y256966D01*
X167002Y256991D01*
X166903Y257021D01*
X166884Y257021D01*
X166864Y257026D01*
X166761Y257018D01*
X166658Y257015D01*
X166639Y257008D01*
X166619Y257007D01*
X166524Y256966D01*
X166427Y256931D01*
X166411Y256918D01*
X166393Y256910D01*
X166262Y256805D01*
X165932Y256475D01*
X159668Y256475D01*
X159338Y256805D01*
X159322Y256817D01*
X159310Y256833D01*
X159223Y256889D01*
X159139Y256949D01*
X159120Y256955D01*
X159103Y256966D01*
X159002Y256991D01*
X158903Y257021D01*
X158884Y257021D01*
X158864Y257026D01*
X158761Y257018D01*
X158658Y257015D01*
X158639Y257008D01*
X158619Y257007D01*
X158524Y256966D01*
X158427Y256931D01*
X158411Y256918D01*
X158393Y256910D01*
X158262Y256805D01*
X157932Y256475D01*
X151668Y256475D01*
X150775Y257368D01*
X150775Y265976D01*
X150761Y266066D01*
X150753Y266157D01*
X150741Y266186D01*
X150736Y266218D01*
X150693Y266299D01*
X150657Y266383D01*
X150631Y266415D01*
X150620Y266436D01*
X150597Y266458D01*
X150552Y266514D01*
X149965Y267102D01*
X149948Y267113D01*
X149936Y267129D01*
X149849Y267185D01*
X149765Y267245D01*
X149746Y267251D01*
X149729Y267262D01*
X149628Y267287D01*
X149530Y267317D01*
X149510Y267317D01*
X149490Y267322D01*
X149388Y267314D01*
X149284Y267311D01*
X149265Y267304D01*
X149245Y267303D01*
X149151Y267262D01*
X149053Y267227D01*
X149037Y267214D01*
X149019Y267206D01*
X148888Y267102D01*
X146988Y265201D01*
X143012Y265201D01*
X140201Y268012D01*
X140201Y271988D01*
X143012Y274799D01*
X146988Y274799D01*
X149277Y272510D01*
X149351Y272457D01*
X149420Y272397D01*
X149450Y272385D01*
X149476Y272366D01*
X149563Y272339D01*
X149648Y272305D01*
X149689Y272301D01*
X149712Y272294D01*
X149744Y272295D01*
X149815Y272287D01*
X150014Y272287D01*
X150034Y272290D01*
X150053Y272288D01*
X150155Y272310D01*
X150257Y272326D01*
X150274Y272336D01*
X150294Y272340D01*
X150383Y272393D01*
X150474Y272442D01*
X150488Y272456D01*
X150505Y272466D01*
X150572Y272545D01*
X150644Y272620D01*
X150652Y272638D01*
X150665Y272653D01*
X150704Y272749D01*
X150747Y272843D01*
X150749Y272863D01*
X150757Y272881D01*
X150775Y273048D01*
X150775Y273632D01*
X151668Y274525D01*
X157932Y274525D01*
X158262Y274195D01*
X158278Y274183D01*
X158290Y274167D01*
X158377Y274111D01*
X158461Y274051D01*
X158480Y274045D01*
X158497Y274034D01*
X158598Y274009D01*
X158697Y273979D01*
X158716Y273979D01*
X158736Y273974D01*
X158839Y273982D01*
X158942Y273985D01*
X158961Y273992D01*
X158981Y273993D01*
X159076Y274034D01*
X159173Y274069D01*
X159189Y274082D01*
X159207Y274090D01*
X159338Y274195D01*
X159668Y274525D01*
X159752Y274525D01*
X159772Y274528D01*
X159791Y274526D01*
X159893Y274548D01*
X159995Y274564D01*
X160012Y274574D01*
X160032Y274578D01*
X160121Y274631D01*
X160212Y274680D01*
X160226Y274694D01*
X160243Y274704D01*
X160310Y274783D01*
X160382Y274858D01*
X160390Y274876D01*
X160403Y274891D01*
X160442Y274987D01*
X160485Y275081D01*
X160487Y275101D01*
X160495Y275119D01*
X160513Y275286D01*
X160513Y289440D01*
X160510Y289460D01*
X160512Y289479D01*
X160490Y289581D01*
X160474Y289683D01*
X160464Y289700D01*
X160460Y289720D01*
X160407Y289809D01*
X160358Y289900D01*
X160344Y289914D01*
X160334Y289931D01*
X160255Y289998D01*
X160180Y290070D01*
X160162Y290078D01*
X160147Y290091D01*
X160051Y290130D01*
X159957Y290173D01*
X159937Y290175D01*
X159919Y290183D01*
X159752Y290201D01*
X158012Y290201D01*
X155201Y293012D01*
X155201Y296988D01*
X158012Y299799D01*
X161988Y299799D01*
X164799Y296988D01*
X164799Y293751D01*
X164813Y293660D01*
X164821Y293570D01*
X164833Y293540D01*
X164838Y293508D01*
X164881Y293427D01*
X164917Y293343D01*
X164943Y293311D01*
X164954Y293290D01*
X164977Y293268D01*
X165022Y293212D01*
X165087Y293147D01*
X165087Y275286D01*
X165090Y275266D01*
X165088Y275247D01*
X165110Y275145D01*
X165126Y275043D01*
X165136Y275026D01*
X165140Y275006D01*
X165193Y274917D01*
X165242Y274826D01*
X165256Y274812D01*
X165266Y274795D01*
X165345Y274728D01*
X165420Y274656D01*
X165438Y274648D01*
X165453Y274635D01*
X165549Y274596D01*
X165643Y274553D01*
X165663Y274551D01*
X165681Y274543D01*
X165848Y274525D01*
X165932Y274525D01*
X166262Y274195D01*
X166278Y274183D01*
X166290Y274167D01*
X166377Y274111D01*
X166461Y274051D01*
X166480Y274045D01*
X166497Y274034D01*
X166598Y274009D01*
X166697Y273979D01*
X166716Y273979D01*
X166736Y273974D01*
X166839Y273982D01*
X166942Y273985D01*
X166961Y273992D01*
X166981Y273993D01*
X167076Y274034D01*
X167173Y274069D01*
X167189Y274082D01*
X167207Y274090D01*
X167338Y274195D01*
X167668Y274525D01*
X171043Y274525D01*
X171133Y274539D01*
X171224Y274547D01*
X171253Y274559D01*
X171285Y274564D01*
X171366Y274607D01*
X171450Y274643D01*
X171482Y274669D01*
X171503Y274680D01*
X171525Y274703D01*
X171581Y274748D01*
X177290Y280457D01*
X177343Y280531D01*
X177403Y280601D01*
X177415Y280631D01*
X177434Y280657D01*
X177461Y280744D01*
X177495Y280829D01*
X177499Y280870D01*
X177506Y280892D01*
X177505Y280924D01*
X177513Y280995D01*
X177513Y290810D01*
X177510Y290830D01*
X177512Y290849D01*
X177490Y290951D01*
X177474Y291053D01*
X177464Y291070D01*
X177460Y291090D01*
X177407Y291179D01*
X177358Y291270D01*
X177344Y291284D01*
X177334Y291301D01*
X177255Y291368D01*
X177180Y291440D01*
X177162Y291448D01*
X177147Y291461D01*
X177051Y291500D01*
X176957Y291543D01*
X176937Y291545D01*
X176919Y291553D01*
X176752Y291571D01*
X176433Y291571D01*
X171671Y296333D01*
X171671Y303067D01*
X176433Y307829D01*
X183167Y307829D01*
X183393Y307603D01*
X183409Y307591D01*
X183421Y307576D01*
X183508Y307520D01*
X183592Y307460D01*
X183611Y307454D01*
X183628Y307443D01*
X183729Y307418D01*
X183827Y307387D01*
X183847Y307388D01*
X183867Y307383D01*
X183970Y307391D01*
X184073Y307394D01*
X184092Y307400D01*
X184112Y307402D01*
X184207Y307442D01*
X184304Y307478D01*
X184320Y307491D01*
X184338Y307498D01*
X184469Y307603D01*
X187398Y310532D01*
X187450Y310604D01*
X187508Y310672D01*
X187522Y310704D01*
X187542Y310732D01*
X187568Y310817D01*
X187602Y310899D01*
X187607Y310943D01*
X187614Y310967D01*
X187614Y310999D01*
X187621Y311066D01*
X187669Y318193D01*
X187657Y318266D01*
X187655Y318341D01*
X187638Y318387D01*
X187630Y318436D01*
X187596Y318502D01*
X187571Y318572D01*
X187540Y318610D01*
X187517Y318654D01*
X187463Y318706D01*
X187417Y318764D01*
X187375Y318790D01*
X187340Y318825D01*
X187273Y318857D01*
X187210Y318897D01*
X187162Y318909D01*
X187117Y318930D01*
X187044Y318939D01*
X186972Y318957D01*
X186922Y318953D01*
X186873Y318959D01*
X186800Y318943D01*
X186726Y318938D01*
X186681Y318918D01*
X186632Y318908D01*
X186568Y318870D01*
X186500Y318841D01*
X186447Y318799D01*
X186420Y318783D01*
X186404Y318764D01*
X186369Y318736D01*
X183588Y315955D01*
X181323Y315955D01*
X181323Y324338D01*
X181320Y324358D01*
X181322Y324377D01*
X181300Y324479D01*
X181283Y324581D01*
X181274Y324598D01*
X181270Y324618D01*
X181217Y324707D01*
X181168Y324798D01*
X181154Y324812D01*
X181144Y324829D01*
X181065Y324896D01*
X180990Y324967D01*
X180972Y324976D01*
X180957Y324989D01*
X180861Y325027D01*
X180767Y325071D01*
X180747Y325073D01*
X180729Y325081D01*
X180562Y325099D01*
X179799Y325099D01*
X179799Y325101D01*
X180562Y325101D01*
X180582Y325104D01*
X180601Y325102D01*
X180703Y325124D01*
X180805Y325141D01*
X180822Y325150D01*
X180842Y325154D01*
X180931Y325207D01*
X181022Y325256D01*
X181036Y325270D01*
X181053Y325280D01*
X181120Y325359D01*
X181191Y325434D01*
X181200Y325452D01*
X181213Y325467D01*
X181252Y325563D01*
X181295Y325657D01*
X181297Y325677D01*
X181305Y325695D01*
X181323Y325862D01*
X181323Y334245D01*
X183588Y334245D01*
X186460Y331373D01*
X186516Y331333D01*
X186566Y331284D01*
X186615Y331261D01*
X186659Y331229D01*
X186726Y331209D01*
X186788Y331179D01*
X186842Y331173D01*
X186895Y331157D01*
X186964Y331159D01*
X187032Y331151D01*
X187086Y331162D01*
X187140Y331163D01*
X187205Y331187D01*
X187273Y331201D01*
X187320Y331229D01*
X187371Y331248D01*
X187426Y331291D01*
X187485Y331326D01*
X187521Y331367D01*
X187563Y331401D01*
X187601Y331460D01*
X187646Y331512D01*
X187667Y331562D01*
X187696Y331608D01*
X187713Y331675D01*
X187740Y331740D01*
X187749Y331815D01*
X187757Y331847D01*
X187755Y331869D01*
X187759Y331906D01*
X187902Y353543D01*
X187888Y353636D01*
X187880Y353730D01*
X187869Y353757D01*
X187864Y353786D01*
X187821Y353870D01*
X187784Y353956D01*
X187761Y353985D01*
X187751Y354005D01*
X187727Y354027D01*
X187713Y354044D01*
X187713Y416585D01*
X187699Y416675D01*
X187691Y416766D01*
X187679Y416796D01*
X187674Y416828D01*
X187631Y416908D01*
X187595Y416992D01*
X187569Y417024D01*
X187558Y417045D01*
X187535Y417067D01*
X187490Y417123D01*
X185201Y419412D01*
X185201Y423388D01*
X188012Y426199D01*
X191988Y426199D01*
X194799Y423388D01*
X194799Y419412D01*
X192510Y417123D01*
X192457Y417049D01*
X192397Y416980D01*
X192385Y416950D01*
X192366Y416924D01*
X192339Y416837D01*
X192305Y416752D01*
X192301Y416711D01*
X192294Y416688D01*
X192295Y416656D01*
X192287Y416585D01*
X192287Y356663D01*
X192301Y356572D01*
X192309Y356482D01*
X192321Y356452D01*
X192326Y356420D01*
X192369Y356339D01*
X192405Y356255D01*
X192431Y356223D01*
X192442Y356202D01*
X192465Y356180D01*
X192493Y356145D01*
X192487Y355195D01*
X192487Y355193D01*
X192487Y355190D01*
X192487Y354038D01*
X192486Y354034D01*
X192486Y354002D01*
X192478Y353934D01*
X192187Y309794D01*
X192187Y309792D01*
X192187Y309789D01*
X192187Y308844D01*
X191512Y308178D01*
X191511Y308176D01*
X191508Y308175D01*
X187703Y304369D01*
X187691Y304353D01*
X187676Y304341D01*
X187620Y304253D01*
X187560Y304169D01*
X187554Y304150D01*
X187543Y304134D01*
X187518Y304033D01*
X187487Y303934D01*
X187488Y303914D01*
X187483Y303895D01*
X187491Y303792D01*
X187494Y303688D01*
X187500Y303670D01*
X187502Y303650D01*
X187542Y303555D01*
X187578Y303457D01*
X187591Y303442D01*
X187598Y303424D01*
X187703Y303293D01*
X187929Y303067D01*
X187929Y296333D01*
X183167Y291571D01*
X182848Y291571D01*
X182828Y291568D01*
X182809Y291570D01*
X182707Y291548D01*
X182605Y291532D01*
X182588Y291522D01*
X182568Y291518D01*
X182479Y291465D01*
X182388Y291416D01*
X182374Y291402D01*
X182357Y291392D01*
X182290Y291313D01*
X182218Y291238D01*
X182210Y291220D01*
X182197Y291205D01*
X182158Y291109D01*
X182115Y291015D01*
X182113Y290995D01*
X182105Y290977D01*
X182087Y290810D01*
X182087Y278786D01*
X179125Y275824D01*
X179083Y275766D01*
X179034Y275714D01*
X179012Y275667D01*
X178982Y275625D01*
X178961Y275556D01*
X178930Y275491D01*
X178925Y275439D01*
X178909Y275389D01*
X178911Y275318D01*
X178903Y275247D01*
X178914Y275196D01*
X178916Y275144D01*
X178940Y275076D01*
X178956Y275006D01*
X178982Y274961D01*
X179000Y274913D01*
X179045Y274857D01*
X179082Y274795D01*
X179121Y274761D01*
X179154Y274721D01*
X179214Y274682D01*
X179269Y274635D01*
X179317Y274616D01*
X179361Y274588D01*
X179430Y274570D01*
X179497Y274543D01*
X179568Y274535D01*
X179599Y274527D01*
X179623Y274529D01*
X179664Y274525D01*
X181932Y274525D01*
X182262Y274195D01*
X182278Y274183D01*
X182290Y274167D01*
X182377Y274111D01*
X182461Y274051D01*
X182480Y274045D01*
X182497Y274034D01*
X182598Y274009D01*
X182697Y273979D01*
X182716Y273979D01*
X182736Y273974D01*
X182839Y273982D01*
X182942Y273985D01*
X182961Y273992D01*
X182981Y273993D01*
X183076Y274034D01*
X183173Y274069D01*
X183189Y274082D01*
X183207Y274090D01*
X183338Y274195D01*
X183668Y274525D01*
X187043Y274525D01*
X187133Y274539D01*
X187224Y274547D01*
X187253Y274559D01*
X187285Y274564D01*
X187366Y274607D01*
X187450Y274643D01*
X187482Y274669D01*
X187503Y274680D01*
X187525Y274703D01*
X187581Y274748D01*
X190406Y277573D01*
X195323Y277573D01*
X195414Y277587D01*
X195504Y277595D01*
X195534Y277607D01*
X195566Y277612D01*
X195647Y277655D01*
X195731Y277691D01*
X195763Y277717D01*
X195784Y277728D01*
X195806Y277751D01*
X195862Y277796D01*
X222990Y304924D01*
X223043Y304998D01*
X223103Y305068D01*
X223115Y305098D01*
X223134Y305124D01*
X223161Y305211D01*
X223195Y305296D01*
X223199Y305337D01*
X223206Y305359D01*
X223205Y305391D01*
X223213Y305463D01*
X223213Y377710D01*
X223210Y377730D01*
X223212Y377749D01*
X223190Y377851D01*
X223174Y377953D01*
X223164Y377970D01*
X223160Y377990D01*
X223107Y378079D01*
X223058Y378170D01*
X223044Y378184D01*
X223034Y378201D01*
X222955Y378268D01*
X222880Y378340D01*
X222862Y378348D01*
X222847Y378361D01*
X222751Y378400D01*
X222657Y378443D01*
X222637Y378445D01*
X222619Y378453D01*
X222452Y378471D01*
X222133Y378471D01*
X217371Y383233D01*
X217371Y389967D01*
X222133Y394729D01*
X228867Y394729D01*
X233629Y389967D01*
X233629Y383233D01*
X228867Y378471D01*
X228548Y378471D01*
X228528Y378468D01*
X228509Y378470D01*
X228407Y378448D01*
X228305Y378432D01*
X228288Y378422D01*
X228268Y378418D01*
X228179Y378365D01*
X228088Y378316D01*
X228074Y378302D01*
X228057Y378292D01*
X227990Y378213D01*
X227918Y378138D01*
X227910Y378120D01*
X227897Y378105D01*
X227858Y378009D01*
X227815Y377915D01*
X227813Y377895D01*
X227805Y377877D01*
X227787Y377710D01*
X227787Y303253D01*
X200358Y275824D01*
X200316Y275766D01*
X200267Y275714D01*
X200245Y275667D01*
X200215Y275625D01*
X200194Y275556D01*
X200163Y275491D01*
X200158Y275439D01*
X200142Y275389D01*
X200144Y275318D01*
X200136Y275247D01*
X200147Y275196D01*
X200149Y275144D01*
X200173Y275076D01*
X200188Y275006D01*
X200215Y274961D01*
X200233Y274913D01*
X200278Y274857D01*
X200315Y274795D01*
X200354Y274761D01*
X200387Y274721D01*
X200447Y274682D01*
X200502Y274635D01*
X200550Y274616D01*
X200594Y274588D01*
X200663Y274570D01*
X200730Y274543D01*
X200801Y274535D01*
X200832Y274527D01*
X200856Y274529D01*
X200896Y274525D01*
X205932Y274525D01*
X206262Y274195D01*
X206278Y274183D01*
X206290Y274167D01*
X206377Y274111D01*
X206461Y274051D01*
X206480Y274045D01*
X206497Y274034D01*
X206598Y274009D01*
X206697Y273979D01*
X206716Y273979D01*
X206736Y273974D01*
X206839Y273982D01*
X206942Y273985D01*
X206961Y273992D01*
X206981Y273993D01*
X207076Y274034D01*
X207173Y274069D01*
X207189Y274082D01*
X207207Y274090D01*
X207338Y274195D01*
X207668Y274525D01*
X213932Y274525D01*
X214262Y274195D01*
X214278Y274183D01*
X214290Y274167D01*
X214377Y274111D01*
X214461Y274051D01*
X214480Y274045D01*
X214497Y274034D01*
X214598Y274009D01*
X214697Y273979D01*
X214716Y273979D01*
X214736Y273974D01*
X214839Y273982D01*
X214942Y273985D01*
X214961Y273992D01*
X214981Y273993D01*
X215076Y274034D01*
X215173Y274069D01*
X215189Y274082D01*
X215207Y274090D01*
X215338Y274195D01*
X215668Y274525D01*
X221932Y274525D01*
X222262Y274195D01*
X222278Y274183D01*
X222290Y274167D01*
X222377Y274111D01*
X222461Y274051D01*
X222480Y274045D01*
X222497Y274034D01*
X222598Y274009D01*
X222697Y273979D01*
X222716Y273979D01*
X222736Y273974D01*
X222839Y273982D01*
X222942Y273985D01*
X222961Y273992D01*
X222981Y273993D01*
X223076Y274034D01*
X223173Y274069D01*
X223189Y274082D01*
X223207Y274090D01*
X223338Y274195D01*
X223668Y274525D01*
X229932Y274525D01*
X230262Y274195D01*
X230278Y274183D01*
X230290Y274167D01*
X230377Y274111D01*
X230461Y274051D01*
X230480Y274045D01*
X230497Y274034D01*
X230598Y274009D01*
X230697Y273979D01*
X230716Y273979D01*
X230736Y273974D01*
X230839Y273982D01*
X230942Y273985D01*
X230961Y273992D01*
X230981Y273993D01*
X231076Y274034D01*
X231173Y274069D01*
X231189Y274082D01*
X231207Y274090D01*
X231338Y274195D01*
X231668Y274525D01*
X231952Y274525D01*
X231972Y274528D01*
X231991Y274526D01*
X232093Y274548D01*
X232195Y274564D01*
X232212Y274574D01*
X232232Y274578D01*
X232321Y274631D01*
X232412Y274680D01*
X232426Y274694D01*
X232443Y274704D01*
X232510Y274783D01*
X232582Y274858D01*
X232590Y274876D01*
X232603Y274891D01*
X232642Y274987D01*
X232685Y275081D01*
X232687Y275101D01*
X232695Y275119D01*
X232713Y275286D01*
X232713Y290185D01*
X232699Y290275D01*
X232691Y290366D01*
X232679Y290396D01*
X232674Y290428D01*
X232631Y290508D01*
X232595Y290592D01*
X232569Y290624D01*
X232558Y290645D01*
X232535Y290667D01*
X232490Y290723D01*
X230201Y293012D01*
X230201Y296988D01*
X233012Y299799D01*
X236988Y299799D01*
X239799Y296988D01*
X239799Y293012D01*
X237510Y290723D01*
X237457Y290649D01*
X237397Y290580D01*
X237385Y290550D01*
X237366Y290524D01*
X237339Y290437D01*
X237305Y290352D01*
X237301Y290311D01*
X237294Y290288D01*
X237295Y290256D01*
X237287Y290185D01*
X237287Y275286D01*
X237290Y275266D01*
X237288Y275247D01*
X237310Y275145D01*
X237326Y275043D01*
X237336Y275026D01*
X237340Y275006D01*
X237393Y274917D01*
X237442Y274826D01*
X237456Y274812D01*
X237466Y274795D01*
X237545Y274728D01*
X237620Y274656D01*
X237638Y274648D01*
X237653Y274635D01*
X237749Y274596D01*
X237843Y274553D01*
X237863Y274551D01*
X237881Y274543D01*
X237917Y274539D01*
X238825Y273632D01*
X238825Y257368D01*
X237932Y256475D01*
X231668Y256475D01*
X231338Y256805D01*
X231322Y256817D01*
X231310Y256833D01*
X231223Y256889D01*
X231139Y256949D01*
X231120Y256955D01*
X231103Y256966D01*
X231002Y256991D01*
X230903Y257021D01*
X230884Y257021D01*
X230864Y257026D01*
X230761Y257018D01*
X230658Y257015D01*
X230639Y257008D01*
X230619Y257007D01*
X230524Y256966D01*
X230427Y256931D01*
X230411Y256918D01*
X230393Y256910D01*
X230262Y256805D01*
X229932Y256475D01*
X223668Y256475D01*
X223338Y256805D01*
X223322Y256817D01*
X223310Y256833D01*
X223223Y256889D01*
X223139Y256949D01*
X223120Y256955D01*
X223103Y256966D01*
X223002Y256991D01*
X222903Y257021D01*
X222884Y257021D01*
X222864Y257026D01*
X222761Y257018D01*
X222658Y257015D01*
X222639Y257008D01*
X222619Y257007D01*
X222524Y256966D01*
X222427Y256931D01*
X222411Y256918D01*
X222393Y256910D01*
X222262Y256805D01*
X221932Y256475D01*
X215668Y256475D01*
X215338Y256805D01*
X215322Y256817D01*
X215310Y256833D01*
X215223Y256889D01*
X215139Y256949D01*
X215120Y256955D01*
X215103Y256966D01*
X215002Y256991D01*
X214903Y257021D01*
X214884Y257021D01*
X214864Y257026D01*
X214761Y257018D01*
X214658Y257015D01*
X214639Y257008D01*
X214619Y257007D01*
X214524Y256966D01*
X214427Y256931D01*
X214411Y256918D01*
X214393Y256910D01*
X214262Y256805D01*
X213932Y256475D01*
X207668Y256475D01*
X207338Y256805D01*
X207322Y256817D01*
X207310Y256833D01*
X207223Y256889D01*
X207139Y256949D01*
X207120Y256955D01*
X207103Y256966D01*
X207002Y256991D01*
X206903Y257021D01*
X206884Y257021D01*
X206864Y257026D01*
X206761Y257018D01*
X206658Y257015D01*
X206639Y257008D01*
X206619Y257007D01*
X206524Y256966D01*
X206427Y256931D01*
X206411Y256918D01*
X206393Y256910D01*
X206262Y256805D01*
X205932Y256475D01*
X199684Y256475D01*
X199594Y256461D01*
X199503Y256453D01*
X199473Y256441D01*
X199441Y256436D01*
X199360Y256393D01*
X199276Y256357D01*
X199244Y256331D01*
X199224Y256320D01*
X199201Y256297D01*
X199145Y256252D01*
X198860Y255967D01*
X198281Y255632D01*
X197634Y255459D01*
X196049Y255459D01*
X196049Y265012D01*
X196046Y265031D01*
X196048Y265051D01*
X196026Y265153D01*
X196010Y265255D01*
X196000Y265272D01*
X195996Y265292D01*
X195943Y265381D01*
X195894Y265472D01*
X195880Y265486D01*
X195870Y265503D01*
X195791Y265570D01*
X195716Y265641D01*
X195698Y265650D01*
X195683Y265663D01*
X195587Y265701D01*
X195493Y265745D01*
X195473Y265747D01*
X195455Y265755D01*
X195288Y265773D01*
X194312Y265773D01*
X194292Y265770D01*
X194272Y265772D01*
X194171Y265750D01*
X194069Y265733D01*
X194052Y265724D01*
X194032Y265720D01*
X193943Y265667D01*
X193852Y265618D01*
X193838Y265604D01*
X193821Y265594D01*
X193754Y265515D01*
X193682Y265440D01*
X193674Y265422D01*
X193661Y265407D01*
X193622Y265310D01*
X193579Y265217D01*
X193577Y265197D01*
X193569Y265179D01*
X193551Y265012D01*
X193551Y255459D01*
X193062Y255459D01*
X193042Y255456D01*
X193023Y255458D01*
X192921Y255436D01*
X192819Y255420D01*
X192802Y255410D01*
X192782Y255406D01*
X192693Y255353D01*
X192602Y255304D01*
X192588Y255290D01*
X192571Y255280D01*
X192504Y255201D01*
X192432Y255126D01*
X192424Y255108D01*
X192411Y255093D01*
X192372Y254997D01*
X192329Y254903D01*
X192327Y254883D01*
X192319Y254865D01*
X192301Y254698D01*
X192301Y241530D01*
X192257Y241469D01*
X192197Y241399D01*
X192185Y241369D01*
X192166Y241343D01*
X192139Y241256D01*
X192105Y241171D01*
X192101Y241130D01*
X192094Y241108D01*
X192095Y241076D01*
X192087Y241005D01*
X192087Y209815D01*
X192101Y209725D01*
X192109Y209634D01*
X192121Y209604D01*
X192126Y209572D01*
X192169Y209492D01*
X192205Y209408D01*
X192231Y209375D01*
X192242Y209355D01*
X192265Y209333D01*
X192310Y209277D01*
X194599Y206988D01*
X194599Y203012D01*
X192310Y200723D01*
X192257Y200649D01*
X192197Y200580D01*
X192185Y200550D01*
X192166Y200524D01*
X192139Y200437D01*
X192105Y200352D01*
X192101Y200311D01*
X192094Y200288D01*
X192095Y200256D01*
X192087Y200185D01*
X192087Y186262D01*
X192101Y186172D01*
X192109Y186081D01*
X192121Y186052D01*
X192126Y186020D01*
X192169Y185939D01*
X192205Y185855D01*
X192231Y185823D01*
X192242Y185802D01*
X192265Y185780D01*
X192310Y185724D01*
X193012Y185022D01*
X193086Y184969D01*
X193156Y184909D01*
X193186Y184897D01*
X193212Y184878D01*
X193299Y184851D01*
X193384Y184817D01*
X193425Y184813D01*
X193447Y184806D01*
X193479Y184807D01*
X193550Y184799D01*
X196788Y184799D01*
X199599Y181988D01*
X199599Y178012D01*
X197310Y175723D01*
X197257Y175649D01*
X197197Y175580D01*
X197185Y175550D01*
X197166Y175524D01*
X197139Y175437D01*
X197105Y175352D01*
X197101Y175311D01*
X197094Y175288D01*
X197095Y175256D01*
X197087Y175185D01*
X197087Y159286D01*
X197090Y159266D01*
X197088Y159247D01*
X197110Y159145D01*
X197126Y159043D01*
X197136Y159026D01*
X197140Y159006D01*
X197193Y158917D01*
X197242Y158826D01*
X197256Y158812D01*
X197266Y158795D01*
X197345Y158728D01*
X197420Y158656D01*
X197438Y158648D01*
X197453Y158635D01*
X197549Y158596D01*
X197643Y158553D01*
X197663Y158551D01*
X197681Y158543D01*
X197848Y158525D01*
X197932Y158525D01*
X198262Y158195D01*
X198278Y158183D01*
X198290Y158167D01*
X198377Y158111D01*
X198461Y158051D01*
X198480Y158045D01*
X198497Y158034D01*
X198598Y158009D01*
X198697Y157979D01*
X198716Y157979D01*
X198736Y157974D01*
X198839Y157982D01*
X198942Y157985D01*
X198961Y157992D01*
X198981Y157993D01*
X199076Y158034D01*
X199173Y158069D01*
X199189Y158082D01*
X199207Y158090D01*
X199338Y158195D01*
X199668Y158525D01*
X205932Y158525D01*
X206262Y158195D01*
X206278Y158183D01*
X206290Y158167D01*
X206377Y158111D01*
X206461Y158051D01*
X206480Y158045D01*
X206497Y158034D01*
X206598Y158009D01*
X206697Y157979D01*
X206716Y157979D01*
X206736Y157974D01*
X206839Y157982D01*
X206942Y157985D01*
X206961Y157992D01*
X206981Y157993D01*
X207076Y158034D01*
X207173Y158069D01*
X207189Y158082D01*
X207207Y158090D01*
X207338Y158195D01*
X207668Y158525D01*
X207752Y158525D01*
X207772Y158528D01*
X207791Y158526D01*
X207893Y158548D01*
X207995Y158564D01*
X208012Y158574D01*
X208032Y158578D01*
X208121Y158631D01*
X208212Y158680D01*
X208226Y158694D01*
X208243Y158704D01*
X208310Y158783D01*
X208382Y158858D01*
X208390Y158876D01*
X208403Y158891D01*
X208442Y158987D01*
X208485Y159081D01*
X208487Y159101D01*
X208495Y159119D01*
X208513Y159286D01*
X208513Y162937D01*
X208499Y163028D01*
X208491Y163118D01*
X208479Y163148D01*
X208474Y163180D01*
X208431Y163261D01*
X208395Y163345D01*
X208369Y163377D01*
X208358Y163398D01*
X208335Y163420D01*
X208290Y163476D01*
X206788Y164978D01*
X206714Y165031D01*
X206644Y165091D01*
X206614Y165103D01*
X206588Y165122D01*
X206501Y165149D01*
X206416Y165183D01*
X206375Y165187D01*
X206353Y165194D01*
X206321Y165193D01*
X206249Y165201D01*
X203012Y165201D01*
X200201Y168012D01*
X200201Y171988D01*
X203012Y174799D01*
X206988Y174799D01*
X209799Y171988D01*
X209799Y168751D01*
X209813Y168660D01*
X209821Y168570D01*
X209833Y168540D01*
X209838Y168508D01*
X209881Y168427D01*
X209917Y168343D01*
X209943Y168311D01*
X209954Y168290D01*
X209977Y168268D01*
X210022Y168212D01*
X213087Y165147D01*
X213087Y159286D01*
X213090Y159266D01*
X213088Y159247D01*
X213110Y159145D01*
X213126Y159043D01*
X213136Y159026D01*
X213140Y159006D01*
X213193Y158917D01*
X213242Y158826D01*
X213256Y158812D01*
X213266Y158795D01*
X213345Y158728D01*
X213420Y158656D01*
X213438Y158648D01*
X213453Y158635D01*
X213549Y158596D01*
X213643Y158553D01*
X213663Y158551D01*
X213681Y158543D01*
X213848Y158525D01*
X213932Y158525D01*
X214262Y158195D01*
X214278Y158183D01*
X214290Y158167D01*
X214377Y158111D01*
X214461Y158051D01*
X214480Y158045D01*
X214497Y158034D01*
X214598Y158009D01*
X214697Y157979D01*
X214716Y157979D01*
X214736Y157974D01*
X214839Y157982D01*
X214942Y157985D01*
X214961Y157992D01*
X214981Y157993D01*
X215076Y158034D01*
X215173Y158069D01*
X215189Y158082D01*
X215207Y158090D01*
X215338Y158195D01*
X215668Y158525D01*
X216952Y158525D01*
X216972Y158528D01*
X216991Y158526D01*
X217093Y158548D01*
X217195Y158564D01*
X217212Y158574D01*
X217232Y158578D01*
X217321Y158631D01*
X217412Y158680D01*
X217426Y158694D01*
X217443Y158704D01*
X217510Y158783D01*
X217582Y158858D01*
X217590Y158876D01*
X217603Y158891D01*
X217642Y158987D01*
X217685Y159081D01*
X217687Y159101D01*
X217695Y159119D01*
X217713Y159286D01*
X217713Y168737D01*
X217699Y168828D01*
X217691Y168918D01*
X217679Y168948D01*
X217674Y168980D01*
X217631Y169061D01*
X217595Y169145D01*
X217569Y169177D01*
X217558Y169198D01*
X217535Y169220D01*
X217490Y169276D01*
X207713Y179053D01*
X207713Y190185D01*
X207699Y190275D01*
X207691Y190366D01*
X207679Y190396D01*
X207674Y190428D01*
X207631Y190508D01*
X207595Y190592D01*
X207569Y190624D01*
X207558Y190645D01*
X207535Y190667D01*
X207490Y190723D01*
X205201Y193012D01*
X205201Y196988D01*
X208012Y199799D01*
X211988Y199799D01*
X213902Y197885D01*
X213960Y197843D01*
X214012Y197793D01*
X214059Y197772D01*
X214101Y197741D01*
X214170Y197720D01*
X214235Y197690D01*
X214287Y197684D01*
X214337Y197669D01*
X214408Y197671D01*
X214479Y197663D01*
X214530Y197674D01*
X214582Y197675D01*
X214650Y197700D01*
X214720Y197715D01*
X214765Y197742D01*
X214813Y197760D01*
X214869Y197804D01*
X214931Y197841D01*
X214965Y197881D01*
X215005Y197913D01*
X215044Y197974D01*
X215091Y198028D01*
X215110Y198076D01*
X215138Y198120D01*
X215156Y198190D01*
X215183Y198256D01*
X215191Y198328D01*
X215199Y198359D01*
X215197Y198382D01*
X215201Y198423D01*
X215201Y202248D01*
X218012Y205059D01*
X221988Y205059D01*
X224799Y202248D01*
X224799Y198272D01*
X222510Y195983D01*
X222457Y195909D01*
X222397Y195840D01*
X222385Y195810D01*
X222366Y195784D01*
X222339Y195697D01*
X222305Y195612D01*
X222301Y195571D01*
X222294Y195548D01*
X222295Y195516D01*
X222287Y195445D01*
X222287Y191263D01*
X222301Y191172D01*
X222309Y191082D01*
X222321Y191052D01*
X222326Y191020D01*
X222369Y190939D01*
X222405Y190855D01*
X222431Y190823D01*
X222442Y190802D01*
X222465Y190780D01*
X222510Y190724D01*
X226414Y186820D01*
X226472Y186778D01*
X226524Y186729D01*
X226571Y186707D01*
X226613Y186677D01*
X226682Y186656D01*
X226747Y186625D01*
X226799Y186620D01*
X226849Y186604D01*
X226920Y186606D01*
X226991Y186598D01*
X227042Y186609D01*
X227094Y186611D01*
X227162Y186635D01*
X227232Y186650D01*
X227277Y186677D01*
X227325Y186695D01*
X227381Y186740D01*
X227443Y186777D01*
X227477Y186816D01*
X227517Y186849D01*
X227556Y186909D01*
X227603Y186964D01*
X227622Y187012D01*
X227650Y187056D01*
X227668Y187125D01*
X227695Y187192D01*
X227703Y187263D01*
X227711Y187294D01*
X227709Y187318D01*
X227713Y187358D01*
X227713Y215185D01*
X227699Y215275D01*
X227691Y215366D01*
X227679Y215396D01*
X227674Y215428D01*
X227631Y215508D01*
X227595Y215592D01*
X227569Y215625D01*
X227558Y215645D01*
X227535Y215667D01*
X227490Y215723D01*
X225201Y218012D01*
X225201Y221988D01*
X228012Y224799D01*
X231988Y224799D01*
X234799Y221988D01*
X234799Y218012D01*
X232510Y215723D01*
X232457Y215649D01*
X232397Y215580D01*
X232385Y215550D01*
X232366Y215524D01*
X232339Y215437D01*
X232305Y215352D01*
X232301Y215311D01*
X232294Y215288D01*
X232295Y215256D01*
X232287Y215185D01*
X232287Y211171D01*
X232298Y211100D01*
X232300Y211028D01*
X232318Y210979D01*
X232326Y210928D01*
X232360Y210865D01*
X232385Y210797D01*
X232417Y210757D01*
X232442Y210711D01*
X232493Y210662D01*
X232538Y210605D01*
X232582Y210577D01*
X232620Y210541D01*
X232685Y210511D01*
X232745Y210472D01*
X232796Y210460D01*
X232843Y210438D01*
X232914Y210430D01*
X232984Y210412D01*
X233036Y210416D01*
X233087Y210411D01*
X233158Y210426D01*
X233229Y210432D01*
X233277Y210452D01*
X233328Y210463D01*
X233389Y210500D01*
X233455Y210528D01*
X233511Y210573D01*
X233539Y210589D01*
X233554Y210607D01*
X233569Y210619D01*
X237548Y210619D01*
X239837Y208330D01*
X239911Y208277D01*
X239980Y208217D01*
X240010Y208205D01*
X240036Y208186D01*
X240123Y208159D01*
X240208Y208125D01*
X240249Y208121D01*
X240272Y208114D01*
X240304Y208115D01*
X240375Y208107D01*
X243014Y208107D01*
X243034Y208110D01*
X243053Y208108D01*
X243155Y208130D01*
X243257Y208146D01*
X243274Y208156D01*
X243294Y208160D01*
X243383Y208213D01*
X243474Y208262D01*
X243488Y208276D01*
X243505Y208286D01*
X243572Y208365D01*
X243644Y208440D01*
X243652Y208458D01*
X243665Y208473D01*
X243704Y208569D01*
X243747Y208663D01*
X243749Y208683D01*
X243757Y208701D01*
X243775Y208868D01*
X243775Y210616D01*
X243761Y210706D01*
X243753Y210797D01*
X243741Y210827D01*
X243736Y210859D01*
X243693Y210940D01*
X243657Y211024D01*
X243631Y211056D01*
X243620Y211076D01*
X243597Y211099D01*
X243552Y211155D01*
X243267Y211440D01*
X242932Y212019D01*
X242759Y212666D01*
X242759Y214251D01*
X252312Y214251D01*
X252331Y214254D01*
X252351Y214252D01*
X252453Y214274D01*
X252555Y214290D01*
X252572Y214300D01*
X252592Y214304D01*
X252681Y214357D01*
X252772Y214406D01*
X252786Y214420D01*
X252803Y214430D01*
X252806Y214434D01*
X252860Y214382D01*
X252878Y214374D01*
X252893Y214361D01*
X252990Y214322D01*
X253083Y214279D01*
X253103Y214277D01*
X253121Y214269D01*
X253288Y214251D01*
X262841Y214251D01*
X262841Y212666D01*
X262668Y212019D01*
X262333Y211440D01*
X262048Y211155D01*
X261995Y211081D01*
X261935Y211011D01*
X261923Y210981D01*
X261904Y210955D01*
X261877Y210868D01*
X261843Y210783D01*
X261839Y210742D01*
X261832Y210720D01*
X261833Y210688D01*
X261825Y210616D01*
X261825Y210548D01*
X261828Y210528D01*
X261826Y210509D01*
X261848Y210407D01*
X261864Y210305D01*
X261874Y210288D01*
X261878Y210268D01*
X261931Y210179D01*
X261980Y210088D01*
X261994Y210074D01*
X262004Y210057D01*
X262083Y209990D01*
X262158Y209918D01*
X262176Y209910D01*
X262191Y209897D01*
X262287Y209858D01*
X262381Y209815D01*
X262401Y209813D01*
X262419Y209805D01*
X262586Y209787D01*
X279310Y209787D01*
X279330Y209790D01*
X279349Y209788D01*
X279451Y209810D01*
X279553Y209826D01*
X279570Y209836D01*
X279590Y209840D01*
X279679Y209893D01*
X279770Y209942D01*
X279784Y209956D01*
X279801Y209966D01*
X279868Y210045D01*
X279940Y210120D01*
X279948Y210138D01*
X279961Y210153D01*
X280000Y210249D01*
X280043Y210343D01*
X280045Y210363D01*
X280053Y210381D01*
X280071Y210548D01*
X280071Y213567D01*
X284833Y218329D01*
X291567Y218329D01*
X296329Y213567D01*
X296329Y206833D01*
X296103Y206607D01*
X296091Y206591D01*
X296076Y206579D01*
X296020Y206492D01*
X295960Y206408D01*
X295954Y206389D01*
X295943Y206372D01*
X295918Y206271D01*
X295887Y206173D01*
X295888Y206153D01*
X295883Y206133D01*
X295891Y206030D01*
X295894Y205927D01*
X295900Y205908D01*
X295902Y205888D01*
X295942Y205793D01*
X295978Y205696D01*
X295991Y205680D01*
X295998Y205662D01*
X296103Y205531D01*
X311724Y189910D01*
X313287Y188347D01*
X313287Y144190D01*
X313290Y144170D01*
X313288Y144151D01*
X313310Y144049D01*
X313326Y143947D01*
X313336Y143930D01*
X313340Y143910D01*
X313393Y143821D01*
X313442Y143730D01*
X313456Y143716D01*
X313466Y143699D01*
X313545Y143632D01*
X313620Y143560D01*
X313638Y143552D01*
X313653Y143539D01*
X313749Y143500D01*
X313843Y143457D01*
X313863Y143455D01*
X313881Y143447D01*
X314048Y143429D01*
X314367Y143429D01*
X319129Y138667D01*
X319129Y131933D01*
X314367Y127171D01*
X307633Y127171D01*
X302871Y131933D01*
X302871Y138667D01*
X307633Y143429D01*
X307952Y143429D01*
X307972Y143432D01*
X307991Y143430D01*
X308093Y143452D01*
X308195Y143468D01*
X308212Y143478D01*
X308232Y143482D01*
X308321Y143535D01*
X308412Y143584D01*
X308426Y143598D01*
X308443Y143608D01*
X308510Y143687D01*
X308582Y143762D01*
X308590Y143780D01*
X308603Y143795D01*
X308642Y143891D01*
X308685Y143985D01*
X308687Y144005D01*
X308695Y144023D01*
X308713Y144190D01*
X308713Y186137D01*
X308699Y186228D01*
X308691Y186318D01*
X308679Y186348D01*
X308674Y186380D01*
X308631Y186461D01*
X308595Y186545D01*
X308569Y186577D01*
X308558Y186598D01*
X308535Y186620D01*
X308490Y186676D01*
X292869Y202297D01*
X292853Y202309D01*
X292841Y202324D01*
X292753Y202380D01*
X292669Y202440D01*
X292650Y202446D01*
X292634Y202457D01*
X292533Y202482D01*
X292434Y202513D01*
X292414Y202512D01*
X292395Y202517D01*
X292292Y202509D01*
X292189Y202506D01*
X292170Y202500D01*
X292150Y202498D01*
X292055Y202458D01*
X291957Y202422D01*
X291942Y202409D01*
X291924Y202402D01*
X291793Y202297D01*
X291567Y202071D01*
X284833Y202071D01*
X281914Y204990D01*
X281840Y205043D01*
X281771Y205103D01*
X281740Y205115D01*
X281714Y205134D01*
X281627Y205161D01*
X281542Y205195D01*
X281501Y205199D01*
X281479Y205206D01*
X281447Y205205D01*
X281376Y205213D01*
X262586Y205213D01*
X262566Y205210D01*
X262547Y205212D01*
X262445Y205190D01*
X262343Y205174D01*
X262326Y205164D01*
X262306Y205160D01*
X262217Y205107D01*
X262126Y205058D01*
X262112Y205044D01*
X262095Y205034D01*
X262028Y204955D01*
X261956Y204880D01*
X261948Y204862D01*
X261935Y204847D01*
X261896Y204751D01*
X261853Y204657D01*
X261851Y204637D01*
X261843Y204619D01*
X261825Y204452D01*
X261825Y204368D01*
X261495Y204038D01*
X261483Y204022D01*
X261467Y204010D01*
X261438Y203964D01*
X261414Y203939D01*
X261398Y203903D01*
X261351Y203839D01*
X261345Y203820D01*
X261334Y203803D01*
X261315Y203725D01*
X261310Y203716D01*
X261309Y203702D01*
X261279Y203603D01*
X261279Y203584D01*
X261274Y203564D01*
X261282Y203461D01*
X261285Y203358D01*
X261292Y203339D01*
X261293Y203319D01*
X261334Y203224D01*
X261369Y203127D01*
X261382Y203111D01*
X261390Y203093D01*
X261495Y202962D01*
X261825Y202632D01*
X261825Y196368D01*
X261495Y196038D01*
X261483Y196022D01*
X261467Y196010D01*
X261411Y195923D01*
X261351Y195839D01*
X261345Y195820D01*
X261334Y195803D01*
X261309Y195702D01*
X261279Y195603D01*
X261279Y195584D01*
X261274Y195564D01*
X261282Y195461D01*
X261285Y195358D01*
X261292Y195339D01*
X261293Y195319D01*
X261334Y195224D01*
X261369Y195127D01*
X261382Y195111D01*
X261390Y195093D01*
X261495Y194962D01*
X261825Y194632D01*
X261825Y188368D01*
X261495Y188038D01*
X261483Y188022D01*
X261467Y188010D01*
X261437Y187962D01*
X261428Y187953D01*
X261420Y187937D01*
X261411Y187923D01*
X261351Y187839D01*
X261345Y187820D01*
X261334Y187803D01*
X261309Y187702D01*
X261279Y187603D01*
X261279Y187584D01*
X261274Y187564D01*
X261282Y187461D01*
X261285Y187358D01*
X261292Y187339D01*
X261293Y187319D01*
X261334Y187224D01*
X261369Y187127D01*
X261382Y187111D01*
X261390Y187093D01*
X261495Y186962D01*
X261825Y186632D01*
X261825Y180368D01*
X261495Y180038D01*
X261483Y180022D01*
X261467Y180010D01*
X261411Y179923D01*
X261351Y179839D01*
X261345Y179820D01*
X261334Y179803D01*
X261309Y179702D01*
X261279Y179603D01*
X261279Y179584D01*
X261274Y179564D01*
X261282Y179461D01*
X261285Y179358D01*
X261292Y179339D01*
X261293Y179319D01*
X261334Y179224D01*
X261369Y179127D01*
X261382Y179111D01*
X261390Y179093D01*
X261495Y178962D01*
X261825Y178632D01*
X261825Y172368D01*
X261495Y172038D01*
X261483Y172022D01*
X261467Y172010D01*
X261411Y171923D01*
X261351Y171839D01*
X261345Y171820D01*
X261334Y171803D01*
X261309Y171702D01*
X261279Y171603D01*
X261279Y171584D01*
X261274Y171564D01*
X261282Y171461D01*
X261285Y171358D01*
X261292Y171339D01*
X261293Y171319D01*
X261334Y171224D01*
X261369Y171127D01*
X261382Y171111D01*
X261390Y171093D01*
X261495Y170962D01*
X261825Y170632D01*
X261825Y164368D01*
X260932Y163475D01*
X244668Y163475D01*
X243775Y164368D01*
X243775Y164452D01*
X243772Y164472D01*
X243774Y164491D01*
X243752Y164593D01*
X243736Y164695D01*
X243726Y164712D01*
X243722Y164732D01*
X243669Y164821D01*
X243620Y164912D01*
X243606Y164926D01*
X243596Y164943D01*
X243517Y165010D01*
X243442Y165082D01*
X243424Y165090D01*
X243409Y165103D01*
X243313Y165142D01*
X243219Y165185D01*
X243199Y165187D01*
X243181Y165195D01*
X243014Y165213D01*
X241553Y165213D01*
X217713Y189053D01*
X217713Y195445D01*
X217699Y195535D01*
X217691Y195626D01*
X217679Y195656D01*
X217674Y195688D01*
X217631Y195768D01*
X217595Y195852D01*
X217569Y195884D01*
X217558Y195905D01*
X217535Y195927D01*
X217490Y195983D01*
X216098Y197375D01*
X216040Y197417D01*
X215988Y197467D01*
X215941Y197488D01*
X215899Y197519D01*
X215830Y197540D01*
X215765Y197570D01*
X215713Y197576D01*
X215663Y197591D01*
X215592Y197589D01*
X215521Y197597D01*
X215470Y197586D01*
X215418Y197585D01*
X215350Y197560D01*
X215280Y197545D01*
X215235Y197518D01*
X215187Y197500D01*
X215131Y197456D01*
X215069Y197419D01*
X215035Y197379D01*
X214995Y197347D01*
X214956Y197286D01*
X214909Y197232D01*
X214890Y197184D01*
X214862Y197140D01*
X214844Y197070D01*
X214817Y197004D01*
X214809Y196932D01*
X214801Y196901D01*
X214803Y196878D01*
X214799Y196837D01*
X214799Y193012D01*
X212510Y190723D01*
X212457Y190649D01*
X212397Y190580D01*
X212385Y190550D01*
X212366Y190524D01*
X212339Y190437D01*
X212305Y190352D01*
X212301Y190311D01*
X212294Y190288D01*
X212295Y190256D01*
X212287Y190185D01*
X212287Y181263D01*
X212301Y181172D01*
X212309Y181082D01*
X212321Y181052D01*
X212326Y181020D01*
X212369Y180939D01*
X212405Y180855D01*
X212431Y180823D01*
X212442Y180802D01*
X212465Y180780D01*
X212510Y180724D01*
X222287Y170947D01*
X222287Y158981D01*
X222298Y158910D01*
X222300Y158838D01*
X222318Y158789D01*
X222326Y158738D01*
X222360Y158675D01*
X222385Y158607D01*
X222417Y158567D01*
X222442Y158521D01*
X222493Y158471D01*
X222538Y158415D01*
X222582Y158387D01*
X222620Y158351D01*
X222685Y158321D01*
X222745Y158282D01*
X222796Y158270D01*
X222843Y158248D01*
X222914Y158240D01*
X222984Y158222D01*
X223036Y158226D01*
X223087Y158221D01*
X223158Y158236D01*
X223229Y158241D01*
X223277Y158262D01*
X223328Y158273D01*
X223389Y158310D01*
X223455Y158338D01*
X223511Y158383D01*
X223539Y158399D01*
X223554Y158417D01*
X223586Y158443D01*
X223668Y158525D01*
X229932Y158525D01*
X230262Y158195D01*
X230278Y158183D01*
X230290Y158167D01*
X230377Y158111D01*
X230461Y158051D01*
X230480Y158045D01*
X230497Y158034D01*
X230598Y158009D01*
X230697Y157979D01*
X230716Y157979D01*
X230736Y157974D01*
X230839Y157982D01*
X230942Y157985D01*
X230961Y157992D01*
X230981Y157993D01*
X231076Y158034D01*
X231173Y158069D01*
X231189Y158082D01*
X231207Y158090D01*
X231338Y158195D01*
X231668Y158525D01*
X237932Y158525D01*
X238825Y157632D01*
X238825Y141368D01*
X237909Y140453D01*
X237907Y140452D01*
X237805Y140436D01*
X237788Y140426D01*
X237768Y140422D01*
X237679Y140369D01*
X237588Y140320D01*
X237574Y140306D01*
X237557Y140296D01*
X237490Y140217D01*
X237418Y140142D01*
X237410Y140124D01*
X237397Y140109D01*
X237358Y140013D01*
X237315Y139919D01*
X237313Y139899D01*
X237305Y139881D01*
X237287Y139714D01*
X237287Y84815D01*
X237301Y84725D01*
X237309Y84634D01*
X237321Y84604D01*
X237326Y84572D01*
X237369Y84492D01*
X237405Y84408D01*
X237431Y84376D01*
X237442Y84355D01*
X237465Y84333D01*
X237510Y84277D01*
X239799Y81988D01*
X239799Y78012D01*
X236988Y75201D01*
X233012Y75201D01*
X230201Y78012D01*
X230201Y81988D01*
X232490Y84277D01*
X232543Y84351D01*
X232603Y84420D01*
X232615Y84450D01*
X232634Y84476D01*
X232661Y84563D01*
X232695Y84648D01*
X232699Y84689D01*
X232706Y84712D01*
X232705Y84744D01*
X232713Y84815D01*
X232713Y139714D01*
X232710Y139734D01*
X232712Y139753D01*
X232690Y139855D01*
X232674Y139957D01*
X232664Y139974D01*
X232660Y139994D01*
X232607Y140083D01*
X232558Y140174D01*
X232544Y140188D01*
X232534Y140205D01*
X232455Y140272D01*
X232380Y140344D01*
X232362Y140352D01*
X232347Y140365D01*
X232251Y140404D01*
X232157Y140447D01*
X232137Y140449D01*
X232119Y140457D01*
X231952Y140475D01*
X231668Y140475D01*
X231338Y140805D01*
X231322Y140817D01*
X231310Y140833D01*
X231223Y140889D01*
X231139Y140949D01*
X231120Y140955D01*
X231103Y140966D01*
X231002Y140991D01*
X230903Y141021D01*
X230884Y141021D01*
X230864Y141026D01*
X230761Y141018D01*
X230658Y141015D01*
X230639Y141008D01*
X230619Y141007D01*
X230524Y140966D01*
X230427Y140931D01*
X230411Y140918D01*
X230393Y140910D01*
X230262Y140805D01*
X229932Y140475D01*
X226557Y140475D01*
X226467Y140461D01*
X226376Y140453D01*
X226347Y140441D01*
X226315Y140436D01*
X226234Y140393D01*
X226150Y140357D01*
X226118Y140331D01*
X226097Y140320D01*
X226075Y140297D01*
X226019Y140252D01*
X222510Y136743D01*
X222457Y136669D01*
X222397Y136599D01*
X222385Y136569D01*
X222366Y136543D01*
X222339Y136456D01*
X222305Y136371D01*
X222301Y136330D01*
X222294Y136308D01*
X222295Y136276D01*
X222287Y136205D01*
X222287Y74815D01*
X222301Y74725D01*
X222309Y74634D01*
X222321Y74604D01*
X222326Y74572D01*
X222369Y74492D01*
X222405Y74408D01*
X222431Y74376D01*
X222442Y74355D01*
X222465Y74333D01*
X222510Y74277D01*
X224799Y71988D01*
X224799Y68012D01*
X221988Y65201D01*
X218012Y65201D01*
X215201Y68012D01*
X215201Y71988D01*
X217490Y74277D01*
X217543Y74351D01*
X217603Y74420D01*
X217615Y74450D01*
X217634Y74476D01*
X217661Y74563D01*
X217695Y74648D01*
X217699Y74689D01*
X217706Y74712D01*
X217705Y74744D01*
X217713Y74815D01*
X217713Y138414D01*
X218475Y139176D01*
X218517Y139234D01*
X218566Y139286D01*
X218588Y139333D01*
X218618Y139375D01*
X218639Y139444D01*
X218670Y139509D01*
X218675Y139561D01*
X218691Y139611D01*
X218689Y139682D01*
X218697Y139753D01*
X218686Y139804D01*
X218684Y139856D01*
X218660Y139924D01*
X218644Y139994D01*
X218618Y140039D01*
X218600Y140087D01*
X218555Y140143D01*
X218518Y140205D01*
X218479Y140239D01*
X218446Y140279D01*
X218386Y140318D01*
X218331Y140365D01*
X218283Y140384D01*
X218239Y140412D01*
X218170Y140430D01*
X218103Y140457D01*
X218032Y140465D01*
X218001Y140473D01*
X217977Y140471D01*
X217936Y140475D01*
X215668Y140475D01*
X215338Y140805D01*
X215322Y140817D01*
X215310Y140833D01*
X215223Y140889D01*
X215139Y140949D01*
X215120Y140955D01*
X215103Y140966D01*
X215002Y140991D01*
X214903Y141021D01*
X214884Y141021D01*
X214864Y141026D01*
X214761Y141018D01*
X214658Y141015D01*
X214639Y141008D01*
X214619Y141007D01*
X214524Y140966D01*
X214427Y140931D01*
X214411Y140918D01*
X214393Y140910D01*
X214262Y140805D01*
X213932Y140475D01*
X208048Y140475D01*
X208028Y140472D01*
X208009Y140474D01*
X207907Y140452D01*
X207805Y140436D01*
X207788Y140426D01*
X207768Y140422D01*
X207679Y140369D01*
X207588Y140320D01*
X207574Y140306D01*
X207557Y140296D01*
X207490Y140217D01*
X207418Y140142D01*
X207410Y140124D01*
X207397Y140109D01*
X207358Y140013D01*
X207315Y139919D01*
X207313Y139899D01*
X207305Y139881D01*
X207287Y139714D01*
X207287Y64815D01*
X207301Y64725D01*
X207309Y64634D01*
X207321Y64604D01*
X207326Y64572D01*
X207369Y64492D01*
X207405Y64408D01*
X207431Y64376D01*
X207442Y64355D01*
X207465Y64333D01*
X207510Y64277D01*
X209799Y61988D01*
X209799Y58012D01*
X206988Y55201D01*
X203012Y55201D01*
G37*
%LPD*%
%LPC*%
G36*
X128668Y163475D02*
X128668Y163475D01*
X127775Y164368D01*
X127775Y170632D01*
X128105Y170962D01*
X128117Y170978D01*
X128133Y170990D01*
X128189Y171077D01*
X128249Y171161D01*
X128255Y171180D01*
X128266Y171197D01*
X128291Y171298D01*
X128321Y171397D01*
X128321Y171416D01*
X128326Y171436D01*
X128318Y171539D01*
X128315Y171642D01*
X128308Y171661D01*
X128307Y171681D01*
X128266Y171776D01*
X128231Y171873D01*
X128218Y171889D01*
X128210Y171907D01*
X128105Y172038D01*
X127775Y172368D01*
X127775Y175743D01*
X127761Y175833D01*
X127753Y175924D01*
X127741Y175953D01*
X127736Y175985D01*
X127693Y176066D01*
X127657Y176150D01*
X127631Y176182D01*
X127620Y176203D01*
X127597Y176225D01*
X127552Y176281D01*
X123643Y180190D01*
X123569Y180243D01*
X123499Y180303D01*
X123469Y180315D01*
X123443Y180334D01*
X123356Y180361D01*
X123271Y180395D01*
X123230Y180399D01*
X123208Y180406D01*
X123176Y180405D01*
X123105Y180413D01*
X118890Y180413D01*
X118870Y180410D01*
X118851Y180412D01*
X118749Y180390D01*
X118647Y180374D01*
X118630Y180364D01*
X118610Y180360D01*
X118521Y180307D01*
X118430Y180258D01*
X118416Y180244D01*
X118399Y180234D01*
X118332Y180155D01*
X118260Y180080D01*
X118252Y180062D01*
X118239Y180047D01*
X118200Y179951D01*
X118157Y179857D01*
X118155Y179837D01*
X118147Y179819D01*
X118129Y179652D01*
X118129Y179333D01*
X113367Y174571D01*
X106633Y174571D01*
X101871Y179333D01*
X101871Y186067D01*
X106633Y190829D01*
X109100Y190829D01*
X109170Y190840D01*
X109242Y190842D01*
X109291Y190860D01*
X109342Y190868D01*
X109406Y190902D01*
X109473Y190927D01*
X109514Y190959D01*
X109560Y190984D01*
X109609Y191036D01*
X109665Y191080D01*
X109693Y191124D01*
X109729Y191162D01*
X109759Y191227D01*
X109798Y191287D01*
X109811Y191338D01*
X109833Y191385D01*
X109841Y191456D01*
X109858Y191526D01*
X109854Y191578D01*
X109860Y191629D01*
X109845Y191700D01*
X109839Y191771D01*
X109819Y191819D01*
X109808Y191870D01*
X109771Y191931D01*
X109743Y191997D01*
X109698Y192053D01*
X109681Y192081D01*
X109664Y192096D01*
X109638Y192128D01*
X97713Y204053D01*
X97713Y234440D01*
X97710Y234460D01*
X97712Y234479D01*
X97690Y234581D01*
X97674Y234683D01*
X97664Y234700D01*
X97660Y234720D01*
X97607Y234809D01*
X97558Y234900D01*
X97544Y234914D01*
X97534Y234931D01*
X97455Y234998D01*
X97380Y235070D01*
X97362Y235078D01*
X97347Y235091D01*
X97251Y235130D01*
X97157Y235173D01*
X97137Y235175D01*
X97119Y235183D01*
X96952Y235201D01*
X93012Y235201D01*
X90201Y238012D01*
X90201Y241250D01*
X90187Y241340D01*
X90179Y241431D01*
X90167Y241460D01*
X90162Y241492D01*
X90119Y241573D01*
X90083Y241657D01*
X90057Y241689D01*
X90046Y241710D01*
X90023Y241732D01*
X89978Y241788D01*
X89113Y242653D01*
X89113Y438976D01*
X89098Y439070D01*
X89089Y439165D01*
X89078Y439191D01*
X89074Y439218D01*
X89029Y439302D01*
X88991Y439390D01*
X88972Y439411D01*
X88958Y439436D01*
X88889Y439501D01*
X88825Y439572D01*
X88801Y439586D01*
X88780Y439605D01*
X88694Y439645D01*
X88610Y439692D01*
X88583Y439697D01*
X88557Y439709D01*
X88462Y439719D01*
X88368Y439737D01*
X88341Y439733D01*
X88313Y439736D01*
X88219Y439715D01*
X88125Y439702D01*
X88093Y439688D01*
X88072Y439684D01*
X88044Y439667D01*
X87971Y439635D01*
X87881Y439582D01*
X87234Y439409D01*
X85899Y439409D01*
X85899Y448462D01*
X85896Y448481D01*
X85898Y448501D01*
X85876Y448603D01*
X85860Y448705D01*
X85859Y448706D01*
X85871Y448733D01*
X85873Y448753D01*
X85881Y448771D01*
X85899Y448938D01*
X85899Y457991D01*
X87235Y457991D01*
X87881Y457818D01*
X88460Y457483D01*
X88745Y457198D01*
X88819Y457145D01*
X88889Y457085D01*
X88919Y457073D01*
X88945Y457054D01*
X89032Y457027D01*
X89117Y456993D01*
X89158Y456989D01*
X89180Y456982D01*
X89212Y456983D01*
X89284Y456975D01*
X94032Y456975D01*
X94112Y456895D01*
X94128Y456883D01*
X94140Y456867D01*
X94228Y456811D01*
X94311Y456751D01*
X94330Y456745D01*
X94347Y456734D01*
X94448Y456709D01*
X94547Y456679D01*
X94567Y456679D01*
X94586Y456674D01*
X94689Y456682D01*
X94792Y456685D01*
X94811Y456692D01*
X94831Y456693D01*
X94926Y456734D01*
X95023Y456769D01*
X95039Y456782D01*
X95057Y456790D01*
X95188Y456895D01*
X95268Y456975D01*
X100532Y456975D01*
X100612Y456895D01*
X100628Y456883D01*
X100640Y456867D01*
X100727Y456811D01*
X100811Y456751D01*
X100830Y456745D01*
X100847Y456734D01*
X100948Y456709D01*
X101046Y456679D01*
X101066Y456679D01*
X101086Y456674D01*
X101189Y456682D01*
X101292Y456685D01*
X101311Y456692D01*
X101331Y456693D01*
X101426Y456734D01*
X101523Y456769D01*
X101539Y456782D01*
X101557Y456790D01*
X101688Y456895D01*
X101768Y456975D01*
X107032Y456975D01*
X107112Y456895D01*
X107128Y456883D01*
X107140Y456867D01*
X107227Y456811D01*
X107311Y456751D01*
X107330Y456745D01*
X107347Y456734D01*
X107448Y456709D01*
X107546Y456679D01*
X107566Y456679D01*
X107586Y456674D01*
X107689Y456682D01*
X107792Y456685D01*
X107811Y456692D01*
X107831Y456693D01*
X107926Y456734D01*
X108023Y456769D01*
X108039Y456782D01*
X108057Y456790D01*
X108188Y456895D01*
X108268Y456975D01*
X113532Y456975D01*
X114425Y456082D01*
X114425Y453793D01*
X114440Y453697D01*
X114450Y453600D01*
X114460Y453576D01*
X114464Y453551D01*
X114510Y453465D01*
X114550Y453375D01*
X114567Y453356D01*
X114580Y453333D01*
X114650Y453266D01*
X114716Y453194D01*
X114739Y453182D01*
X114758Y453164D01*
X114846Y453123D01*
X114932Y453076D01*
X114957Y453071D01*
X114981Y453060D01*
X115078Y453050D01*
X115174Y453032D01*
X115200Y453036D01*
X115225Y453033D01*
X115321Y453054D01*
X115417Y453068D01*
X115440Y453080D01*
X115466Y453085D01*
X115550Y453136D01*
X115636Y453180D01*
X115655Y453198D01*
X115677Y453212D01*
X115740Y453286D01*
X115809Y453355D01*
X115823Y453382D01*
X118190Y455749D01*
X121246Y457015D01*
X124554Y457015D01*
X127610Y455749D01*
X129949Y453410D01*
X131215Y450354D01*
X131215Y447046D01*
X130259Y444739D01*
X130249Y444695D01*
X130229Y444653D01*
X130221Y444576D01*
X130203Y444500D01*
X130207Y444454D01*
X130202Y444409D01*
X130219Y444332D01*
X130226Y444255D01*
X130245Y444213D01*
X130255Y444168D01*
X130295Y444101D01*
X130326Y444030D01*
X130357Y443996D01*
X130381Y443957D01*
X130440Y443906D01*
X130493Y443849D01*
X130533Y443827D01*
X130568Y443797D01*
X130640Y443768D01*
X130708Y443731D01*
X130753Y443722D01*
X130796Y443705D01*
X130932Y443690D01*
X130950Y443687D01*
X130955Y443688D01*
X130963Y443687D01*
X160109Y443687D01*
X160224Y443706D01*
X160340Y443723D01*
X160346Y443725D01*
X160352Y443726D01*
X160455Y443781D01*
X160560Y443834D01*
X160564Y443839D01*
X160569Y443842D01*
X160649Y443926D01*
X160732Y444010D01*
X160735Y444016D01*
X160739Y444020D01*
X160747Y444037D01*
X160813Y444157D01*
X161563Y445968D01*
X163832Y448237D01*
X166796Y449465D01*
X170004Y449465D01*
X172968Y448237D01*
X175237Y445968D01*
X176465Y443004D01*
X176465Y439796D01*
X175237Y436832D01*
X172968Y434563D01*
X170004Y433335D01*
X166796Y433335D01*
X163832Y434563D01*
X161563Y436832D01*
X160813Y438643D01*
X160751Y438743D01*
X160691Y438843D01*
X160686Y438847D01*
X160683Y438852D01*
X160593Y438927D01*
X160504Y439003D01*
X160498Y439005D01*
X160494Y439009D01*
X160385Y439051D01*
X160276Y439095D01*
X160269Y439096D01*
X160264Y439097D01*
X160246Y439098D01*
X160109Y439113D01*
X129698Y439113D01*
X129608Y439099D01*
X129517Y439091D01*
X129487Y439079D01*
X129455Y439074D01*
X129375Y439031D01*
X129291Y438995D01*
X129259Y438969D01*
X129238Y438958D01*
X129216Y438935D01*
X129160Y438890D01*
X127607Y437337D01*
X118193Y437337D01*
X116631Y438900D01*
X114857Y440674D01*
X114841Y440686D01*
X114828Y440701D01*
X114741Y440757D01*
X114657Y440817D01*
X114638Y440823D01*
X114621Y440834D01*
X114521Y440859D01*
X114422Y440890D01*
X114402Y440889D01*
X114383Y440894D01*
X114280Y440886D01*
X114176Y440883D01*
X114157Y440877D01*
X114137Y440875D01*
X114043Y440835D01*
X113945Y440799D01*
X113929Y440786D01*
X113911Y440779D01*
X113780Y440674D01*
X113532Y440425D01*
X108268Y440425D01*
X108188Y440505D01*
X108172Y440517D01*
X108160Y440533D01*
X108072Y440589D01*
X107989Y440649D01*
X107970Y440655D01*
X107953Y440666D01*
X107852Y440691D01*
X107753Y440721D01*
X107733Y440721D01*
X107714Y440726D01*
X107611Y440718D01*
X107508Y440715D01*
X107489Y440708D01*
X107469Y440707D01*
X107374Y440666D01*
X107277Y440631D01*
X107261Y440618D01*
X107243Y440610D01*
X107112Y440505D01*
X106910Y440303D01*
X106857Y440229D01*
X106797Y440160D01*
X106785Y440130D01*
X106766Y440104D01*
X106739Y440017D01*
X106705Y439932D01*
X106701Y439891D01*
X106694Y439869D01*
X106695Y439836D01*
X106687Y439765D01*
X106687Y236863D01*
X106701Y236772D01*
X106709Y236682D01*
X106721Y236652D01*
X106726Y236620D01*
X106769Y236539D01*
X106805Y236455D01*
X106831Y236423D01*
X106842Y236402D01*
X106865Y236380D01*
X106910Y236324D01*
X108212Y235022D01*
X108286Y234969D01*
X108356Y234909D01*
X108386Y234897D01*
X108412Y234878D01*
X108499Y234851D01*
X108584Y234817D01*
X108625Y234813D01*
X108647Y234806D01*
X108679Y234807D01*
X108751Y234799D01*
X111988Y234799D01*
X114799Y231988D01*
X114799Y228012D01*
X111988Y225201D01*
X108012Y225201D01*
X105201Y228012D01*
X105201Y231249D01*
X105187Y231340D01*
X105179Y231430D01*
X105167Y231460D01*
X105162Y231492D01*
X105119Y231573D01*
X105083Y231657D01*
X105057Y231689D01*
X105046Y231710D01*
X105023Y231732D01*
X104978Y231788D01*
X103586Y233180D01*
X103528Y233222D01*
X103476Y233271D01*
X103429Y233293D01*
X103387Y233323D01*
X103318Y233344D01*
X103253Y233375D01*
X103201Y233380D01*
X103151Y233396D01*
X103080Y233394D01*
X103009Y233402D01*
X102958Y233391D01*
X102906Y233389D01*
X102838Y233365D01*
X102768Y233350D01*
X102723Y233323D01*
X102675Y233305D01*
X102619Y233260D01*
X102557Y233223D01*
X102523Y233184D01*
X102483Y233151D01*
X102444Y233091D01*
X102397Y233036D01*
X102378Y232988D01*
X102350Y232944D01*
X102332Y232875D01*
X102305Y232808D01*
X102297Y232737D01*
X102289Y232706D01*
X102291Y232682D01*
X102287Y232642D01*
X102287Y212620D01*
X102288Y212611D01*
X102288Y212606D01*
X102293Y212583D01*
X102298Y212550D01*
X102300Y212478D01*
X102318Y212429D01*
X102326Y212378D01*
X102360Y212314D01*
X102385Y212247D01*
X102417Y212206D01*
X102442Y212160D01*
X102494Y212111D01*
X102538Y212055D01*
X102582Y212027D01*
X102620Y211991D01*
X102685Y211961D01*
X102745Y211922D01*
X102796Y211909D01*
X102843Y211887D01*
X102914Y211879D01*
X102984Y211862D01*
X103036Y211866D01*
X103087Y211860D01*
X103158Y211875D01*
X103229Y211881D01*
X103277Y211901D01*
X103328Y211912D01*
X103389Y211949D01*
X103455Y211977D01*
X103511Y212022D01*
X103539Y212039D01*
X103554Y212056D01*
X103586Y212082D01*
X105895Y214391D01*
X108883Y215629D01*
X112117Y215629D01*
X115105Y214391D01*
X117391Y212105D01*
X118629Y209117D01*
X118629Y205883D01*
X117863Y204035D01*
X117837Y203922D01*
X117808Y203808D01*
X117809Y203802D01*
X117807Y203796D01*
X117818Y203679D01*
X117827Y203563D01*
X117830Y203557D01*
X117830Y203551D01*
X117878Y203444D01*
X117924Y203337D01*
X117928Y203331D01*
X117930Y203326D01*
X117943Y203312D01*
X118028Y203206D01*
X119224Y202010D01*
X119298Y201957D01*
X119368Y201897D01*
X119398Y201885D01*
X119424Y201866D01*
X119511Y201839D01*
X119596Y201805D01*
X119637Y201801D01*
X119659Y201794D01*
X119691Y201795D01*
X119763Y201787D01*
X127014Y201787D01*
X127034Y201790D01*
X127053Y201788D01*
X127155Y201810D01*
X127257Y201826D01*
X127274Y201836D01*
X127294Y201840D01*
X127383Y201893D01*
X127474Y201942D01*
X127488Y201956D01*
X127505Y201966D01*
X127572Y202045D01*
X127644Y202120D01*
X127652Y202138D01*
X127665Y202153D01*
X127704Y202249D01*
X127747Y202343D01*
X127749Y202363D01*
X127757Y202381D01*
X127775Y202548D01*
X127775Y202616D01*
X127761Y202706D01*
X127753Y202797D01*
X127741Y202827D01*
X127736Y202859D01*
X127693Y202940D01*
X127657Y203024D01*
X127631Y203056D01*
X127620Y203076D01*
X127597Y203099D01*
X127552Y203155D01*
X127267Y203440D01*
X126932Y204019D01*
X126759Y204666D01*
X126759Y206251D01*
X136312Y206251D01*
X136331Y206254D01*
X136351Y206252D01*
X136453Y206274D01*
X136555Y206290D01*
X136572Y206300D01*
X136592Y206304D01*
X136681Y206357D01*
X136772Y206406D01*
X136786Y206420D01*
X136803Y206430D01*
X136806Y206434D01*
X136860Y206382D01*
X136878Y206374D01*
X136893Y206361D01*
X136990Y206322D01*
X137083Y206279D01*
X137103Y206277D01*
X137121Y206269D01*
X137288Y206251D01*
X146841Y206251D01*
X146841Y204666D01*
X146668Y204019D01*
X146333Y203440D01*
X146048Y203155D01*
X145995Y203081D01*
X145935Y203011D01*
X145923Y202981D01*
X145904Y202955D01*
X145877Y202868D01*
X145843Y202783D01*
X145839Y202742D01*
X145832Y202720D01*
X145833Y202688D01*
X145825Y202616D01*
X145825Y196368D01*
X145495Y196038D01*
X145483Y196022D01*
X145467Y196010D01*
X145411Y195923D01*
X145351Y195839D01*
X145345Y195820D01*
X145334Y195803D01*
X145309Y195702D01*
X145279Y195603D01*
X145279Y195584D01*
X145274Y195564D01*
X145282Y195461D01*
X145285Y195358D01*
X145292Y195339D01*
X145293Y195319D01*
X145334Y195224D01*
X145369Y195127D01*
X145382Y195111D01*
X145390Y195093D01*
X145495Y194962D01*
X145825Y194632D01*
X145825Y192364D01*
X145836Y192293D01*
X145838Y192221D01*
X145856Y192172D01*
X145864Y192121D01*
X145898Y192057D01*
X145923Y191990D01*
X145955Y191949D01*
X145980Y191903D01*
X146032Y191854D01*
X146076Y191798D01*
X146120Y191770D01*
X146158Y191734D01*
X146223Y191704D01*
X146283Y191665D01*
X146334Y191652D01*
X146381Y191630D01*
X146452Y191623D01*
X146522Y191605D01*
X146574Y191609D01*
X146625Y191603D01*
X146696Y191619D01*
X146767Y191624D01*
X146815Y191645D01*
X146866Y191656D01*
X146927Y191692D01*
X146993Y191720D01*
X147049Y191765D01*
X147077Y191782D01*
X147092Y191800D01*
X147124Y191825D01*
X152490Y197191D01*
X152543Y197265D01*
X152603Y197335D01*
X152615Y197365D01*
X152634Y197391D01*
X152661Y197478D01*
X152695Y197563D01*
X152699Y197604D01*
X152706Y197626D01*
X152705Y197658D01*
X152713Y197730D01*
X152713Y225185D01*
X152699Y225275D01*
X152691Y225366D01*
X152679Y225396D01*
X152674Y225428D01*
X152631Y225508D01*
X152595Y225592D01*
X152569Y225624D01*
X152558Y225645D01*
X152535Y225667D01*
X152490Y225723D01*
X150201Y228012D01*
X150201Y231988D01*
X153012Y234799D01*
X156988Y234799D01*
X159799Y231988D01*
X159799Y228012D01*
X157510Y225723D01*
X157457Y225649D01*
X157397Y225580D01*
X157385Y225550D01*
X157366Y225524D01*
X157339Y225437D01*
X157305Y225352D01*
X157301Y225311D01*
X157294Y225288D01*
X157295Y225256D01*
X157287Y225185D01*
X157287Y195520D01*
X146048Y184281D01*
X145995Y184207D01*
X145935Y184137D01*
X145923Y184107D01*
X145904Y184081D01*
X145877Y183994D01*
X145843Y183909D01*
X145839Y183868D01*
X145832Y183846D01*
X145833Y183814D01*
X145825Y183743D01*
X145825Y180368D01*
X145495Y180038D01*
X145483Y180022D01*
X145467Y180010D01*
X145411Y179923D01*
X145351Y179839D01*
X145345Y179820D01*
X145334Y179803D01*
X145309Y179702D01*
X145279Y179603D01*
X145279Y179584D01*
X145274Y179564D01*
X145282Y179461D01*
X145285Y179358D01*
X145292Y179339D01*
X145293Y179319D01*
X145334Y179224D01*
X145369Y179127D01*
X145382Y179111D01*
X145390Y179093D01*
X145495Y178962D01*
X145825Y178632D01*
X145825Y173762D01*
X145828Y173742D01*
X145826Y173723D01*
X145848Y173621D01*
X145864Y173519D01*
X145874Y173502D01*
X145878Y173482D01*
X145931Y173393D01*
X145980Y173302D01*
X145994Y173288D01*
X146004Y173271D01*
X146083Y173204D01*
X146158Y173132D01*
X146176Y173124D01*
X146191Y173111D01*
X146287Y173072D01*
X146381Y173029D01*
X146401Y173027D01*
X146419Y173019D01*
X146586Y173001D01*
X148984Y173001D01*
X149074Y173015D01*
X149165Y173023D01*
X149195Y173035D01*
X149227Y173040D01*
X149308Y173083D01*
X149392Y173119D01*
X149424Y173145D01*
X149444Y173156D01*
X149467Y173179D01*
X149523Y173224D01*
X162490Y186191D01*
X162543Y186265D01*
X162603Y186335D01*
X162615Y186365D01*
X162634Y186391D01*
X162661Y186478D01*
X162695Y186563D01*
X162699Y186604D01*
X162706Y186626D01*
X162705Y186658D01*
X162713Y186730D01*
X162713Y215185D01*
X162699Y215275D01*
X162691Y215366D01*
X162679Y215396D01*
X162674Y215428D01*
X162631Y215508D01*
X162595Y215592D01*
X162569Y215624D01*
X162558Y215645D01*
X162535Y215667D01*
X162490Y215723D01*
X160201Y218012D01*
X160201Y221988D01*
X163012Y224799D01*
X166988Y224799D01*
X169799Y221988D01*
X169799Y218012D01*
X167510Y215723D01*
X167457Y215649D01*
X167397Y215580D01*
X167385Y215550D01*
X167366Y215524D01*
X167339Y215437D01*
X167305Y215352D01*
X167301Y215311D01*
X167294Y215288D01*
X167295Y215256D01*
X167287Y215185D01*
X167287Y184520D01*
X151194Y168427D01*
X146586Y168427D01*
X146566Y168424D01*
X146547Y168426D01*
X146445Y168404D01*
X146343Y168388D01*
X146326Y168378D01*
X146306Y168374D01*
X146217Y168321D01*
X146126Y168272D01*
X146112Y168258D01*
X146095Y168248D01*
X146028Y168169D01*
X145956Y168094D01*
X145948Y168076D01*
X145935Y168061D01*
X145896Y167965D01*
X145853Y167871D01*
X145851Y167851D01*
X145843Y167833D01*
X145825Y167666D01*
X145825Y164368D01*
X144932Y163475D01*
X128668Y163475D01*
G37*
%LPD*%
%LPC*%
G36*
X252740Y216618D02*
X252740Y216618D01*
X252722Y216626D01*
X252707Y216639D01*
X252610Y216678D01*
X252517Y216721D01*
X252497Y216723D01*
X252479Y216731D01*
X252312Y216749D01*
X242759Y216749D01*
X242759Y218334D01*
X242932Y218981D01*
X243267Y219560D01*
X243552Y219845D01*
X243605Y219919D01*
X243665Y219989D01*
X243677Y220019D01*
X243696Y220045D01*
X243723Y220132D01*
X243757Y220217D01*
X243761Y220258D01*
X243768Y220280D01*
X243767Y220312D01*
X243775Y220384D01*
X243775Y226632D01*
X244105Y226962D01*
X244117Y226978D01*
X244133Y226990D01*
X244189Y227077D01*
X244249Y227161D01*
X244255Y227180D01*
X244266Y227197D01*
X244291Y227298D01*
X244321Y227397D01*
X244321Y227416D01*
X244326Y227436D01*
X244318Y227539D01*
X244315Y227642D01*
X244308Y227661D01*
X244307Y227681D01*
X244266Y227776D01*
X244231Y227873D01*
X244218Y227889D01*
X244210Y227907D01*
X244105Y228038D01*
X243775Y228368D01*
X243775Y234632D01*
X244105Y234962D01*
X244117Y234978D01*
X244133Y234990D01*
X244163Y235037D01*
X244180Y235055D01*
X244193Y235084D01*
X244249Y235161D01*
X244255Y235180D01*
X244266Y235197D01*
X244291Y235298D01*
X244321Y235397D01*
X244321Y235416D01*
X244326Y235436D01*
X244318Y235539D01*
X244315Y235642D01*
X244308Y235661D01*
X244307Y235681D01*
X244266Y235776D01*
X244231Y235873D01*
X244218Y235889D01*
X244210Y235907D01*
X244105Y236038D01*
X243775Y236368D01*
X243775Y242632D01*
X244105Y242962D01*
X244117Y242978D01*
X244133Y242990D01*
X244188Y243077D01*
X244249Y243161D01*
X244255Y243180D01*
X244266Y243197D01*
X244291Y243298D01*
X244321Y243397D01*
X244321Y243416D01*
X244326Y243436D01*
X244318Y243539D01*
X244315Y243642D01*
X244308Y243661D01*
X244307Y243681D01*
X244266Y243776D01*
X244231Y243873D01*
X244218Y243889D01*
X244210Y243907D01*
X244105Y244038D01*
X243775Y244368D01*
X243775Y244452D01*
X243772Y244472D01*
X243774Y244491D01*
X243752Y244593D01*
X243736Y244695D01*
X243726Y244712D01*
X243722Y244732D01*
X243669Y244821D01*
X243620Y244912D01*
X243606Y244926D01*
X243596Y244943D01*
X243517Y245010D01*
X243442Y245082D01*
X243424Y245090D01*
X243409Y245103D01*
X243313Y245142D01*
X243219Y245185D01*
X243199Y245187D01*
X243181Y245195D01*
X243014Y245213D01*
X240560Y245213D01*
X240540Y245210D01*
X240521Y245212D01*
X240419Y245190D01*
X240317Y245174D01*
X240300Y245164D01*
X240280Y245160D01*
X240191Y245107D01*
X240100Y245058D01*
X240086Y245044D01*
X240069Y245034D01*
X240002Y244955D01*
X239930Y244880D01*
X239922Y244862D01*
X239909Y244847D01*
X239870Y244751D01*
X239827Y244657D01*
X239825Y244637D01*
X239817Y244619D01*
X239799Y244452D01*
X239799Y243012D01*
X236988Y240201D01*
X233012Y240201D01*
X230201Y243012D01*
X230201Y246988D01*
X233012Y249799D01*
X237196Y249799D01*
X237212Y249794D01*
X237244Y249795D01*
X237315Y249787D01*
X243014Y249787D01*
X243034Y249790D01*
X243053Y249788D01*
X243155Y249810D01*
X243257Y249826D01*
X243274Y249836D01*
X243294Y249840D01*
X243383Y249893D01*
X243474Y249942D01*
X243488Y249956D01*
X243505Y249966D01*
X243572Y250045D01*
X243644Y250120D01*
X243652Y250138D01*
X243665Y250153D01*
X243704Y250249D01*
X243747Y250343D01*
X243749Y250363D01*
X243757Y250381D01*
X243775Y250548D01*
X243775Y250632D01*
X244668Y251525D01*
X260932Y251525D01*
X261825Y250632D01*
X261825Y244368D01*
X261495Y244038D01*
X261483Y244022D01*
X261467Y244010D01*
X261411Y243923D01*
X261351Y243839D01*
X261345Y243820D01*
X261334Y243803D01*
X261309Y243702D01*
X261279Y243603D01*
X261279Y243584D01*
X261274Y243564D01*
X261282Y243461D01*
X261285Y243358D01*
X261292Y243339D01*
X261293Y243319D01*
X261334Y243224D01*
X261369Y243127D01*
X261382Y243111D01*
X261390Y243093D01*
X261495Y242962D01*
X261825Y242632D01*
X261825Y240364D01*
X261836Y240293D01*
X261838Y240221D01*
X261856Y240172D01*
X261864Y240121D01*
X261898Y240057D01*
X261923Y239990D01*
X261955Y239949D01*
X261980Y239903D01*
X262032Y239854D01*
X262076Y239798D01*
X262120Y239770D01*
X262158Y239734D01*
X262223Y239704D01*
X262283Y239665D01*
X262334Y239652D01*
X262381Y239630D01*
X262452Y239623D01*
X262522Y239605D01*
X262574Y239609D01*
X262625Y239603D01*
X262696Y239619D01*
X262767Y239624D01*
X262815Y239645D01*
X262866Y239656D01*
X262927Y239692D01*
X262993Y239720D01*
X263049Y239765D01*
X263077Y239782D01*
X263092Y239800D01*
X263124Y239825D01*
X274990Y251691D01*
X275035Y251754D01*
X275082Y251803D01*
X275089Y251818D01*
X275103Y251835D01*
X275115Y251865D01*
X275134Y251891D01*
X275156Y251963D01*
X275185Y252026D01*
X275187Y252044D01*
X275195Y252063D01*
X275199Y252104D01*
X275206Y252126D01*
X275205Y252158D01*
X275213Y252230D01*
X275213Y264916D01*
X275195Y265029D01*
X275177Y265147D01*
X275175Y265152D01*
X275174Y265159D01*
X275119Y265261D01*
X275066Y265366D01*
X275061Y265370D01*
X275058Y265376D01*
X274974Y265456D01*
X274890Y265538D01*
X274884Y265542D01*
X274880Y265545D01*
X274863Y265553D01*
X274743Y265619D01*
X271313Y267040D01*
X268240Y270113D01*
X266577Y274127D01*
X266577Y278473D01*
X268240Y282487D01*
X271313Y285560D01*
X275327Y287223D01*
X279673Y287223D01*
X283687Y285560D01*
X286760Y282487D01*
X288423Y278473D01*
X288423Y274127D01*
X286760Y270113D01*
X283687Y267040D01*
X280257Y265619D01*
X280157Y265558D01*
X280057Y265498D01*
X280053Y265493D01*
X280048Y265490D01*
X279973Y265400D01*
X279897Y265311D01*
X279895Y265305D01*
X279891Y265300D01*
X279849Y265192D01*
X279805Y265083D01*
X279804Y265075D01*
X279803Y265070D01*
X279802Y265052D01*
X279787Y264916D01*
X279787Y250020D01*
X262048Y232281D01*
X261995Y232207D01*
X261935Y232137D01*
X261923Y232107D01*
X261904Y232081D01*
X261877Y231994D01*
X261843Y231909D01*
X261839Y231868D01*
X261832Y231846D01*
X261833Y231814D01*
X261825Y231743D01*
X261825Y228368D01*
X261495Y228038D01*
X261483Y228022D01*
X261467Y228010D01*
X261411Y227923D01*
X261351Y227839D01*
X261345Y227820D01*
X261334Y227803D01*
X261309Y227702D01*
X261279Y227603D01*
X261279Y227584D01*
X261274Y227564D01*
X261282Y227461D01*
X261285Y227358D01*
X261292Y227339D01*
X261293Y227319D01*
X261334Y227224D01*
X261369Y227127D01*
X261382Y227111D01*
X261390Y227093D01*
X261495Y226962D01*
X261825Y226632D01*
X261825Y226548D01*
X261828Y226528D01*
X261826Y226509D01*
X261848Y226407D01*
X261864Y226305D01*
X261874Y226288D01*
X261878Y226268D01*
X261931Y226179D01*
X261980Y226088D01*
X261994Y226074D01*
X262004Y226057D01*
X262083Y225990D01*
X262158Y225918D01*
X262176Y225910D01*
X262191Y225897D01*
X262287Y225858D01*
X262381Y225815D01*
X262401Y225813D01*
X262419Y225805D01*
X262586Y225787D01*
X274237Y225787D01*
X274328Y225801D01*
X274418Y225809D01*
X274448Y225821D01*
X274480Y225826D01*
X274561Y225869D01*
X274645Y225905D01*
X274677Y225931D01*
X274698Y225942D01*
X274720Y225965D01*
X274776Y226010D01*
X318633Y269867D01*
X318701Y269961D01*
X318771Y270056D01*
X318773Y270062D01*
X318777Y270067D01*
X318811Y270178D01*
X318847Y270290D01*
X318847Y270296D01*
X318849Y270302D01*
X318846Y270419D01*
X318845Y270536D01*
X318843Y270543D01*
X318843Y270548D01*
X318836Y270565D01*
X318798Y270697D01*
X317377Y274127D01*
X317377Y278473D01*
X319040Y282487D01*
X322113Y285560D01*
X326127Y287223D01*
X330473Y287223D01*
X334487Y285560D01*
X337560Y282487D01*
X339223Y278473D01*
X339223Y274127D01*
X337560Y270113D01*
X334487Y267040D01*
X330473Y265377D01*
X326127Y265377D01*
X322697Y266798D01*
X322583Y266825D01*
X322470Y266853D01*
X322463Y266853D01*
X322457Y266854D01*
X322341Y266843D01*
X322224Y266834D01*
X322219Y266832D01*
X322212Y266831D01*
X322105Y266783D01*
X321998Y266738D01*
X321992Y266733D01*
X321988Y266731D01*
X321974Y266719D01*
X321867Y266633D01*
X276447Y221213D01*
X262586Y221213D01*
X262566Y221210D01*
X262547Y221212D01*
X262445Y221190D01*
X262343Y221174D01*
X262326Y221164D01*
X262306Y221160D01*
X262217Y221107D01*
X262126Y221058D01*
X262112Y221044D01*
X262095Y221034D01*
X262028Y220955D01*
X261956Y220880D01*
X261948Y220862D01*
X261935Y220847D01*
X261896Y220751D01*
X261853Y220657D01*
X261851Y220637D01*
X261843Y220619D01*
X261825Y220452D01*
X261825Y220384D01*
X261839Y220294D01*
X261847Y220203D01*
X261859Y220173D01*
X261864Y220141D01*
X261907Y220060D01*
X261943Y219976D01*
X261969Y219944D01*
X261980Y219924D01*
X262003Y219901D01*
X262048Y219845D01*
X262333Y219560D01*
X262668Y218981D01*
X262841Y218334D01*
X262841Y216749D01*
X253288Y216749D01*
X253269Y216746D01*
X253249Y216748D01*
X253147Y216726D01*
X253045Y216710D01*
X253028Y216700D01*
X253008Y216696D01*
X252919Y216643D01*
X252828Y216594D01*
X252814Y216580D01*
X252797Y216570D01*
X252794Y216566D01*
X252740Y216618D01*
G37*
%LPD*%
%LPC*%
G36*
X26312Y381459D02*
X26312Y381459D01*
X19497Y384282D01*
X14282Y389497D01*
X11459Y396312D01*
X11459Y403688D01*
X14282Y410503D01*
X19497Y415718D01*
X26312Y418541D01*
X33688Y418541D01*
X40503Y415718D01*
X45718Y410503D01*
X48541Y403688D01*
X48541Y396312D01*
X45718Y389497D01*
X40503Y384282D01*
X33688Y381459D01*
X26312Y381459D01*
G37*
%LPD*%
%LPC*%
G36*
X26312Y11459D02*
X26312Y11459D01*
X19497Y14282D01*
X14282Y19497D01*
X11459Y26312D01*
X11459Y33688D01*
X14282Y40503D01*
X19497Y45718D01*
X26312Y48541D01*
X33688Y48541D01*
X40503Y45718D01*
X45718Y40503D01*
X48541Y33688D01*
X48541Y26312D01*
X45718Y19497D01*
X40503Y14282D01*
X33688Y11459D01*
X26312Y11459D01*
G37*
%LPD*%
%LPC*%
G36*
X466312Y451459D02*
X466312Y451459D01*
X459497Y454282D01*
X454282Y459497D01*
X451459Y466312D01*
X451459Y473688D01*
X454282Y480503D01*
X459497Y485718D01*
X466312Y488541D01*
X473688Y488541D01*
X480503Y485718D01*
X485718Y480503D01*
X488541Y473688D01*
X488541Y466312D01*
X485718Y459497D01*
X480503Y454282D01*
X473688Y451459D01*
X466312Y451459D01*
G37*
%LPD*%
%LPC*%
G36*
X378827Y27777D02*
X378827Y27777D01*
X374813Y29440D01*
X371740Y32513D01*
X370077Y36527D01*
X370077Y40873D01*
X371740Y44887D01*
X374813Y47960D01*
X378243Y49381D01*
X378343Y49442D01*
X378443Y49502D01*
X378447Y49507D01*
X378452Y49510D01*
X378527Y49600D01*
X378603Y49689D01*
X378605Y49695D01*
X378609Y49700D01*
X378651Y49808D01*
X378695Y49917D01*
X378696Y49925D01*
X378697Y49930D01*
X378698Y49948D01*
X378713Y50084D01*
X378713Y81947D01*
X417490Y120724D01*
X417543Y120798D01*
X417603Y120868D01*
X417615Y120898D01*
X417634Y120924D01*
X417661Y121011D01*
X417695Y121096D01*
X417699Y121137D01*
X417706Y121159D01*
X417705Y121191D01*
X417713Y121263D01*
X417713Y130310D01*
X417710Y130330D01*
X417712Y130349D01*
X417690Y130451D01*
X417674Y130553D01*
X417664Y130570D01*
X417660Y130590D01*
X417607Y130679D01*
X417558Y130770D01*
X417544Y130784D01*
X417534Y130801D01*
X417455Y130868D01*
X417380Y130940D01*
X417362Y130948D01*
X417347Y130961D01*
X417251Y131000D01*
X417157Y131043D01*
X417137Y131045D01*
X417119Y131053D01*
X416952Y131071D01*
X416633Y131071D01*
X411871Y135833D01*
X411871Y142567D01*
X416633Y147329D01*
X423367Y147329D01*
X428129Y142567D01*
X428129Y135833D01*
X423367Y131071D01*
X423048Y131071D01*
X423028Y131068D01*
X423009Y131070D01*
X422907Y131048D01*
X422805Y131032D01*
X422788Y131022D01*
X422768Y131018D01*
X422679Y130965D01*
X422588Y130916D01*
X422574Y130902D01*
X422557Y130892D01*
X422490Y130813D01*
X422418Y130738D01*
X422410Y130720D01*
X422397Y130705D01*
X422358Y130609D01*
X422315Y130515D01*
X422313Y130495D01*
X422305Y130477D01*
X422287Y130310D01*
X422287Y119053D01*
X383510Y80276D01*
X383457Y80202D01*
X383397Y80132D01*
X383385Y80102D01*
X383366Y80076D01*
X383339Y79989D01*
X383305Y79904D01*
X383301Y79863D01*
X383294Y79841D01*
X383295Y79809D01*
X383287Y79737D01*
X383287Y50084D01*
X383306Y49969D01*
X383323Y49853D01*
X383325Y49848D01*
X383326Y49841D01*
X383381Y49738D01*
X383434Y49634D01*
X383439Y49630D01*
X383442Y49624D01*
X383526Y49544D01*
X383610Y49462D01*
X383616Y49458D01*
X383620Y49455D01*
X383637Y49447D01*
X383757Y49381D01*
X387187Y47960D01*
X390260Y44887D01*
X391923Y40873D01*
X391923Y36527D01*
X390260Y32513D01*
X387187Y29440D01*
X383173Y27777D01*
X378827Y27777D01*
G37*
%LPD*%
%LPC*%
G36*
X183966Y139459D02*
X183966Y139459D01*
X183319Y139632D01*
X182740Y139967D01*
X182455Y140252D01*
X182381Y140305D01*
X182311Y140365D01*
X182281Y140377D01*
X182255Y140396D01*
X182168Y140423D01*
X182083Y140457D01*
X182042Y140461D01*
X182020Y140468D01*
X181988Y140467D01*
X181916Y140475D01*
X175668Y140475D01*
X175338Y140805D01*
X175322Y140817D01*
X175310Y140833D01*
X175223Y140889D01*
X175139Y140949D01*
X175120Y140955D01*
X175103Y140966D01*
X175002Y140991D01*
X174903Y141021D01*
X174884Y141021D01*
X174864Y141026D01*
X174761Y141018D01*
X174658Y141015D01*
X174639Y141008D01*
X174619Y141007D01*
X174524Y140966D01*
X174427Y140931D01*
X174411Y140918D01*
X174393Y140910D01*
X174262Y140805D01*
X173932Y140475D01*
X167668Y140475D01*
X167338Y140805D01*
X167322Y140817D01*
X167310Y140833D01*
X167223Y140889D01*
X167139Y140949D01*
X167120Y140955D01*
X167103Y140966D01*
X167002Y140991D01*
X166903Y141021D01*
X166884Y141021D01*
X166864Y141026D01*
X166761Y141018D01*
X166658Y141015D01*
X166639Y141008D01*
X166619Y141007D01*
X166524Y140966D01*
X166427Y140931D01*
X166411Y140918D01*
X166393Y140910D01*
X166262Y140805D01*
X165932Y140475D01*
X159668Y140475D01*
X159338Y140805D01*
X159322Y140817D01*
X159310Y140833D01*
X159223Y140889D01*
X159139Y140949D01*
X159120Y140955D01*
X159103Y140966D01*
X159002Y140991D01*
X158903Y141021D01*
X158884Y141021D01*
X158864Y141026D01*
X158761Y141018D01*
X158658Y141015D01*
X158639Y141008D01*
X158619Y141007D01*
X158524Y140966D01*
X158427Y140931D01*
X158411Y140918D01*
X158393Y140910D01*
X158262Y140805D01*
X157932Y140475D01*
X151668Y140475D01*
X150775Y141368D01*
X150775Y157632D01*
X151668Y158525D01*
X157932Y158525D01*
X158262Y158195D01*
X158278Y158183D01*
X158290Y158167D01*
X158377Y158111D01*
X158461Y158051D01*
X158480Y158045D01*
X158497Y158034D01*
X158598Y158009D01*
X158697Y157979D01*
X158716Y157979D01*
X158736Y157974D01*
X158839Y157982D01*
X158942Y157985D01*
X158961Y157992D01*
X158981Y157993D01*
X159076Y158034D01*
X159173Y158069D01*
X159189Y158082D01*
X159207Y158090D01*
X159338Y158195D01*
X159668Y158525D01*
X165932Y158525D01*
X166262Y158195D01*
X166278Y158183D01*
X166290Y158167D01*
X166377Y158111D01*
X166461Y158051D01*
X166480Y158045D01*
X166497Y158034D01*
X166598Y158009D01*
X166697Y157979D01*
X166716Y157979D01*
X166736Y157974D01*
X166839Y157982D01*
X166942Y157985D01*
X166961Y157992D01*
X166981Y157993D01*
X167076Y158034D01*
X167173Y158069D01*
X167189Y158082D01*
X167207Y158090D01*
X167338Y158195D01*
X167668Y158525D01*
X167752Y158525D01*
X167772Y158528D01*
X167791Y158526D01*
X167893Y158548D01*
X167995Y158564D01*
X168012Y158574D01*
X168032Y158578D01*
X168121Y158631D01*
X168212Y158680D01*
X168226Y158694D01*
X168243Y158704D01*
X168310Y158783D01*
X168382Y158858D01*
X168390Y158876D01*
X168403Y158891D01*
X168442Y158987D01*
X168485Y159081D01*
X168487Y159101D01*
X168495Y159119D01*
X168513Y159286D01*
X168513Y181747D01*
X172490Y185724D01*
X172543Y185798D01*
X172603Y185868D01*
X172615Y185898D01*
X172634Y185924D01*
X172661Y186011D01*
X172695Y186096D01*
X172699Y186137D01*
X172706Y186159D01*
X172705Y186191D01*
X172713Y186263D01*
X172713Y190185D01*
X172699Y190275D01*
X172691Y190366D01*
X172679Y190396D01*
X172674Y190428D01*
X172631Y190508D01*
X172595Y190592D01*
X172569Y190624D01*
X172558Y190645D01*
X172535Y190667D01*
X172490Y190723D01*
X170201Y193012D01*
X170201Y196988D01*
X173012Y199799D01*
X176988Y199799D01*
X179799Y196988D01*
X179799Y193012D01*
X177510Y190723D01*
X177457Y190649D01*
X177397Y190580D01*
X177385Y190550D01*
X177366Y190524D01*
X177339Y190437D01*
X177305Y190352D01*
X177301Y190311D01*
X177294Y190288D01*
X177295Y190256D01*
X177287Y190185D01*
X177287Y184053D01*
X173310Y180076D01*
X173257Y180002D01*
X173197Y179932D01*
X173185Y179902D01*
X173166Y179876D01*
X173139Y179789D01*
X173105Y179704D01*
X173101Y179663D01*
X173094Y179641D01*
X173095Y179609D01*
X173087Y179537D01*
X173087Y159286D01*
X173090Y159266D01*
X173088Y159247D01*
X173110Y159145D01*
X173126Y159043D01*
X173136Y159026D01*
X173140Y159006D01*
X173193Y158917D01*
X173242Y158826D01*
X173256Y158812D01*
X173266Y158795D01*
X173345Y158728D01*
X173420Y158656D01*
X173438Y158648D01*
X173453Y158635D01*
X173549Y158596D01*
X173643Y158553D01*
X173663Y158551D01*
X173681Y158543D01*
X173848Y158525D01*
X173932Y158525D01*
X174262Y158195D01*
X174278Y158183D01*
X174290Y158167D01*
X174377Y158111D01*
X174461Y158051D01*
X174480Y158045D01*
X174497Y158034D01*
X174598Y158009D01*
X174697Y157979D01*
X174716Y157979D01*
X174736Y157974D01*
X174839Y157982D01*
X174942Y157985D01*
X174961Y157992D01*
X174981Y157993D01*
X175076Y158034D01*
X175173Y158069D01*
X175189Y158082D01*
X175207Y158090D01*
X175338Y158195D01*
X175668Y158525D01*
X176952Y158525D01*
X176972Y158528D01*
X176991Y158526D01*
X177093Y158548D01*
X177195Y158564D01*
X177212Y158574D01*
X177232Y158578D01*
X177321Y158631D01*
X177412Y158680D01*
X177426Y158694D01*
X177443Y158704D01*
X177510Y158783D01*
X177582Y158858D01*
X177590Y158876D01*
X177603Y158891D01*
X177642Y158987D01*
X177685Y159081D01*
X177687Y159101D01*
X177695Y159119D01*
X177713Y159286D01*
X177713Y165185D01*
X177699Y165275D01*
X177691Y165366D01*
X177679Y165396D01*
X177674Y165428D01*
X177631Y165508D01*
X177595Y165592D01*
X177569Y165624D01*
X177558Y165645D01*
X177535Y165667D01*
X177490Y165723D01*
X175201Y168012D01*
X175201Y171988D01*
X178012Y174799D01*
X181988Y174799D01*
X184799Y171988D01*
X184799Y168012D01*
X182510Y165723D01*
X182457Y165649D01*
X182397Y165580D01*
X182385Y165550D01*
X182366Y165524D01*
X182339Y165437D01*
X182305Y165352D01*
X182301Y165311D01*
X182294Y165288D01*
X182295Y165256D01*
X182287Y165185D01*
X182287Y160083D01*
X182306Y159966D01*
X182324Y159848D01*
X182326Y159844D01*
X182326Y159840D01*
X182382Y159735D01*
X182437Y159629D01*
X182440Y159627D01*
X182442Y159623D01*
X182527Y159542D01*
X182613Y159458D01*
X182617Y159456D01*
X182620Y159453D01*
X182728Y159403D01*
X182835Y159352D01*
X182839Y159352D01*
X182843Y159350D01*
X182961Y159337D01*
X183079Y159322D01*
X183084Y159323D01*
X183087Y159323D01*
X183101Y159326D01*
X183245Y159348D01*
X183966Y159541D01*
X185551Y159541D01*
X185551Y149988D01*
X185554Y149969D01*
X185552Y149949D01*
X185574Y149847D01*
X185590Y149745D01*
X185600Y149728D01*
X185604Y149708D01*
X185657Y149619D01*
X185706Y149528D01*
X185720Y149514D01*
X185730Y149497D01*
X185734Y149494D01*
X185682Y149440D01*
X185674Y149422D01*
X185661Y149407D01*
X185622Y149310D01*
X185579Y149217D01*
X185577Y149197D01*
X185569Y149179D01*
X185551Y149012D01*
X185551Y139459D01*
X183966Y139459D01*
G37*
%LPD*%
%LPC*%
G36*
X136740Y208618D02*
X136740Y208618D01*
X136722Y208626D01*
X136707Y208639D01*
X136610Y208678D01*
X136517Y208721D01*
X136497Y208723D01*
X136479Y208731D01*
X136312Y208749D01*
X126759Y208749D01*
X126759Y210334D01*
X126932Y210981D01*
X127267Y211560D01*
X127552Y211845D01*
X127605Y211919D01*
X127665Y211989D01*
X127677Y212019D01*
X127696Y212045D01*
X127723Y212132D01*
X127757Y212217D01*
X127761Y212258D01*
X127768Y212280D01*
X127767Y212312D01*
X127775Y212384D01*
X127775Y218632D01*
X128105Y218962D01*
X128117Y218978D01*
X128133Y218990D01*
X128161Y219035D01*
X128194Y219069D01*
X128214Y219113D01*
X128249Y219161D01*
X128255Y219180D01*
X128266Y219197D01*
X128280Y219255D01*
X128297Y219292D01*
X128302Y219333D01*
X128321Y219397D01*
X128321Y219416D01*
X128326Y219436D01*
X128321Y219502D01*
X128324Y219536D01*
X128317Y219571D01*
X128315Y219642D01*
X128308Y219661D01*
X128307Y219681D01*
X128279Y219747D01*
X128272Y219777D01*
X128256Y219804D01*
X128231Y219873D01*
X128218Y219889D01*
X128210Y219907D01*
X128146Y219987D01*
X128146Y219988D01*
X128145Y219988D01*
X128105Y220038D01*
X127775Y220368D01*
X127775Y226632D01*
X128105Y226962D01*
X128117Y226978D01*
X128133Y226990D01*
X128189Y227077D01*
X128249Y227161D01*
X128255Y227180D01*
X128266Y227197D01*
X128291Y227298D01*
X128321Y227397D01*
X128321Y227416D01*
X128326Y227436D01*
X128318Y227539D01*
X128315Y227642D01*
X128308Y227661D01*
X128307Y227681D01*
X128266Y227776D01*
X128231Y227873D01*
X128218Y227889D01*
X128210Y227907D01*
X128105Y228038D01*
X127775Y228368D01*
X127775Y234632D01*
X128105Y234962D01*
X128117Y234978D01*
X128133Y234990D01*
X128162Y235037D01*
X128180Y235055D01*
X128193Y235084D01*
X128249Y235161D01*
X128255Y235180D01*
X128266Y235197D01*
X128291Y235298D01*
X128321Y235397D01*
X128321Y235416D01*
X128326Y235436D01*
X128318Y235539D01*
X128315Y235642D01*
X128308Y235661D01*
X128307Y235681D01*
X128266Y235776D01*
X128231Y235873D01*
X128218Y235889D01*
X128210Y235907D01*
X128105Y236038D01*
X127775Y236368D01*
X127775Y242632D01*
X128105Y242962D01*
X128117Y242978D01*
X128133Y242990D01*
X128189Y243077D01*
X128249Y243161D01*
X128255Y243180D01*
X128266Y243197D01*
X128291Y243298D01*
X128321Y243397D01*
X128321Y243416D01*
X128326Y243436D01*
X128318Y243539D01*
X128315Y243642D01*
X128308Y243661D01*
X128307Y243681D01*
X128266Y243776D01*
X128231Y243873D01*
X128218Y243889D01*
X128210Y243907D01*
X128105Y244038D01*
X127775Y244368D01*
X127775Y250632D01*
X128668Y251525D01*
X129851Y251525D01*
X129922Y251536D01*
X129993Y251538D01*
X130042Y251556D01*
X130094Y251564D01*
X130157Y251598D01*
X130225Y251623D01*
X130265Y251655D01*
X130311Y251680D01*
X130360Y251731D01*
X130417Y251776D01*
X130445Y251820D01*
X130481Y251858D01*
X130511Y251923D01*
X130550Y251983D01*
X130562Y252034D01*
X130584Y252081D01*
X130592Y252152D01*
X130610Y252222D01*
X130606Y252274D01*
X130611Y252325D01*
X130596Y252396D01*
X130590Y252467D01*
X130570Y252515D01*
X130559Y252566D01*
X130522Y252627D01*
X130494Y252693D01*
X130449Y252749D01*
X130433Y252777D01*
X130415Y252792D01*
X130389Y252824D01*
X130201Y253012D01*
X130201Y256988D01*
X133012Y259799D01*
X136988Y259799D01*
X139799Y256988D01*
X139799Y253012D01*
X139611Y252824D01*
X139569Y252766D01*
X139519Y252714D01*
X139497Y252667D01*
X139467Y252625D01*
X139446Y252556D01*
X139416Y252491D01*
X139410Y252439D01*
X139395Y252389D01*
X139397Y252318D01*
X139389Y252247D01*
X139400Y252196D01*
X139401Y252144D01*
X139426Y252076D01*
X139441Y252006D01*
X139468Y251961D01*
X139486Y251913D01*
X139530Y251857D01*
X139567Y251795D01*
X139607Y251761D01*
X139639Y251721D01*
X139700Y251682D01*
X139754Y251635D01*
X139802Y251616D01*
X139846Y251588D01*
X139916Y251570D01*
X139982Y251543D01*
X140054Y251535D01*
X140085Y251527D01*
X140108Y251529D01*
X140149Y251525D01*
X144932Y251525D01*
X145825Y250632D01*
X145825Y244368D01*
X145495Y244038D01*
X145483Y244022D01*
X145467Y244010D01*
X145411Y243923D01*
X145351Y243839D01*
X145345Y243820D01*
X145334Y243803D01*
X145309Y243702D01*
X145279Y243603D01*
X145279Y243584D01*
X145274Y243564D01*
X145282Y243461D01*
X145285Y243358D01*
X145292Y243339D01*
X145293Y243319D01*
X145334Y243224D01*
X145369Y243127D01*
X145382Y243111D01*
X145390Y243093D01*
X145495Y242962D01*
X145825Y242632D01*
X145825Y236368D01*
X145495Y236038D01*
X145483Y236022D01*
X145467Y236010D01*
X145411Y235923D01*
X145351Y235839D01*
X145345Y235820D01*
X145334Y235803D01*
X145309Y235702D01*
X145279Y235603D01*
X145279Y235584D01*
X145274Y235564D01*
X145282Y235461D01*
X145285Y235358D01*
X145292Y235339D01*
X145293Y235319D01*
X145334Y235224D01*
X145369Y235127D01*
X145382Y235111D01*
X145390Y235093D01*
X145461Y235003D01*
X145468Y234992D01*
X145475Y234986D01*
X145495Y234962D01*
X145825Y234632D01*
X145825Y228368D01*
X145495Y228038D01*
X145483Y228022D01*
X145467Y228010D01*
X145411Y227923D01*
X145351Y227839D01*
X145345Y227820D01*
X145334Y227803D01*
X145309Y227702D01*
X145279Y227603D01*
X145279Y227584D01*
X145274Y227564D01*
X145282Y227461D01*
X145285Y227358D01*
X145292Y227339D01*
X145293Y227319D01*
X145334Y227224D01*
X145369Y227127D01*
X145382Y227111D01*
X145390Y227093D01*
X145495Y226962D01*
X145825Y226632D01*
X145825Y220368D01*
X145495Y220038D01*
X145483Y220022D01*
X145467Y220010D01*
X145427Y219947D01*
X145406Y219925D01*
X145394Y219898D01*
X145351Y219839D01*
X145345Y219820D01*
X145334Y219803D01*
X145316Y219731D01*
X145303Y219702D01*
X145299Y219670D01*
X145279Y219603D01*
X145279Y219584D01*
X145274Y219564D01*
X145280Y219494D01*
X145276Y219458D01*
X145283Y219422D01*
X145285Y219358D01*
X145292Y219339D01*
X145293Y219319D01*
X145319Y219260D01*
X145328Y219217D01*
X145350Y219181D01*
X145369Y219127D01*
X145382Y219111D01*
X145390Y219093D01*
X145439Y219031D01*
X145454Y219006D01*
X145470Y218992D01*
X145495Y218962D01*
X145825Y218632D01*
X145825Y212384D01*
X145839Y212294D01*
X145847Y212203D01*
X145859Y212173D01*
X145864Y212141D01*
X145907Y212060D01*
X145943Y211976D01*
X145969Y211944D01*
X145980Y211924D01*
X146003Y211901D01*
X146048Y211845D01*
X146333Y211560D01*
X146668Y210981D01*
X146841Y210334D01*
X146841Y208749D01*
X137288Y208749D01*
X137269Y208746D01*
X137249Y208748D01*
X137147Y208726D01*
X137045Y208710D01*
X137028Y208700D01*
X137008Y208696D01*
X136919Y208643D01*
X136828Y208594D01*
X136814Y208580D01*
X136797Y208570D01*
X136794Y208566D01*
X136740Y208618D01*
G37*
%LPD*%
%LPC*%
G36*
X254212Y381801D02*
X254212Y381801D01*
X251401Y384612D01*
X251401Y388588D01*
X254212Y391399D01*
X257449Y391399D01*
X257540Y391413D01*
X257630Y391421D01*
X257660Y391433D01*
X257692Y391438D01*
X257773Y391481D01*
X257857Y391517D01*
X257889Y391543D01*
X257910Y391554D01*
X257932Y391577D01*
X257988Y391622D01*
X272138Y405772D01*
X272180Y405830D01*
X272229Y405882D01*
X272251Y405929D01*
X272281Y405971D01*
X272302Y406040D01*
X272333Y406105D01*
X272338Y406157D01*
X272354Y406207D01*
X272352Y406278D01*
X272360Y406349D01*
X272349Y406400D01*
X272347Y406452D01*
X272323Y406520D01*
X272308Y406590D01*
X272281Y406635D01*
X272263Y406683D01*
X272218Y406739D01*
X272181Y406801D01*
X272142Y406835D01*
X272109Y406875D01*
X272049Y406914D01*
X271994Y406961D01*
X271946Y406980D01*
X271902Y407008D01*
X271894Y407011D01*
X267071Y411833D01*
X267071Y418567D01*
X271833Y423329D01*
X272152Y423329D01*
X272172Y423332D01*
X272191Y423330D01*
X272293Y423352D01*
X272395Y423368D01*
X272412Y423378D01*
X272432Y423382D01*
X272521Y423435D01*
X272612Y423484D01*
X272626Y423498D01*
X272643Y423508D01*
X272710Y423587D01*
X272782Y423662D01*
X272790Y423680D01*
X272803Y423695D01*
X272842Y423791D01*
X272885Y423885D01*
X272887Y423905D01*
X272895Y423923D01*
X272913Y424090D01*
X272913Y460586D01*
X272894Y460701D01*
X272877Y460817D01*
X272875Y460822D01*
X272874Y460828D01*
X272819Y460931D01*
X272766Y461036D01*
X272761Y461040D01*
X272758Y461046D01*
X272674Y461126D01*
X272590Y461208D01*
X272584Y461212D01*
X272580Y461215D01*
X272563Y461223D01*
X272443Y461289D01*
X272395Y461309D01*
X270109Y463595D01*
X268871Y466583D01*
X268871Y469817D01*
X270109Y472805D01*
X272395Y475091D01*
X275383Y476329D01*
X278617Y476329D01*
X281605Y475091D01*
X283891Y472805D01*
X285129Y469817D01*
X285129Y466583D01*
X283891Y463595D01*
X281605Y461309D01*
X278617Y460071D01*
X278248Y460071D01*
X278228Y460068D01*
X278209Y460070D01*
X278107Y460048D01*
X278005Y460032D01*
X277988Y460022D01*
X277968Y460018D01*
X277879Y459965D01*
X277788Y459916D01*
X277774Y459902D01*
X277757Y459892D01*
X277690Y459813D01*
X277618Y459738D01*
X277610Y459720D01*
X277597Y459705D01*
X277558Y459609D01*
X277515Y459515D01*
X277513Y459495D01*
X277505Y459477D01*
X277487Y459310D01*
X277487Y424090D01*
X277490Y424070D01*
X277488Y424051D01*
X277510Y423949D01*
X277526Y423847D01*
X277536Y423830D01*
X277540Y423810D01*
X277593Y423721D01*
X277642Y423630D01*
X277656Y423616D01*
X277666Y423599D01*
X277745Y423532D01*
X277820Y423460D01*
X277838Y423452D01*
X277853Y423439D01*
X277949Y423400D01*
X278043Y423357D01*
X278063Y423355D01*
X278081Y423347D01*
X278248Y423329D01*
X278567Y423329D01*
X283329Y418567D01*
X283329Y411833D01*
X278567Y407071D01*
X278248Y407071D01*
X278228Y407068D01*
X278209Y407070D01*
X278107Y407048D01*
X278005Y407032D01*
X277988Y407022D01*
X277968Y407018D01*
X277879Y406965D01*
X277788Y406916D01*
X277774Y406902D01*
X277757Y406892D01*
X277690Y406813D01*
X277618Y406738D01*
X277610Y406720D01*
X277597Y406705D01*
X277558Y406609D01*
X277515Y406515D01*
X277513Y406495D01*
X277505Y406477D01*
X277487Y406310D01*
X277487Y404653D01*
X261222Y388388D01*
X261169Y388314D01*
X261109Y388244D01*
X261097Y388214D01*
X261078Y388188D01*
X261051Y388101D01*
X261017Y388016D01*
X261013Y387975D01*
X261006Y387953D01*
X261007Y387921D01*
X260999Y387849D01*
X260999Y384612D01*
X258188Y381801D01*
X254212Y381801D01*
G37*
%LPD*%
%LPC*%
G36*
X416633Y232671D02*
X416633Y232671D01*
X411871Y237433D01*
X411871Y244167D01*
X413590Y245886D01*
X413643Y245960D01*
X413703Y246029D01*
X413715Y246060D01*
X413734Y246086D01*
X413761Y246173D01*
X413795Y246258D01*
X413799Y246299D01*
X413806Y246321D01*
X413805Y246353D01*
X413813Y246424D01*
X413813Y264841D01*
X413794Y264956D01*
X413777Y265072D01*
X413775Y265077D01*
X413774Y265084D01*
X413719Y265186D01*
X413666Y265291D01*
X413661Y265296D01*
X413658Y265301D01*
X413574Y265381D01*
X413490Y265463D01*
X413484Y265467D01*
X413480Y265470D01*
X413463Y265478D01*
X413343Y265544D01*
X409769Y267025D01*
X406625Y270169D01*
X404923Y274277D01*
X404923Y278723D01*
X406625Y282831D01*
X409769Y285975D01*
X413877Y287677D01*
X418323Y287677D01*
X422431Y285975D01*
X425575Y282831D01*
X427277Y278723D01*
X427277Y274277D01*
X425575Y270169D01*
X422431Y267025D01*
X418857Y265544D01*
X418757Y265483D01*
X418657Y265423D01*
X418653Y265418D01*
X418648Y265415D01*
X418573Y265325D01*
X418497Y265236D01*
X418495Y265230D01*
X418491Y265225D01*
X418449Y265117D01*
X418405Y265008D01*
X418404Y265000D01*
X418403Y264996D01*
X418402Y264977D01*
X418387Y264841D01*
X418387Y249690D01*
X418390Y249670D01*
X418388Y249651D01*
X418410Y249549D01*
X418426Y249447D01*
X418436Y249430D01*
X418440Y249410D01*
X418493Y249321D01*
X418542Y249230D01*
X418556Y249216D01*
X418566Y249199D01*
X418645Y249132D01*
X418720Y249060D01*
X418738Y249052D01*
X418753Y249039D01*
X418849Y249000D01*
X418943Y248957D01*
X418963Y248955D01*
X418981Y248947D01*
X419148Y248929D01*
X423367Y248929D01*
X428129Y244167D01*
X428129Y237433D01*
X423367Y232671D01*
X416633Y232671D01*
G37*
%LPD*%
%LPC*%
G36*
X386133Y327171D02*
X386133Y327171D01*
X381371Y331933D01*
X381371Y338667D01*
X386133Y343429D01*
X392867Y343429D01*
X393093Y343203D01*
X393109Y343191D01*
X393121Y343176D01*
X393208Y343120D01*
X393292Y343060D01*
X393311Y343054D01*
X393328Y343043D01*
X393429Y343018D01*
X393527Y342987D01*
X393547Y342988D01*
X393567Y342983D01*
X393670Y342991D01*
X393773Y342994D01*
X393792Y343000D01*
X393812Y343002D01*
X393907Y343042D01*
X394004Y343078D01*
X394020Y343091D01*
X394038Y343098D01*
X394169Y343203D01*
X414290Y363324D01*
X414343Y363398D01*
X414403Y363468D01*
X414415Y363498D01*
X414434Y363524D01*
X414461Y363611D01*
X414495Y363696D01*
X414499Y363737D01*
X414506Y363759D01*
X414505Y363791D01*
X414513Y363863D01*
X414513Y372810D01*
X414510Y372830D01*
X414512Y372849D01*
X414490Y372951D01*
X414474Y373053D01*
X414464Y373070D01*
X414460Y373090D01*
X414407Y373179D01*
X414358Y373270D01*
X414344Y373284D01*
X414334Y373301D01*
X414255Y373368D01*
X414180Y373440D01*
X414162Y373448D01*
X414147Y373461D01*
X414051Y373500D01*
X413957Y373543D01*
X413937Y373545D01*
X413919Y373553D01*
X413752Y373571D01*
X413433Y373571D01*
X408671Y378333D01*
X408671Y385067D01*
X413433Y389829D01*
X420167Y389829D01*
X424929Y385067D01*
X424929Y378333D01*
X420167Y373571D01*
X419848Y373571D01*
X419828Y373568D01*
X419809Y373570D01*
X419707Y373548D01*
X419605Y373532D01*
X419588Y373522D01*
X419568Y373518D01*
X419479Y373465D01*
X419388Y373416D01*
X419374Y373402D01*
X419357Y373392D01*
X419290Y373313D01*
X419218Y373238D01*
X419210Y373220D01*
X419197Y373205D01*
X419158Y373109D01*
X419115Y373015D01*
X419113Y372995D01*
X419105Y372977D01*
X419087Y372810D01*
X419087Y361653D01*
X397403Y339969D01*
X397391Y339953D01*
X397376Y339941D01*
X397320Y339853D01*
X397260Y339769D01*
X397254Y339750D01*
X397243Y339734D01*
X397218Y339633D01*
X397187Y339534D01*
X397188Y339514D01*
X397183Y339495D01*
X397191Y339392D01*
X397194Y339289D01*
X397200Y339270D01*
X397202Y339250D01*
X397242Y339155D01*
X397278Y339057D01*
X397291Y339042D01*
X397298Y339024D01*
X397403Y338893D01*
X397629Y338667D01*
X397629Y331933D01*
X392867Y327171D01*
X386133Y327171D01*
G37*
%LPD*%
%LPC*%
G36*
X222133Y403871D02*
X222133Y403871D01*
X217371Y408633D01*
X217371Y415367D01*
X222133Y420129D01*
X227152Y420129D01*
X227172Y420132D01*
X227191Y420130D01*
X227293Y420152D01*
X227395Y420168D01*
X227412Y420178D01*
X227432Y420182D01*
X227521Y420235D01*
X227612Y420284D01*
X227626Y420298D01*
X227643Y420308D01*
X227710Y420387D01*
X227782Y420462D01*
X227790Y420480D01*
X227803Y420495D01*
X227842Y420591D01*
X227885Y420685D01*
X227887Y420705D01*
X227895Y420723D01*
X227913Y420890D01*
X227913Y447010D01*
X227910Y447030D01*
X227912Y447049D01*
X227890Y447150D01*
X227874Y447253D01*
X227864Y447270D01*
X227860Y447290D01*
X227807Y447379D01*
X227758Y447470D01*
X227744Y447484D01*
X227734Y447501D01*
X227655Y447568D01*
X227580Y447640D01*
X227562Y447648D01*
X227547Y447661D01*
X227451Y447700D01*
X227357Y447743D01*
X227337Y447745D01*
X227319Y447753D01*
X227152Y447771D01*
X226833Y447771D01*
X222071Y452533D01*
X222071Y459267D01*
X226833Y464029D01*
X233567Y464029D01*
X238329Y459267D01*
X238329Y452533D01*
X233567Y447771D01*
X233248Y447771D01*
X233228Y447768D01*
X233209Y447770D01*
X233107Y447748D01*
X233005Y447732D01*
X232988Y447722D01*
X232968Y447718D01*
X232879Y447665D01*
X232788Y447616D01*
X232774Y447602D01*
X232757Y447592D01*
X232690Y447513D01*
X232618Y447438D01*
X232610Y447420D01*
X232597Y447405D01*
X232558Y447309D01*
X232515Y447215D01*
X232513Y447195D01*
X232505Y447177D01*
X232487Y447010D01*
X232487Y416824D01*
X232501Y416734D01*
X232509Y416643D01*
X232521Y416614D01*
X232526Y416582D01*
X232569Y416501D01*
X232605Y416417D01*
X232631Y416385D01*
X232642Y416364D01*
X232665Y416342D01*
X232710Y416286D01*
X233629Y415367D01*
X233629Y408633D01*
X228867Y403871D01*
X222133Y403871D01*
G37*
%LPD*%
%LPC*%
G36*
X283012Y310201D02*
X283012Y310201D01*
X280201Y313012D01*
X280201Y317196D01*
X280206Y317212D01*
X280205Y317244D01*
X280213Y317315D01*
X280213Y351410D01*
X280210Y351430D01*
X280212Y351449D01*
X280190Y351551D01*
X280174Y351653D01*
X280164Y351670D01*
X280160Y351690D01*
X280107Y351779D01*
X280058Y351870D01*
X280044Y351884D01*
X280034Y351901D01*
X279955Y351968D01*
X279880Y352040D01*
X279862Y352048D01*
X279847Y352061D01*
X279751Y352100D01*
X279657Y352143D01*
X279637Y352145D01*
X279619Y352153D01*
X279452Y352171D01*
X279133Y352171D01*
X274371Y356933D01*
X274371Y363667D01*
X279133Y368429D01*
X285867Y368429D01*
X290629Y363667D01*
X290629Y356933D01*
X285867Y352171D01*
X285548Y352171D01*
X285528Y352168D01*
X285509Y352170D01*
X285407Y352148D01*
X285305Y352132D01*
X285288Y352122D01*
X285268Y352118D01*
X285179Y352065D01*
X285088Y352016D01*
X285074Y352002D01*
X285057Y351992D01*
X284990Y351913D01*
X284918Y351838D01*
X284910Y351820D01*
X284897Y351805D01*
X284858Y351709D01*
X284815Y351615D01*
X284813Y351595D01*
X284805Y351577D01*
X284787Y351410D01*
X284787Y320560D01*
X284790Y320540D01*
X284788Y320521D01*
X284810Y320419D01*
X284826Y320317D01*
X284836Y320300D01*
X284840Y320280D01*
X284893Y320191D01*
X284942Y320100D01*
X284956Y320086D01*
X284966Y320069D01*
X285045Y320002D01*
X285120Y319930D01*
X285138Y319922D01*
X285153Y319909D01*
X285249Y319870D01*
X285343Y319827D01*
X285363Y319825D01*
X285381Y319817D01*
X285548Y319799D01*
X286988Y319799D01*
X289799Y316988D01*
X289799Y313012D01*
X286988Y310201D01*
X283012Y310201D01*
G37*
%LPD*%
%LPC*%
G36*
X358012Y290201D02*
X358012Y290201D01*
X355201Y293012D01*
X355201Y296988D01*
X357490Y299277D01*
X357543Y299351D01*
X357603Y299420D01*
X357615Y299450D01*
X357634Y299476D01*
X357661Y299563D01*
X357695Y299648D01*
X357699Y299689D01*
X357706Y299712D01*
X357705Y299744D01*
X357713Y299815D01*
X357713Y329876D01*
X357708Y329906D01*
X357710Y329918D01*
X357698Y329971D01*
X357691Y330057D01*
X357679Y330086D01*
X357674Y330118D01*
X357661Y330142D01*
X357657Y330158D01*
X357626Y330211D01*
X357595Y330283D01*
X357569Y330315D01*
X357558Y330336D01*
X357542Y330352D01*
X357531Y330369D01*
X357515Y330383D01*
X357490Y330414D01*
X355971Y331933D01*
X355971Y338667D01*
X360733Y343429D01*
X367467Y343429D01*
X372229Y338667D01*
X372229Y331933D01*
X367467Y327171D01*
X363048Y327171D01*
X363028Y327168D01*
X363009Y327170D01*
X362907Y327148D01*
X362805Y327132D01*
X362788Y327122D01*
X362768Y327118D01*
X362679Y327065D01*
X362588Y327016D01*
X362574Y327002D01*
X362557Y326992D01*
X362490Y326913D01*
X362418Y326838D01*
X362410Y326820D01*
X362397Y326805D01*
X362358Y326709D01*
X362315Y326615D01*
X362313Y326595D01*
X362305Y326577D01*
X362287Y326410D01*
X362287Y299815D01*
X362301Y299725D01*
X362309Y299634D01*
X362321Y299604D01*
X362326Y299572D01*
X362369Y299492D01*
X362405Y299408D01*
X362431Y299376D01*
X362442Y299355D01*
X362465Y299333D01*
X362510Y299277D01*
X364799Y296988D01*
X364799Y293012D01*
X361988Y290201D01*
X358012Y290201D01*
G37*
%LPD*%
%LPC*%
G36*
X279177Y27423D02*
X279177Y27423D01*
X275069Y29125D01*
X271925Y32269D01*
X270223Y36377D01*
X270223Y40823D01*
X271925Y44931D01*
X275069Y48075D01*
X279177Y49777D01*
X283623Y49777D01*
X287731Y48075D01*
X290875Y44931D01*
X292577Y40823D01*
X292577Y36377D01*
X290875Y32269D01*
X287731Y29125D01*
X283623Y27423D01*
X279177Y27423D01*
G37*
%LPD*%
%LPC*%
G36*
X472527Y259977D02*
X472527Y259977D01*
X468513Y261640D01*
X465440Y264713D01*
X463777Y268727D01*
X463777Y273073D01*
X465440Y277087D01*
X468513Y280160D01*
X472527Y281823D01*
X476873Y281823D01*
X480887Y280160D01*
X483960Y277087D01*
X485623Y273073D01*
X485623Y268727D01*
X483960Y264713D01*
X480887Y261640D01*
X476873Y259977D01*
X472527Y259977D01*
G37*
%LPD*%
%LPC*%
G36*
X24427Y260477D02*
X24427Y260477D01*
X20413Y262140D01*
X17340Y265213D01*
X15677Y269227D01*
X15677Y273573D01*
X17340Y277587D01*
X20413Y280660D01*
X24427Y282323D01*
X28773Y282323D01*
X32787Y280660D01*
X35860Y277587D01*
X37523Y273573D01*
X37523Y269227D01*
X35860Y265213D01*
X32787Y262140D01*
X28773Y260477D01*
X24427Y260477D01*
G37*
%LPD*%
%LPC*%
G36*
X480427Y27777D02*
X480427Y27777D01*
X476413Y29440D01*
X473340Y32513D01*
X471677Y36527D01*
X471677Y40873D01*
X473340Y44887D01*
X476413Y47960D01*
X480427Y49623D01*
X484773Y49623D01*
X488787Y47960D01*
X491860Y44887D01*
X493523Y40873D01*
X493523Y36527D01*
X491860Y32513D01*
X488787Y29440D01*
X484773Y27777D01*
X480427Y27777D01*
G37*
%LPD*%
%LPC*%
G36*
X472527Y285377D02*
X472527Y285377D01*
X468513Y287040D01*
X465440Y290113D01*
X463777Y294127D01*
X463777Y298473D01*
X465440Y302487D01*
X468513Y305560D01*
X472527Y307223D01*
X476873Y307223D01*
X480887Y305560D01*
X483960Y302487D01*
X485623Y298473D01*
X485623Y294127D01*
X483960Y290113D01*
X480887Y287040D01*
X476873Y285377D01*
X472527Y285377D01*
G37*
%LPD*%
%LPC*%
G36*
X353427Y27777D02*
X353427Y27777D01*
X349413Y29440D01*
X346340Y32513D01*
X344677Y36527D01*
X344677Y40873D01*
X346340Y44887D01*
X349413Y47960D01*
X353427Y49623D01*
X357773Y49623D01*
X361787Y47960D01*
X364860Y44887D01*
X366523Y40873D01*
X366523Y36527D01*
X364860Y32513D01*
X361787Y29440D01*
X357773Y27777D01*
X353427Y27777D01*
G37*
%LPD*%
%LPC*%
G36*
X429627Y27777D02*
X429627Y27777D01*
X425613Y29440D01*
X422540Y32513D01*
X420877Y36527D01*
X420877Y40873D01*
X422540Y44887D01*
X425613Y47960D01*
X429627Y49623D01*
X433973Y49623D01*
X437987Y47960D01*
X441060Y44887D01*
X442723Y40873D01*
X442723Y36527D01*
X441060Y32513D01*
X437987Y29440D01*
X433973Y27777D01*
X429627Y27777D01*
G37*
%LPD*%
%LPC*%
G36*
X472527Y310777D02*
X472527Y310777D01*
X468513Y312440D01*
X465440Y315513D01*
X463777Y319527D01*
X463777Y323873D01*
X465440Y327887D01*
X468513Y330960D01*
X472527Y332623D01*
X476873Y332623D01*
X480887Y330960D01*
X483960Y327887D01*
X485623Y323873D01*
X485623Y319527D01*
X483960Y315513D01*
X480887Y312440D01*
X476873Y310777D01*
X472527Y310777D01*
G37*
%LPD*%
%LPC*%
G36*
X24427Y311277D02*
X24427Y311277D01*
X20413Y312940D01*
X17340Y316013D01*
X15677Y320027D01*
X15677Y324373D01*
X17340Y328387D01*
X20413Y331460D01*
X24427Y333123D01*
X28773Y333123D01*
X32787Y331460D01*
X35860Y328387D01*
X37523Y324373D01*
X37523Y320027D01*
X35860Y316013D01*
X32787Y312940D01*
X28773Y311277D01*
X24427Y311277D01*
G37*
%LPD*%
%LPC*%
G36*
X472527Y158377D02*
X472527Y158377D01*
X468513Y160040D01*
X465440Y163113D01*
X463777Y167127D01*
X463777Y171473D01*
X465440Y175487D01*
X468513Y178560D01*
X472527Y180223D01*
X476873Y180223D01*
X480887Y178560D01*
X483960Y175487D01*
X485623Y171473D01*
X485623Y167127D01*
X483960Y163113D01*
X480887Y160040D01*
X476873Y158377D01*
X472527Y158377D01*
G37*
%LPD*%
%LPC*%
G36*
X24427Y158877D02*
X24427Y158877D01*
X20413Y160540D01*
X17340Y163613D01*
X15677Y167627D01*
X15677Y171973D01*
X17340Y175987D01*
X20413Y179060D01*
X24427Y180723D01*
X28773Y180723D01*
X32787Y179060D01*
X35860Y175987D01*
X37523Y171973D01*
X37523Y167627D01*
X35860Y163613D01*
X32787Y160540D01*
X28773Y158877D01*
X24427Y158877D01*
G37*
%LPD*%
%LPC*%
G36*
X24427Y285877D02*
X24427Y285877D01*
X20413Y287540D01*
X17340Y290613D01*
X15677Y294627D01*
X15677Y298973D01*
X17340Y302987D01*
X20413Y306060D01*
X24427Y307723D01*
X28773Y307723D01*
X32787Y306060D01*
X35860Y302987D01*
X37523Y298973D01*
X37523Y294627D01*
X35860Y290613D01*
X32787Y287540D01*
X28773Y285877D01*
X24427Y285877D01*
G37*
%LPD*%
%LPC*%
G36*
X472527Y183777D02*
X472527Y183777D01*
X468513Y185440D01*
X465440Y188513D01*
X463777Y192527D01*
X463777Y196873D01*
X465440Y200887D01*
X468513Y203960D01*
X472527Y205623D01*
X476873Y205623D01*
X480887Y203960D01*
X483960Y200887D01*
X485623Y196873D01*
X485623Y192527D01*
X483960Y188513D01*
X480887Y185440D01*
X476873Y183777D01*
X472527Y183777D01*
G37*
%LPD*%
%LPC*%
G36*
X24427Y184277D02*
X24427Y184277D01*
X20413Y185940D01*
X17340Y189013D01*
X15677Y193027D01*
X15677Y197373D01*
X17340Y201387D01*
X20413Y204460D01*
X24427Y206123D01*
X28773Y206123D01*
X32787Y204460D01*
X35860Y201387D01*
X37523Y197373D01*
X37523Y193027D01*
X35860Y189013D01*
X32787Y185940D01*
X28773Y184277D01*
X24427Y184277D01*
G37*
%LPD*%
%LPC*%
G36*
X472527Y209177D02*
X472527Y209177D01*
X468513Y210840D01*
X465440Y213913D01*
X463777Y217927D01*
X463777Y222273D01*
X465440Y226287D01*
X468513Y229360D01*
X472527Y231023D01*
X476873Y231023D01*
X480887Y229360D01*
X483960Y226287D01*
X485623Y222273D01*
X485623Y217927D01*
X483960Y213913D01*
X480887Y210840D01*
X476873Y209177D01*
X472527Y209177D01*
G37*
%LPD*%
%LPC*%
G36*
X24427Y209677D02*
X24427Y209677D01*
X20413Y211340D01*
X17340Y214413D01*
X15677Y218427D01*
X15677Y222773D01*
X17340Y226787D01*
X20413Y229860D01*
X24427Y231523D01*
X28773Y231523D01*
X32787Y229860D01*
X35860Y226787D01*
X37523Y222773D01*
X37523Y218427D01*
X35860Y214413D01*
X32787Y211340D01*
X28773Y209677D01*
X24427Y209677D01*
G37*
%LPD*%
%LPC*%
G36*
X472527Y234577D02*
X472527Y234577D01*
X468513Y236240D01*
X465440Y239313D01*
X463777Y243327D01*
X463777Y247673D01*
X465440Y251687D01*
X468513Y254760D01*
X472527Y256423D01*
X476873Y256423D01*
X480887Y254760D01*
X483960Y251687D01*
X485623Y247673D01*
X485623Y243327D01*
X483960Y239313D01*
X480887Y236240D01*
X476873Y234577D01*
X472527Y234577D01*
G37*
%LPD*%
%LPC*%
G36*
X24427Y235077D02*
X24427Y235077D01*
X20413Y236740D01*
X17340Y239813D01*
X15677Y243827D01*
X15677Y248173D01*
X17340Y252187D01*
X20413Y255260D01*
X24427Y256923D01*
X28773Y256923D01*
X32787Y255260D01*
X35860Y252187D01*
X37523Y248173D01*
X37523Y243827D01*
X35860Y239813D01*
X32787Y236740D01*
X28773Y235077D01*
X24427Y235077D01*
G37*
%LPD*%
%LPC*%
G36*
X455027Y27777D02*
X455027Y27777D01*
X451013Y29440D01*
X447940Y32513D01*
X446277Y36527D01*
X446277Y40873D01*
X447940Y44887D01*
X451013Y47960D01*
X455027Y49623D01*
X459373Y49623D01*
X463387Y47960D01*
X466460Y44887D01*
X468123Y40873D01*
X468123Y36527D01*
X466460Y32513D01*
X463387Y29440D01*
X459373Y27777D01*
X455027Y27777D01*
G37*
%LPD*%
%LPC*%
G36*
X60881Y465550D02*
X60881Y465550D01*
X57151Y467095D01*
X54295Y469951D01*
X52750Y473681D01*
X52750Y477719D01*
X54295Y481449D01*
X57151Y484305D01*
X60881Y485850D01*
X64919Y485850D01*
X68649Y484305D01*
X71505Y481449D01*
X73050Y477719D01*
X73050Y473681D01*
X71505Y469951D01*
X68649Y467095D01*
X64919Y465550D01*
X60881Y465550D01*
G37*
%LPD*%
%LPC*%
G36*
X130881Y465550D02*
X130881Y465550D01*
X127151Y467095D01*
X124295Y469951D01*
X122750Y473681D01*
X122750Y477719D01*
X124295Y481449D01*
X127151Y484305D01*
X130881Y485850D01*
X134919Y485850D01*
X138649Y484305D01*
X141505Y481449D01*
X143050Y477719D01*
X143050Y473681D01*
X141505Y469951D01*
X138649Y467095D01*
X134919Y465550D01*
X130881Y465550D01*
G37*
%LPD*%
%LPC*%
G36*
X79768Y466675D02*
X79768Y466675D01*
X78875Y467568D01*
X78875Y483832D01*
X79768Y484725D01*
X96032Y484725D01*
X96925Y483832D01*
X96925Y467568D01*
X96032Y466675D01*
X79768Y466675D01*
G37*
%LPD*%
%LPC*%
G36*
X99768Y466675D02*
X99768Y466675D01*
X98875Y467568D01*
X98875Y483832D01*
X99768Y484725D01*
X116032Y484725D01*
X116925Y483832D01*
X116925Y467568D01*
X116032Y466675D01*
X99768Y466675D01*
G37*
%LPD*%
%LPC*%
G36*
X82566Y439409D02*
X82566Y439409D01*
X81919Y439582D01*
X81340Y439917D01*
X80867Y440390D01*
X80532Y440969D01*
X80359Y441616D01*
X80359Y442563D01*
X80357Y442574D01*
X80358Y442583D01*
X80349Y442625D01*
X80348Y442633D01*
X80346Y442705D01*
X80328Y442754D01*
X80320Y442805D01*
X80286Y442869D01*
X80261Y442936D01*
X80229Y442977D01*
X80204Y443023D01*
X80152Y443072D01*
X80108Y443128D01*
X80064Y443156D01*
X80026Y443192D01*
X79961Y443222D01*
X79901Y443261D01*
X79850Y443274D01*
X79803Y443296D01*
X79732Y443304D01*
X79662Y443321D01*
X79610Y443317D01*
X79559Y443323D01*
X79488Y443308D01*
X79417Y443302D01*
X79369Y443282D01*
X79318Y443271D01*
X79257Y443234D01*
X79191Y443206D01*
X79135Y443161D01*
X79107Y443144D01*
X79092Y443127D01*
X79060Y443101D01*
X77610Y441651D01*
X74554Y440385D01*
X71246Y440385D01*
X68190Y441651D01*
X65851Y443990D01*
X64585Y447046D01*
X64585Y450354D01*
X65851Y453410D01*
X68190Y455749D01*
X71246Y457015D01*
X74554Y457015D01*
X77610Y455749D01*
X79060Y454299D01*
X79118Y454257D01*
X79170Y454208D01*
X79217Y454186D01*
X79259Y454156D01*
X79328Y454134D01*
X79393Y454104D01*
X79445Y454099D01*
X79495Y454083D01*
X79566Y454085D01*
X79637Y454077D01*
X79688Y454088D01*
X79740Y454090D01*
X79808Y454114D01*
X79878Y454129D01*
X79923Y454156D01*
X79971Y454174D01*
X80027Y454219D01*
X80089Y454256D01*
X80123Y454295D01*
X80163Y454328D01*
X80202Y454388D01*
X80249Y454442D01*
X80268Y454491D01*
X80296Y454535D01*
X80314Y454604D01*
X80341Y454671D01*
X80349Y454742D01*
X80357Y454773D01*
X80355Y454796D01*
X80359Y454837D01*
X80359Y455784D01*
X80532Y456431D01*
X80867Y457010D01*
X81340Y457483D01*
X81919Y457818D01*
X82566Y457991D01*
X83901Y457991D01*
X83901Y448938D01*
X83904Y448919D01*
X83902Y448899D01*
X83924Y448797D01*
X83940Y448695D01*
X83941Y448694D01*
X83929Y448667D01*
X83927Y448647D01*
X83919Y448629D01*
X83901Y448462D01*
X83901Y439409D01*
X82566Y439409D01*
G37*
%LPD*%
%LPC*%
G36*
X166597Y392335D02*
X166597Y392335D01*
X163265Y393715D01*
X160715Y396265D01*
X159335Y399597D01*
X159335Y403203D01*
X160715Y406535D01*
X163265Y409085D01*
X166597Y410465D01*
X170203Y410465D01*
X173535Y409085D01*
X176085Y406535D01*
X177465Y403203D01*
X177465Y399597D01*
X176085Y396265D01*
X173535Y393715D01*
X170203Y392335D01*
X166597Y392335D01*
G37*
%LPD*%
%LPC*%
G36*
X166597Y472335D02*
X166597Y472335D01*
X163265Y473715D01*
X160715Y476265D01*
X159335Y479597D01*
X159335Y483203D01*
X160715Y486535D01*
X163265Y489085D01*
X166597Y490465D01*
X170203Y490465D01*
X173535Y489085D01*
X176085Y486535D01*
X177465Y483203D01*
X177465Y479597D01*
X176085Y476265D01*
X173535Y473715D01*
X170203Y472335D01*
X166597Y472335D01*
G37*
%LPD*%
%LPC*%
G36*
X307633Y25571D02*
X307633Y25571D01*
X302871Y30333D01*
X302871Y37067D01*
X307633Y41829D01*
X314367Y41829D01*
X319129Y37067D01*
X319129Y30333D01*
X314367Y25571D01*
X307633Y25571D01*
G37*
%LPD*%
%LPC*%
G36*
X368433Y371571D02*
X368433Y371571D01*
X363671Y376333D01*
X363671Y383067D01*
X368433Y387829D01*
X375167Y387829D01*
X379929Y383067D01*
X379929Y376333D01*
X375167Y371571D01*
X368433Y371571D01*
G37*
%LPD*%
%LPC*%
G36*
X304533Y352171D02*
X304533Y352171D01*
X299771Y356933D01*
X299771Y363667D01*
X304533Y368429D01*
X311267Y368429D01*
X316029Y363667D01*
X316029Y356933D01*
X311267Y352171D01*
X304533Y352171D01*
G37*
%LPD*%
%LPC*%
G36*
X166796Y413335D02*
X166796Y413335D01*
X163832Y414563D01*
X161563Y416832D01*
X160335Y419796D01*
X160335Y423004D01*
X161563Y425968D01*
X163832Y428237D01*
X166796Y429465D01*
X170004Y429465D01*
X172968Y428237D01*
X175237Y425968D01*
X176465Y423004D01*
X176465Y419796D01*
X175237Y416832D01*
X172968Y414563D01*
X170004Y413335D01*
X166796Y413335D01*
G37*
%LPD*%
%LPC*%
G36*
X166796Y453335D02*
X166796Y453335D01*
X163832Y454563D01*
X161563Y456832D01*
X160335Y459796D01*
X160335Y463004D01*
X161563Y465968D01*
X163832Y468237D01*
X166796Y469465D01*
X170004Y469465D01*
X172968Y468237D01*
X175237Y465968D01*
X176465Y463004D01*
X176465Y459796D01*
X175237Y456832D01*
X172968Y454563D01*
X170004Y453335D01*
X166796Y453335D01*
G37*
%LPD*%
%LPC*%
G36*
X366823Y278023D02*
X366823Y278023D01*
X366823Y288603D01*
X368155Y288393D01*
X369980Y287799D01*
X371690Y286928D01*
X373243Y285800D01*
X374600Y284443D01*
X375728Y282890D01*
X376599Y281180D01*
X377193Y279355D01*
X377403Y278023D01*
X366823Y278023D01*
G37*
%LPD*%
%LPC*%
G36*
X232123Y40123D02*
X232123Y40123D01*
X232123Y50703D01*
X233455Y50493D01*
X235280Y49899D01*
X236990Y49028D01*
X238543Y47900D01*
X239900Y46543D01*
X241028Y44990D01*
X241899Y43280D01*
X242493Y41455D01*
X242703Y40123D01*
X232123Y40123D01*
G37*
%LPD*%
%LPC*%
G36*
X353197Y278023D02*
X353197Y278023D01*
X353407Y279355D01*
X354001Y281180D01*
X354872Y282890D01*
X356000Y284443D01*
X357357Y285800D01*
X358910Y286928D01*
X360620Y287799D01*
X362445Y288393D01*
X363777Y288603D01*
X363777Y278023D01*
X353197Y278023D01*
G37*
%LPD*%
%LPC*%
G36*
X218497Y40123D02*
X218497Y40123D01*
X218707Y41455D01*
X219301Y43280D01*
X220172Y44990D01*
X221300Y46543D01*
X222657Y47900D01*
X224210Y49028D01*
X225920Y49899D01*
X227745Y50493D01*
X229077Y50703D01*
X229077Y40123D01*
X218497Y40123D01*
G37*
%LPD*%
%LPC*%
G36*
X232123Y37077D02*
X232123Y37077D01*
X242703Y37077D01*
X242493Y35745D01*
X241899Y33920D01*
X241028Y32210D01*
X239900Y30657D01*
X238543Y29300D01*
X236990Y28172D01*
X235280Y27301D01*
X233455Y26707D01*
X232123Y26497D01*
X232123Y37077D01*
G37*
%LPD*%
%LPC*%
G36*
X366823Y274977D02*
X366823Y274977D01*
X377403Y274977D01*
X377193Y273645D01*
X376599Y271820D01*
X375728Y270110D01*
X374600Y268557D01*
X373243Y267200D01*
X371690Y266072D01*
X369980Y265201D01*
X368155Y264607D01*
X366823Y264397D01*
X366823Y274977D01*
G37*
%LPD*%
%LPC*%
G36*
X362445Y264607D02*
X362445Y264607D01*
X360620Y265201D01*
X358910Y266072D01*
X357357Y267200D01*
X356000Y268557D01*
X354872Y270110D01*
X354001Y271820D01*
X353407Y273645D01*
X353197Y274977D01*
X363777Y274977D01*
X363777Y264397D01*
X362445Y264607D01*
G37*
%LPD*%
%LPC*%
G36*
X227745Y26707D02*
X227745Y26707D01*
X225920Y27301D01*
X224210Y28172D01*
X222657Y29300D01*
X221300Y30657D01*
X220172Y32210D01*
X219301Y33920D01*
X218707Y35745D01*
X218497Y37077D01*
X229077Y37077D01*
X229077Y26497D01*
X227745Y26707D01*
G37*
%LPD*%
%LPC*%
G36*
X304423Y277823D02*
X304423Y277823D01*
X304423Y288146D01*
X305696Y287945D01*
X307483Y287364D01*
X309157Y286511D01*
X310678Y285406D01*
X312006Y284078D01*
X313111Y282557D01*
X313964Y280883D01*
X314545Y279096D01*
X314746Y277823D01*
X304423Y277823D01*
G37*
%LPD*%
%LPC*%
G36*
X407923Y40223D02*
X407923Y40223D01*
X407923Y50546D01*
X409196Y50345D01*
X410983Y49764D01*
X412657Y48911D01*
X414178Y47806D01*
X415506Y46478D01*
X416611Y44957D01*
X417464Y43283D01*
X418045Y41496D01*
X418246Y40223D01*
X407923Y40223D01*
G37*
%LPD*%
%LPC*%
G36*
X476223Y348623D02*
X476223Y348623D01*
X476223Y358946D01*
X477496Y358745D01*
X479283Y358164D01*
X480957Y357311D01*
X482478Y356206D01*
X483806Y354878D01*
X484911Y353357D01*
X485764Y351683D01*
X486345Y349896D01*
X486546Y348623D01*
X476223Y348623D01*
G37*
%LPD*%
%LPC*%
G36*
X28123Y349123D02*
X28123Y349123D01*
X28123Y359446D01*
X29396Y359245D01*
X31183Y358664D01*
X32857Y357811D01*
X34378Y356706D01*
X35706Y355378D01*
X36811Y353857D01*
X37664Y352183D01*
X38245Y350396D01*
X38446Y349123D01*
X28123Y349123D01*
G37*
%LPD*%
%LPC*%
G36*
X407923Y37177D02*
X407923Y37177D01*
X418246Y37177D01*
X418045Y35904D01*
X417464Y34117D01*
X416611Y32443D01*
X415506Y30922D01*
X414178Y29594D01*
X412657Y28489D01*
X410983Y27636D01*
X409196Y27055D01*
X407923Y26854D01*
X407923Y37177D01*
G37*
%LPD*%
%LPC*%
G36*
X476223Y345577D02*
X476223Y345577D01*
X486546Y345577D01*
X486345Y344304D01*
X485764Y342517D01*
X484911Y340843D01*
X483806Y339322D01*
X482478Y337994D01*
X480957Y336889D01*
X479283Y336036D01*
X477496Y335455D01*
X476223Y335254D01*
X476223Y345577D01*
G37*
%LPD*%
%LPC*%
G36*
X28123Y346077D02*
X28123Y346077D01*
X38446Y346077D01*
X38245Y344804D01*
X37664Y343017D01*
X36811Y341343D01*
X35706Y339822D01*
X34378Y338494D01*
X32857Y337389D01*
X31183Y336536D01*
X29396Y335955D01*
X28123Y335754D01*
X28123Y346077D01*
G37*
%LPD*%
%LPC*%
G36*
X291054Y277823D02*
X291054Y277823D01*
X291255Y279096D01*
X291836Y280883D01*
X292689Y282557D01*
X293794Y284078D01*
X295122Y285406D01*
X296643Y286511D01*
X298317Y287364D01*
X300104Y287945D01*
X301377Y288146D01*
X301377Y277823D01*
X291054Y277823D01*
G37*
%LPD*%
%LPC*%
G36*
X394554Y40223D02*
X394554Y40223D01*
X394755Y41496D01*
X395336Y43283D01*
X396189Y44957D01*
X397294Y46478D01*
X398622Y47806D01*
X400143Y48911D01*
X401817Y49764D01*
X403604Y50345D01*
X404877Y50546D01*
X404877Y40223D01*
X394554Y40223D01*
G37*
%LPD*%
%LPC*%
G36*
X462854Y348623D02*
X462854Y348623D01*
X463055Y349896D01*
X463636Y351683D01*
X464489Y353357D01*
X465594Y354878D01*
X466922Y356206D01*
X468443Y357311D01*
X470117Y358164D01*
X471904Y358745D01*
X473177Y358946D01*
X473177Y348623D01*
X462854Y348623D01*
G37*
%LPD*%
%LPC*%
G36*
X304423Y274777D02*
X304423Y274777D01*
X314746Y274777D01*
X314545Y273504D01*
X313964Y271717D01*
X313111Y270043D01*
X312006Y268522D01*
X310678Y267194D01*
X309157Y266089D01*
X307483Y265236D01*
X305696Y264655D01*
X304423Y264454D01*
X304423Y274777D01*
G37*
%LPD*%
%LPC*%
G36*
X14754Y349123D02*
X14754Y349123D01*
X14955Y350396D01*
X15536Y352183D01*
X16389Y353857D01*
X17494Y355378D01*
X18822Y356706D01*
X20343Y357811D01*
X22017Y358664D01*
X23804Y359245D01*
X25077Y359446D01*
X25077Y349123D01*
X14754Y349123D01*
G37*
%LPD*%
%LPC*%
G36*
X403604Y27055D02*
X403604Y27055D01*
X401817Y27636D01*
X400143Y28489D01*
X398622Y29594D01*
X397294Y30922D01*
X396189Y32443D01*
X395336Y34117D01*
X394755Y35904D01*
X394554Y37177D01*
X404877Y37177D01*
X404877Y26854D01*
X403604Y27055D01*
G37*
%LPD*%
%LPC*%
G36*
X471904Y335455D02*
X471904Y335455D01*
X470117Y336036D01*
X468443Y336889D01*
X466922Y337994D01*
X465594Y339322D01*
X464489Y340843D01*
X463636Y342517D01*
X463055Y344304D01*
X462854Y345577D01*
X473177Y345577D01*
X473177Y335254D01*
X471904Y335455D01*
G37*
%LPD*%
%LPC*%
G36*
X23804Y335955D02*
X23804Y335955D01*
X22017Y336536D01*
X20343Y337389D01*
X18822Y338494D01*
X17494Y339822D01*
X16389Y341343D01*
X15536Y343017D01*
X14955Y344804D01*
X14754Y346077D01*
X25077Y346077D01*
X25077Y335754D01*
X23804Y335955D01*
G37*
%LPD*%
%LPC*%
G36*
X300104Y264655D02*
X300104Y264655D01*
X298317Y265236D01*
X296643Y266089D01*
X295122Y267194D01*
X293794Y268522D01*
X292689Y270043D01*
X291836Y271717D01*
X291255Y273504D01*
X291054Y274777D01*
X301377Y274777D01*
X301377Y264454D01*
X300104Y264655D01*
G37*
%LPD*%
%LPC*%
G36*
X418323Y484823D02*
X418323Y484823D01*
X418323Y492445D01*
X420588Y492445D01*
X425945Y487088D01*
X425945Y484823D01*
X418323Y484823D01*
G37*
%LPD*%
%LPC*%
G36*
X231723Y482823D02*
X231723Y482823D01*
X231723Y490445D01*
X233988Y490445D01*
X239345Y485088D01*
X239345Y482823D01*
X231723Y482823D01*
G37*
%LPD*%
%LPC*%
G36*
X373323Y482823D02*
X373323Y482823D01*
X373323Y490445D01*
X375588Y490445D01*
X380945Y485088D01*
X380945Y482823D01*
X373323Y482823D01*
G37*
%LPD*%
%LPC*%
G36*
X315123Y211723D02*
X315123Y211723D01*
X315123Y219345D01*
X317388Y219345D01*
X322745Y213988D01*
X322745Y211723D01*
X315123Y211723D01*
G37*
%LPD*%
%LPC*%
G36*
X61223Y209023D02*
X61223Y209023D01*
X61223Y216645D01*
X63488Y216645D01*
X68845Y211288D01*
X68845Y209023D01*
X61223Y209023D01*
G37*
%LPD*%
%LPC*%
G36*
X302123Y416723D02*
X302123Y416723D01*
X302123Y424345D01*
X304388Y424345D01*
X309745Y418988D01*
X309745Y416723D01*
X302123Y416723D01*
G37*
%LPD*%
%LPC*%
G36*
X329323Y469723D02*
X329323Y469723D01*
X329323Y477345D01*
X331588Y477345D01*
X336945Y471988D01*
X336945Y469723D01*
X329323Y469723D01*
G37*
%LPD*%
%LPC*%
G36*
X207973Y400823D02*
X207973Y400823D01*
X207973Y408445D01*
X210238Y408445D01*
X215595Y403088D01*
X215595Y400823D01*
X207973Y400823D01*
G37*
%LPD*%
%LPC*%
G36*
X111523Y158823D02*
X111523Y158823D01*
X111523Y166445D01*
X113788Y166445D01*
X119145Y161088D01*
X119145Y158823D01*
X111523Y158823D01*
G37*
%LPD*%
%LPC*%
G36*
X191723Y94423D02*
X191723Y94423D01*
X191723Y102045D01*
X193988Y102045D01*
X199345Y96688D01*
X199345Y94423D01*
X191723Y94423D01*
G37*
%LPD*%
%LPC*%
G36*
X291455Y416723D02*
X291455Y416723D01*
X291455Y418988D01*
X296812Y424345D01*
X299077Y424345D01*
X299077Y416723D01*
X291455Y416723D01*
G37*
%LPD*%
%LPC*%
G36*
X304455Y211723D02*
X304455Y211723D01*
X304455Y213988D01*
X309812Y219345D01*
X312077Y219345D01*
X312077Y211723D01*
X304455Y211723D01*
G37*
%LPD*%
%LPC*%
G36*
X50555Y209023D02*
X50555Y209023D01*
X50555Y211288D01*
X55912Y216645D01*
X58177Y216645D01*
X58177Y209023D01*
X50555Y209023D01*
G37*
%LPD*%
%LPC*%
G36*
X318655Y469723D02*
X318655Y469723D01*
X318655Y471988D01*
X324012Y477345D01*
X326277Y477345D01*
X326277Y469723D01*
X318655Y469723D01*
G37*
%LPD*%
%LPC*%
G36*
X407655Y484823D02*
X407655Y484823D01*
X407655Y487088D01*
X413012Y492445D01*
X415277Y492445D01*
X415277Y484823D01*
X407655Y484823D01*
G37*
%LPD*%
%LPC*%
G36*
X362655Y482823D02*
X362655Y482823D01*
X362655Y485088D01*
X368012Y490445D01*
X370277Y490445D01*
X370277Y482823D01*
X362655Y482823D01*
G37*
%LPD*%
%LPC*%
G36*
X221055Y482823D02*
X221055Y482823D01*
X221055Y485088D01*
X226412Y490445D01*
X228677Y490445D01*
X228677Y482823D01*
X221055Y482823D01*
G37*
%LPD*%
%LPC*%
G36*
X418323Y474155D02*
X418323Y474155D01*
X418323Y481777D01*
X425945Y481777D01*
X425945Y479512D01*
X420588Y474155D01*
X418323Y474155D01*
G37*
%LPD*%
%LPC*%
G36*
X207973Y390155D02*
X207973Y390155D01*
X207973Y397777D01*
X215595Y397777D01*
X215595Y395512D01*
X210238Y390155D01*
X207973Y390155D01*
G37*
%LPD*%
%LPC*%
G36*
X231723Y472155D02*
X231723Y472155D01*
X231723Y479777D01*
X239345Y479777D01*
X239345Y477512D01*
X233988Y472155D01*
X231723Y472155D01*
G37*
%LPD*%
%LPC*%
G36*
X170655Y326623D02*
X170655Y326623D01*
X170655Y328888D01*
X176012Y334245D01*
X178277Y334245D01*
X178277Y326623D01*
X170655Y326623D01*
G37*
%LPD*%
%LPC*%
G36*
X191723Y83755D02*
X191723Y83755D01*
X191723Y91377D01*
X199345Y91377D01*
X199345Y89112D01*
X193988Y83755D01*
X191723Y83755D01*
G37*
%LPD*%
%LPC*%
G36*
X197305Y400823D02*
X197305Y400823D01*
X197305Y403088D01*
X202662Y408445D01*
X204927Y408445D01*
X204927Y400823D01*
X197305Y400823D01*
G37*
%LPD*%
%LPC*%
G36*
X302123Y406055D02*
X302123Y406055D01*
X302123Y413677D01*
X309745Y413677D01*
X309745Y411412D01*
X304388Y406055D01*
X302123Y406055D01*
G37*
%LPD*%
%LPC*%
G36*
X315123Y201055D02*
X315123Y201055D01*
X315123Y208677D01*
X322745Y208677D01*
X322745Y206412D01*
X317388Y201055D01*
X315123Y201055D01*
G37*
%LPD*%
%LPC*%
G36*
X100855Y158823D02*
X100855Y158823D01*
X100855Y161088D01*
X106212Y166445D01*
X108477Y166445D01*
X108477Y158823D01*
X100855Y158823D01*
G37*
%LPD*%
%LPC*%
G36*
X111523Y148155D02*
X111523Y148155D01*
X111523Y155777D01*
X119145Y155777D01*
X119145Y153512D01*
X113788Y148155D01*
X111523Y148155D01*
G37*
%LPD*%
%LPC*%
G36*
X181055Y94423D02*
X181055Y94423D01*
X181055Y96688D01*
X186412Y102045D01*
X188677Y102045D01*
X188677Y94423D01*
X181055Y94423D01*
G37*
%LPD*%
%LPC*%
G36*
X329323Y459055D02*
X329323Y459055D01*
X329323Y466677D01*
X336945Y466677D01*
X336945Y464412D01*
X331588Y459055D01*
X329323Y459055D01*
G37*
%LPD*%
%LPC*%
G36*
X373323Y472155D02*
X373323Y472155D01*
X373323Y479777D01*
X380945Y479777D01*
X380945Y477512D01*
X375588Y472155D01*
X373323Y472155D01*
G37*
%LPD*%
%LPC*%
G36*
X61223Y198355D02*
X61223Y198355D01*
X61223Y205977D01*
X68845Y205977D01*
X68845Y203712D01*
X63488Y198355D01*
X61223Y198355D01*
G37*
%LPD*%
%LPC*%
G36*
X106212Y148155D02*
X106212Y148155D01*
X100855Y153512D01*
X100855Y155777D01*
X108477Y155777D01*
X108477Y148155D01*
X106212Y148155D01*
G37*
%LPD*%
%LPC*%
G36*
X202662Y390155D02*
X202662Y390155D01*
X197305Y395512D01*
X197305Y397777D01*
X204927Y397777D01*
X204927Y390155D01*
X202662Y390155D01*
G37*
%LPD*%
%LPC*%
G36*
X176012Y315955D02*
X176012Y315955D01*
X170655Y321312D01*
X170655Y323577D01*
X178277Y323577D01*
X178277Y315955D01*
X176012Y315955D01*
G37*
%LPD*%
%LPC*%
G36*
X186412Y83755D02*
X186412Y83755D01*
X181055Y89112D01*
X181055Y91377D01*
X188677Y91377D01*
X188677Y83755D01*
X186412Y83755D01*
G37*
%LPD*%
%LPC*%
G36*
X226412Y472155D02*
X226412Y472155D01*
X221055Y477512D01*
X221055Y479777D01*
X228677Y479777D01*
X228677Y472155D01*
X226412Y472155D01*
G37*
%LPD*%
%LPC*%
G36*
X368012Y472155D02*
X368012Y472155D01*
X362655Y477512D01*
X362655Y479777D01*
X370277Y479777D01*
X370277Y472155D01*
X368012Y472155D01*
G37*
%LPD*%
%LPC*%
G36*
X413012Y474155D02*
X413012Y474155D01*
X407655Y479512D01*
X407655Y481777D01*
X415277Y481777D01*
X415277Y474155D01*
X413012Y474155D01*
G37*
%LPD*%
%LPC*%
G36*
X296812Y406055D02*
X296812Y406055D01*
X291455Y411412D01*
X291455Y413677D01*
X299077Y413677D01*
X299077Y406055D01*
X296812Y406055D01*
G37*
%LPD*%
%LPC*%
G36*
X309812Y201055D02*
X309812Y201055D01*
X304455Y206412D01*
X304455Y208677D01*
X312077Y208677D01*
X312077Y201055D01*
X309812Y201055D01*
G37*
%LPD*%
%LPC*%
G36*
X324012Y459055D02*
X324012Y459055D01*
X318655Y464412D01*
X318655Y466677D01*
X326277Y466677D01*
X326277Y459055D01*
X324012Y459055D01*
G37*
%LPD*%
%LPC*%
G36*
X55912Y198355D02*
X55912Y198355D01*
X50555Y203712D01*
X50555Y205977D01*
X58177Y205977D01*
X58177Y198355D01*
X55912Y198355D01*
G37*
%LPD*%
%LPC*%
G36*
X59699Y207499D02*
X59699Y207499D01*
X59699Y207501D01*
X59701Y207501D01*
X59701Y207499D01*
X59699Y207499D01*
G37*
%LPD*%
%LPC*%
G36*
X109999Y157299D02*
X109999Y157299D01*
X109999Y157301D01*
X110001Y157301D01*
X110001Y157299D01*
X109999Y157299D01*
G37*
%LPD*%
%LPC*%
G36*
X206449Y399299D02*
X206449Y399299D01*
X206449Y399301D01*
X206451Y399301D01*
X206451Y399299D01*
X206449Y399299D01*
G37*
%LPD*%
%LPC*%
G36*
X190199Y92899D02*
X190199Y92899D01*
X190199Y92901D01*
X190201Y92901D01*
X190201Y92899D01*
X190199Y92899D01*
G37*
%LPD*%
%LPC*%
G36*
X302899Y276299D02*
X302899Y276299D01*
X302899Y276301D01*
X302901Y276301D01*
X302901Y276299D01*
X302899Y276299D01*
G37*
%LPD*%
%LPC*%
G36*
X371799Y481299D02*
X371799Y481299D01*
X371799Y481301D01*
X371801Y481301D01*
X371801Y481299D01*
X371799Y481299D01*
G37*
%LPD*%
%LPC*%
G36*
X365299Y276499D02*
X365299Y276499D01*
X365299Y276501D01*
X365301Y276501D01*
X365301Y276499D01*
X365299Y276499D01*
G37*
%LPD*%
%LPC*%
G36*
X26599Y347599D02*
X26599Y347599D01*
X26599Y347601D01*
X26601Y347601D01*
X26601Y347599D01*
X26599Y347599D01*
G37*
%LPD*%
%LPC*%
G36*
X300599Y415199D02*
X300599Y415199D01*
X300599Y415201D01*
X300601Y415201D01*
X300601Y415199D01*
X300599Y415199D01*
G37*
%LPD*%
%LPC*%
G36*
X327799Y468199D02*
X327799Y468199D01*
X327799Y468201D01*
X327801Y468201D01*
X327801Y468199D01*
X327799Y468199D01*
G37*
%LPD*%
%LPC*%
G36*
X230199Y481299D02*
X230199Y481299D01*
X230199Y481301D01*
X230201Y481301D01*
X230201Y481299D01*
X230199Y481299D01*
G37*
%LPD*%
%LPC*%
G36*
X474699Y347099D02*
X474699Y347099D01*
X474699Y347101D01*
X474701Y347101D01*
X474701Y347099D01*
X474699Y347099D01*
G37*
%LPD*%
%LPC*%
G36*
X406399Y38699D02*
X406399Y38699D01*
X406399Y38701D01*
X406401Y38701D01*
X406401Y38699D01*
X406399Y38699D01*
G37*
%LPD*%
%LPC*%
G36*
X230599Y38599D02*
X230599Y38599D01*
X230599Y38601D01*
X230601Y38601D01*
X230601Y38599D01*
X230599Y38599D01*
G37*
%LPD*%
%LPC*%
G36*
X416799Y483299D02*
X416799Y483299D01*
X416799Y483301D01*
X416801Y483301D01*
X416801Y483299D01*
X416799Y483299D01*
G37*
%LPD*%
%LPC*%
G36*
X313599Y210199D02*
X313599Y210199D01*
X313599Y210201D01*
X313601Y210201D01*
X313601Y210199D01*
X313599Y210199D01*
G37*
%LPD*%
D10*
X0Y0D02*
X500000Y0D01*
X500000Y500000D01*
X0Y500000D01*
X0Y0D01*
X454000Y470000D02*
X454005Y470393D01*
X454019Y470785D01*
X454043Y471177D01*
X454077Y471568D01*
X454120Y471959D01*
X454173Y472348D01*
X454236Y472735D01*
X454307Y473121D01*
X454389Y473506D01*
X454479Y473888D01*
X454580Y474267D01*
X454689Y474645D01*
X454808Y475019D01*
X454935Y475390D01*
X455072Y475758D01*
X455218Y476123D01*
X455373Y476484D01*
X455536Y476841D01*
X455708Y477194D01*
X455889Y477542D01*
X456079Y477886D01*
X456276Y478226D01*
X456482Y478560D01*
X456696Y478889D01*
X456919Y479213D01*
X457149Y479531D01*
X457386Y479844D01*
X457632Y480150D01*
X457885Y480451D01*
X458145Y480745D01*
X458412Y481033D01*
X458686Y481314D01*
X458967Y481588D01*
X459255Y481855D01*
X459549Y482115D01*
X459850Y482368D01*
X460156Y482614D01*
X460469Y482851D01*
X460787Y483081D01*
X461111Y483304D01*
X461440Y483518D01*
X461774Y483724D01*
X462114Y483921D01*
X462458Y484111D01*
X462806Y484292D01*
X463159Y484464D01*
X463516Y484627D01*
X463877Y484782D01*
X464242Y484928D01*
X464610Y485065D01*
X464981Y485192D01*
X465355Y485311D01*
X465733Y485420D01*
X466112Y485521D01*
X466494Y485611D01*
X466879Y485693D01*
X467265Y485764D01*
X467652Y485827D01*
X468041Y485880D01*
X468432Y485923D01*
X468823Y485957D01*
X469215Y485981D01*
X469607Y485995D01*
X470000Y486000D01*
X470393Y485995D01*
X470785Y485981D01*
X471177Y485957D01*
X471568Y485923D01*
X471959Y485880D01*
X472348Y485827D01*
X472735Y485764D01*
X473121Y485693D01*
X473506Y485611D01*
X473888Y485521D01*
X474267Y485420D01*
X474645Y485311D01*
X475019Y485192D01*
X475390Y485065D01*
X475758Y484928D01*
X476123Y484782D01*
X476484Y484627D01*
X476841Y484464D01*
X477194Y484292D01*
X477542Y484111D01*
X477886Y483921D01*
X478226Y483724D01*
X478560Y483518D01*
X478889Y483304D01*
X479213Y483081D01*
X479531Y482851D01*
X479844Y482614D01*
X480150Y482368D01*
X480451Y482115D01*
X480745Y481855D01*
X481033Y481588D01*
X481314Y481314D01*
X481588Y481033D01*
X481855Y480745D01*
X482115Y480451D01*
X482368Y480150D01*
X482614Y479844D01*
X482851Y479531D01*
X483081Y479213D01*
X483304Y478889D01*
X483518Y478560D01*
X483724Y478226D01*
X483921Y477886D01*
X484111Y477542D01*
X484292Y477194D01*
X484464Y476841D01*
X484627Y476484D01*
X484782Y476123D01*
X484928Y475758D01*
X485065Y475390D01*
X485192Y475019D01*
X485311Y474645D01*
X485420Y474267D01*
X485521Y473888D01*
X485611Y473506D01*
X485693Y473121D01*
X485764Y472735D01*
X485827Y472348D01*
X485880Y471959D01*
X485923Y471568D01*
X485957Y471177D01*
X485981Y470785D01*
X485995Y470393D01*
X486000Y470000D01*
X485995Y469607D01*
X485981Y469215D01*
X485957Y468823D01*
X485923Y468432D01*
X485880Y468041D01*
X485827Y467652D01*
X485764Y467265D01*
X485693Y466879D01*
X485611Y466494D01*
X485521Y466112D01*
X485420Y465733D01*
X485311Y465355D01*
X485192Y464981D01*
X485065Y464610D01*
X484928Y464242D01*
X484782Y463877D01*
X484627Y463516D01*
X484464Y463159D01*
X484292Y462806D01*
X484111Y462458D01*
X483921Y462114D01*
X483724Y461774D01*
X483518Y461440D01*
X483304Y461111D01*
X483081Y460787D01*
X482851Y460469D01*
X482614Y460156D01*
X482368Y459850D01*
X482115Y459549D01*
X481855Y459255D01*
X481588Y458967D01*
X481314Y458686D01*
X481033Y458412D01*
X480745Y458145D01*
X480451Y457885D01*
X480150Y457632D01*
X479844Y457386D01*
X479531Y457149D01*
X479213Y456919D01*
X478889Y456696D01*
X478560Y456482D01*
X478226Y456276D01*
X477886Y456079D01*
X477542Y455889D01*
X477194Y455708D01*
X476841Y455536D01*
X476484Y455373D01*
X476123Y455218D01*
X475758Y455072D01*
X475390Y454935D01*
X475019Y454808D01*
X474645Y454689D01*
X474267Y454580D01*
X473888Y454479D01*
X473506Y454389D01*
X473121Y454307D01*
X472735Y454236D01*
X472348Y454173D01*
X471959Y454120D01*
X471568Y454077D01*
X471177Y454043D01*
X470785Y454019D01*
X470393Y454005D01*
X470000Y454000D01*
X469607Y454005D01*
X469215Y454019D01*
X468823Y454043D01*
X468432Y454077D01*
X468041Y454120D01*
X467652Y454173D01*
X467265Y454236D01*
X466879Y454307D01*
X466494Y454389D01*
X466112Y454479D01*
X465733Y454580D01*
X465355Y454689D01*
X464981Y454808D01*
X464610Y454935D01*
X464242Y455072D01*
X463877Y455218D01*
X463516Y455373D01*
X463159Y455536D01*
X462806Y455708D01*
X462458Y455889D01*
X462114Y456079D01*
X461774Y456276D01*
X461440Y456482D01*
X461111Y456696D01*
X460787Y456919D01*
X460469Y457149D01*
X460156Y457386D01*
X459850Y457632D01*
X459549Y457885D01*
X459255Y458145D01*
X458967Y458412D01*
X458686Y458686D01*
X458412Y458967D01*
X458145Y459255D01*
X457885Y459549D01*
X457632Y459850D01*
X457386Y460156D01*
X457149Y460469D01*
X456919Y460787D01*
X456696Y461111D01*
X456482Y461440D01*
X456276Y461774D01*
X456079Y462114D01*
X455889Y462458D01*
X455708Y462806D01*
X455536Y463159D01*
X455373Y463516D01*
X455218Y463877D01*
X455072Y464242D01*
X454935Y464610D01*
X454808Y464981D01*
X454689Y465355D01*
X454580Y465733D01*
X454479Y466112D01*
X454389Y466494D01*
X454307Y466879D01*
X454236Y467265D01*
X454173Y467652D01*
X454120Y468041D01*
X454077Y468432D01*
X454043Y468823D01*
X454019Y469215D01*
X454005Y469607D01*
X454000Y470000D01*
X14000Y400000D02*
X14005Y400393D01*
X14019Y400785D01*
X14043Y401177D01*
X14077Y401568D01*
X14120Y401959D01*
X14173Y402348D01*
X14236Y402735D01*
X14307Y403121D01*
X14389Y403506D01*
X14479Y403888D01*
X14580Y404267D01*
X14689Y404645D01*
X14808Y405019D01*
X14935Y405390D01*
X15072Y405758D01*
X15218Y406123D01*
X15373Y406484D01*
X15536Y406841D01*
X15708Y407194D01*
X15889Y407542D01*
X16079Y407886D01*
X16276Y408226D01*
X16482Y408560D01*
X16696Y408889D01*
X16919Y409213D01*
X17149Y409531D01*
X17386Y409844D01*
X17632Y410150D01*
X17885Y410451D01*
X18145Y410745D01*
X18412Y411033D01*
X18686Y411314D01*
X18967Y411588D01*
X19255Y411855D01*
X19549Y412115D01*
X19850Y412368D01*
X20156Y412614D01*
X20469Y412851D01*
X20787Y413081D01*
X21111Y413304D01*
X21440Y413518D01*
X21774Y413724D01*
X22114Y413921D01*
X22458Y414111D01*
X22806Y414292D01*
X23159Y414464D01*
X23516Y414627D01*
X23877Y414782D01*
X24242Y414928D01*
X24610Y415065D01*
X24981Y415192D01*
X25355Y415311D01*
X25733Y415420D01*
X26112Y415521D01*
X26494Y415611D01*
X26879Y415693D01*
X27265Y415764D01*
X27652Y415827D01*
X28041Y415880D01*
X28432Y415923D01*
X28823Y415957D01*
X29215Y415981D01*
X29607Y415995D01*
X30000Y416000D01*
X30393Y415995D01*
X30785Y415981D01*
X31177Y415957D01*
X31568Y415923D01*
X31959Y415880D01*
X32348Y415827D01*
X32735Y415764D01*
X33121Y415693D01*
X33506Y415611D01*
X33888Y415521D01*
X34267Y415420D01*
X34645Y415311D01*
X35019Y415192D01*
X35390Y415065D01*
X35758Y414928D01*
X36123Y414782D01*
X36484Y414627D01*
X36841Y414464D01*
X37194Y414292D01*
X37542Y414111D01*
X37886Y413921D01*
X38226Y413724D01*
X38560Y413518D01*
X38889Y413304D01*
X39213Y413081D01*
X39531Y412851D01*
X39844Y412614D01*
X40150Y412368D01*
X40451Y412115D01*
X40745Y411855D01*
X41033Y411588D01*
X41314Y411314D01*
X41588Y411033D01*
X41855Y410745D01*
X42115Y410451D01*
X42368Y410150D01*
X42614Y409844D01*
X42851Y409531D01*
X43081Y409213D01*
X43304Y408889D01*
X43518Y408560D01*
X43724Y408226D01*
X43921Y407886D01*
X44111Y407542D01*
X44292Y407194D01*
X44464Y406841D01*
X44627Y406484D01*
X44782Y406123D01*
X44928Y405758D01*
X45065Y405390D01*
X45192Y405019D01*
X45311Y404645D01*
X45420Y404267D01*
X45521Y403888D01*
X45611Y403506D01*
X45693Y403121D01*
X45764Y402735D01*
X45827Y402348D01*
X45880Y401959D01*
X45923Y401568D01*
X45957Y401177D01*
X45981Y400785D01*
X45995Y400393D01*
X46000Y400000D01*
X45995Y399607D01*
X45981Y399215D01*
X45957Y398823D01*
X45923Y398432D01*
X45880Y398041D01*
X45827Y397652D01*
X45764Y397265D01*
X45693Y396879D01*
X45611Y396494D01*
X45521Y396112D01*
X45420Y395733D01*
X45311Y395355D01*
X45192Y394981D01*
X45065Y394610D01*
X44928Y394242D01*
X44782Y393877D01*
X44627Y393516D01*
X44464Y393159D01*
X44292Y392806D01*
X44111Y392458D01*
X43921Y392114D01*
X43724Y391774D01*
X43518Y391440D01*
X43304Y391111D01*
X43081Y390787D01*
X42851Y390469D01*
X42614Y390156D01*
X42368Y389850D01*
X42115Y389549D01*
X41855Y389255D01*
X41588Y388967D01*
X41314Y388686D01*
X41033Y388412D01*
X40745Y388145D01*
X40451Y387885D01*
X40150Y387632D01*
X39844Y387386D01*
X39531Y387149D01*
X39213Y386919D01*
X38889Y386696D01*
X38560Y386482D01*
X38226Y386276D01*
X37886Y386079D01*
X37542Y385889D01*
X37194Y385708D01*
X36841Y385536D01*
X36484Y385373D01*
X36123Y385218D01*
X35758Y385072D01*
X35390Y384935D01*
X35019Y384808D01*
X34645Y384689D01*
X34267Y384580D01*
X33888Y384479D01*
X33506Y384389D01*
X33121Y384307D01*
X32735Y384236D01*
X32348Y384173D01*
X31959Y384120D01*
X31568Y384077D01*
X31177Y384043D01*
X30785Y384019D01*
X30393Y384005D01*
X30000Y384000D01*
X29607Y384005D01*
X29215Y384019D01*
X28823Y384043D01*
X28432Y384077D01*
X28041Y384120D01*
X27652Y384173D01*
X27265Y384236D01*
X26879Y384307D01*
X26494Y384389D01*
X26112Y384479D01*
X25733Y384580D01*
X25355Y384689D01*
X24981Y384808D01*
X24610Y384935D01*
X24242Y385072D01*
X23877Y385218D01*
X23516Y385373D01*
X23159Y385536D01*
X22806Y385708D01*
X22458Y385889D01*
X22114Y386079D01*
X21774Y386276D01*
X21440Y386482D01*
X21111Y386696D01*
X20787Y386919D01*
X20469Y387149D01*
X20156Y387386D01*
X19850Y387632D01*
X19549Y387885D01*
X19255Y388145D01*
X18967Y388412D01*
X18686Y388686D01*
X18412Y388967D01*
X18145Y389255D01*
X17885Y389549D01*
X17632Y389850D01*
X17386Y390156D01*
X17149Y390469D01*
X16919Y390787D01*
X16696Y391111D01*
X16482Y391440D01*
X16276Y391774D01*
X16079Y392114D01*
X15889Y392458D01*
X15708Y392806D01*
X15536Y393159D01*
X15373Y393516D01*
X15218Y393877D01*
X15072Y394242D01*
X14935Y394610D01*
X14808Y394981D01*
X14689Y395355D01*
X14580Y395733D01*
X14479Y396112D01*
X14389Y396494D01*
X14307Y396879D01*
X14236Y397265D01*
X14173Y397652D01*
X14120Y398041D01*
X14077Y398432D01*
X14043Y398823D01*
X14019Y399215D01*
X14005Y399607D01*
X14000Y400000D01*
X14000Y30000D02*
X14005Y30393D01*
X14019Y30785D01*
X14043Y31177D01*
X14077Y31568D01*
X14120Y31959D01*
X14173Y32348D01*
X14236Y32735D01*
X14307Y33121D01*
X14389Y33506D01*
X14479Y33888D01*
X14580Y34267D01*
X14689Y34645D01*
X14808Y35019D01*
X14935Y35390D01*
X15072Y35758D01*
X15218Y36123D01*
X15373Y36484D01*
X15536Y36841D01*
X15708Y37194D01*
X15889Y37542D01*
X16079Y37886D01*
X16276Y38226D01*
X16482Y38560D01*
X16696Y38889D01*
X16919Y39213D01*
X17149Y39531D01*
X17386Y39844D01*
X17632Y40150D01*
X17885Y40451D01*
X18145Y40745D01*
X18412Y41033D01*
X18686Y41314D01*
X18967Y41588D01*
X19255Y41855D01*
X19549Y42115D01*
X19850Y42368D01*
X20156Y42614D01*
X20469Y42851D01*
X20787Y43081D01*
X21111Y43304D01*
X21440Y43518D01*
X21774Y43724D01*
X22114Y43921D01*
X22458Y44111D01*
X22806Y44292D01*
X23159Y44464D01*
X23516Y44627D01*
X23877Y44782D01*
X24242Y44928D01*
X24610Y45065D01*
X24981Y45192D01*
X25355Y45311D01*
X25733Y45420D01*
X26112Y45521D01*
X26494Y45611D01*
X26879Y45693D01*
X27265Y45764D01*
X27652Y45827D01*
X28041Y45880D01*
X28432Y45923D01*
X28823Y45957D01*
X29215Y45981D01*
X29607Y45995D01*
X30000Y46000D01*
X30393Y45995D01*
X30785Y45981D01*
X31177Y45957D01*
X31568Y45923D01*
X31959Y45880D01*
X32348Y45827D01*
X32735Y45764D01*
X33121Y45693D01*
X33506Y45611D01*
X33888Y45521D01*
X34267Y45420D01*
X34645Y45311D01*
X35019Y45192D01*
X35390Y45065D01*
X35758Y44928D01*
X36123Y44782D01*
X36484Y44627D01*
X36841Y44464D01*
X37194Y44292D01*
X37542Y44111D01*
X37886Y43921D01*
X38226Y43724D01*
X38560Y43518D01*
X38889Y43304D01*
X39213Y43081D01*
X39531Y42851D01*
X39844Y42614D01*
X40150Y42368D01*
X40451Y42115D01*
X40745Y41855D01*
X41033Y41588D01*
X41314Y41314D01*
X41588Y41033D01*
X41855Y40745D01*
X42115Y40451D01*
X42368Y40150D01*
X42614Y39844D01*
X42851Y39531D01*
X43081Y39213D01*
X43304Y38889D01*
X43518Y38560D01*
X43724Y38226D01*
X43921Y37886D01*
X44111Y37542D01*
X44292Y37194D01*
X44464Y36841D01*
X44627Y36484D01*
X44782Y36123D01*
X44928Y35758D01*
X45065Y35390D01*
X45192Y35019D01*
X45311Y34645D01*
X45420Y34267D01*
X45521Y33888D01*
X45611Y33506D01*
X45693Y33121D01*
X45764Y32735D01*
X45827Y32348D01*
X45880Y31959D01*
X45923Y31568D01*
X45957Y31177D01*
X45981Y30785D01*
X45995Y30393D01*
X46000Y30000D01*
X45995Y29607D01*
X45981Y29215D01*
X45957Y28823D01*
X45923Y28432D01*
X45880Y28041D01*
X45827Y27652D01*
X45764Y27265D01*
X45693Y26879D01*
X45611Y26494D01*
X45521Y26112D01*
X45420Y25733D01*
X45311Y25355D01*
X45192Y24981D01*
X45065Y24610D01*
X44928Y24242D01*
X44782Y23877D01*
X44627Y23516D01*
X44464Y23159D01*
X44292Y22806D01*
X44111Y22458D01*
X43921Y22114D01*
X43724Y21774D01*
X43518Y21440D01*
X43304Y21111D01*
X43081Y20787D01*
X42851Y20469D01*
X42614Y20156D01*
X42368Y19850D01*
X42115Y19549D01*
X41855Y19255D01*
X41588Y18967D01*
X41314Y18686D01*
X41033Y18412D01*
X40745Y18145D01*
X40451Y17885D01*
X40150Y17632D01*
X39844Y17386D01*
X39531Y17149D01*
X39213Y16919D01*
X38889Y16696D01*
X38560Y16482D01*
X38226Y16276D01*
X37886Y16079D01*
X37542Y15889D01*
X37194Y15708D01*
X36841Y15536D01*
X36484Y15373D01*
X36123Y15218D01*
X35758Y15072D01*
X35390Y14935D01*
X35019Y14808D01*
X34645Y14689D01*
X34267Y14580D01*
X33888Y14479D01*
X33506Y14389D01*
X33121Y14307D01*
X32735Y14236D01*
X32348Y14173D01*
X31959Y14120D01*
X31568Y14077D01*
X31177Y14043D01*
X30785Y14019D01*
X30393Y14005D01*
X30000Y14000D01*
X29607Y14005D01*
X29215Y14019D01*
X28823Y14043D01*
X28432Y14077D01*
X28041Y14120D01*
X27652Y14173D01*
X27265Y14236D01*
X26879Y14307D01*
X26494Y14389D01*
X26112Y14479D01*
X25733Y14580D01*
X25355Y14689D01*
X24981Y14808D01*
X24610Y14935D01*
X24242Y15072D01*
X23877Y15218D01*
X23516Y15373D01*
X23159Y15536D01*
X22806Y15708D01*
X22458Y15889D01*
X22114Y16079D01*
X21774Y16276D01*
X21440Y16482D01*
X21111Y16696D01*
X20787Y16919D01*
X20469Y17149D01*
X20156Y17386D01*
X19850Y17632D01*
X19549Y17885D01*
X19255Y18145D01*
X18967Y18412D01*
X18686Y18686D01*
X18412Y18967D01*
X18145Y19255D01*
X17885Y19549D01*
X17632Y19850D01*
X17386Y20156D01*
X17149Y20469D01*
X16919Y20787D01*
X16696Y21111D01*
X16482Y21440D01*
X16276Y21774D01*
X16079Y22114D01*
X15889Y22458D01*
X15708Y22806D01*
X15536Y23159D01*
X15373Y23516D01*
X15218Y23877D01*
X15072Y24242D01*
X14935Y24610D01*
X14808Y24981D01*
X14689Y25355D01*
X14580Y25733D01*
X14479Y26112D01*
X14389Y26494D01*
X14307Y26879D01*
X14236Y27265D01*
X14173Y27652D01*
X14120Y28041D01*
X14077Y28432D01*
X14043Y28823D01*
X14019Y29215D01*
X14005Y29607D01*
X14000Y30000D01*
D11*
X230200Y481300D03*
X230200Y455900D03*
D12*
X275200Y415200D03*
X300600Y415200D03*
D11*
X190200Y118300D03*
X190200Y92900D03*
D12*
X288200Y210200D03*
X313600Y210200D03*
D13*
X110500Y207500D03*
D14*
X59700Y207500D03*
D13*
X277000Y468200D03*
D12*
X327800Y468200D03*
D15*
X179800Y299700D03*
X179800Y325100D03*
D16*
X97900Y448700D03*
X91400Y448700D03*
X84900Y448700D03*
X104400Y448700D03*
X110900Y448700D03*
D17*
X122900Y448700D03*
X72900Y448700D03*
D18*
X62900Y475700D03*
X132900Y475700D03*
D19*
X107900Y475700D03*
X87900Y475700D03*
D20*
X474700Y169300D03*
X474700Y194700D03*
X474700Y220100D03*
X474700Y245500D03*
X474700Y270900D03*
X474700Y296300D03*
X474700Y321700D03*
X474700Y347100D03*
X26600Y169800D03*
X26600Y195200D03*
X26600Y220600D03*
X26600Y246000D03*
X26600Y271400D03*
X26600Y296800D03*
X26600Y322200D03*
X26600Y347600D03*
D12*
X282500Y360300D03*
X307900Y360300D03*
X364100Y335300D03*
X389500Y335300D03*
D20*
X328300Y276300D03*
X302900Y276300D03*
X277500Y276300D03*
D11*
X311000Y135300D03*
X311000Y33700D03*
X371800Y481300D03*
X371800Y379700D03*
X416800Y483300D03*
X416800Y381700D03*
D21*
X136800Y247500D03*
X136800Y239500D03*
X136800Y231500D03*
X136800Y223500D03*
X136800Y215500D03*
X136800Y207500D03*
X136800Y199500D03*
X136800Y191500D03*
X136800Y183500D03*
X136800Y175500D03*
X136800Y167500D03*
D22*
X154800Y149500D03*
X162800Y149500D03*
X170800Y149500D03*
X178800Y149500D03*
X186800Y149500D03*
X194800Y149500D03*
X202800Y149500D03*
X210800Y149500D03*
X218800Y149500D03*
X226800Y149500D03*
X234800Y149500D03*
D21*
X252800Y167500D03*
X252800Y175500D03*
X252800Y183500D03*
X252800Y191500D03*
X252800Y199500D03*
X252800Y207500D03*
X252800Y215500D03*
X252800Y223500D03*
X252800Y231500D03*
X252800Y239500D03*
X252800Y247500D03*
D22*
X234800Y265500D03*
X226800Y265500D03*
X218800Y265500D03*
X210800Y265500D03*
X202800Y265500D03*
X194800Y265500D03*
X186800Y265500D03*
X178800Y265500D03*
X170800Y265500D03*
X162800Y265500D03*
X154800Y265500D03*
D23*
X416100Y276500D03*
X365300Y276500D03*
D24*
X168400Y441400D03*
X168400Y461400D03*
X168400Y421400D03*
D25*
X168400Y401400D03*
X168400Y481400D03*
D15*
X225500Y412000D03*
X206450Y399300D03*
X225500Y386600D03*
D20*
X355600Y38700D03*
X381000Y38700D03*
X406400Y38700D03*
X431800Y38700D03*
X457200Y38700D03*
X482600Y38700D03*
D23*
X230600Y38600D03*
X281400Y38600D03*
D15*
X420000Y139200D03*
X420000Y240800D03*
D11*
X110000Y182700D03*
X110000Y157300D03*
D26*
X230200Y416700D02*
X230200Y455900D01*
X230200Y416700D02*
X225500Y412000D01*
X189900Y309800D02*
X179800Y299700D01*
X189900Y309800D02*
X190200Y355200D01*
X190000Y355000D01*
X190000Y421400D01*
D27*
X190000Y421400D03*
D26*
X174014Y273947D02*
X174014Y268714D01*
X170800Y265500D01*
X179800Y279733D02*
X179800Y299700D01*
X179800Y279733D02*
X174014Y273947D01*
X252800Y207500D02*
X285500Y207500D01*
X288200Y210200D01*
X194800Y149500D02*
X194800Y122900D01*
X190200Y118300D01*
X275200Y405600D02*
X275200Y415200D01*
X275200Y405600D02*
X256200Y386600D01*
D27*
X256200Y386600D03*
D26*
X275200Y415200D02*
X275200Y466400D01*
X277000Y468200D01*
X225500Y386600D02*
X225500Y304200D01*
X196586Y275286D01*
X191353Y275286D01*
X190014Y273947D01*
X190014Y268714D01*
X186800Y265500D01*
X288200Y210200D02*
X311000Y187400D01*
X311000Y135300D01*
X420000Y139200D02*
X420000Y120000D01*
X381000Y81000D02*
X381000Y38700D01*
X381000Y81000D02*
X420000Y120000D01*
X282500Y317500D02*
X282500Y360300D01*
X282500Y317500D02*
X285000Y315000D01*
D27*
X285000Y315000D03*
D26*
X190014Y262286D02*
X186800Y265500D01*
X190014Y262286D02*
X190014Y242481D01*
X189800Y242267D02*
X189800Y205000D01*
X189800Y185000D01*
X194800Y180000D01*
X194800Y149500D01*
X189800Y242267D02*
X190014Y242481D01*
X133586Y178714D02*
X128353Y178714D01*
X133586Y178714D02*
X136800Y175500D01*
X124367Y182700D02*
X110000Y182700D01*
X124367Y182700D02*
X128353Y178714D01*
D27*
X194800Y180000D03*
D26*
X251120Y205820D02*
X252800Y207500D01*
X251120Y205820D02*
X235560Y205820D01*
D27*
X235560Y205820D03*
X189800Y205000D03*
D26*
X416800Y362600D02*
X416800Y381700D01*
X416800Y362600D02*
X389500Y335300D01*
X113824Y445776D02*
X110900Y448700D01*
X113824Y445776D02*
X113824Y444941D01*
X119141Y439624D01*
X126659Y439624D01*
X128435Y441400D01*
X168400Y441400D01*
X104400Y448700D02*
X104400Y235600D01*
X110000Y230000D01*
D27*
X110000Y230000D03*
X155000Y230000D03*
D26*
X155000Y196467D01*
X145247Y186714D01*
X140014Y186714D01*
X136800Y183500D01*
X100000Y446600D02*
X97900Y448700D01*
X100000Y446600D02*
X100000Y242863D01*
X100560Y242303D01*
X100560Y237697D01*
X100000Y237137D01*
X100000Y205000D01*
X113500Y191500D01*
X136800Y191500D01*
X91400Y243600D02*
X91400Y448700D01*
X91400Y243600D02*
X95000Y240000D01*
D27*
X95000Y240000D03*
X180000Y240000D03*
D26*
X178800Y241200D01*
X178800Y265500D01*
D27*
X205000Y60000D03*
D26*
X205000Y147300D01*
X202800Y149500D01*
X275500Y223500D02*
X328300Y276300D01*
X275500Y223500D02*
X252800Y223500D01*
X256014Y234714D02*
X261247Y234714D01*
X256014Y234714D02*
X252800Y231500D01*
X277500Y250967D02*
X277500Y276300D01*
X277500Y250967D02*
X261247Y234714D01*
X136800Y199500D02*
X118500Y199500D01*
X110500Y207500D01*
D27*
X220000Y70000D03*
D26*
X223586Y141053D02*
X223586Y146286D01*
X226800Y149500D01*
X220000Y137467D02*
X220000Y70000D01*
X220000Y137467D02*
X223586Y141053D01*
D27*
X235000Y80000D03*
D26*
X235000Y149300D01*
X234800Y149500D01*
D27*
X205000Y170000D03*
D26*
X210800Y164200D01*
X210800Y149500D01*
D27*
X210000Y195000D03*
D26*
X210000Y180000D02*
X220000Y170000D01*
X210000Y180000D02*
X210000Y195000D01*
X220000Y150700D02*
X218800Y149500D01*
X220000Y150700D02*
X220000Y170000D01*
D27*
X220000Y200260D03*
D26*
X220000Y190000D01*
X242500Y167500D01*
X252800Y167500D01*
D27*
X230000Y220000D03*
D26*
X230000Y188300D01*
X242800Y175500D02*
X252800Y175500D01*
X242800Y175500D02*
X230000Y188300D01*
X416100Y244700D02*
X416100Y276500D01*
X416100Y244700D02*
X420000Y240800D01*
D27*
X235000Y245000D03*
D26*
X237500Y247500D01*
X252800Y247500D01*
D27*
X360000Y295000D03*
D26*
X360000Y331200D01*
X364100Y335300D01*
D27*
X235000Y295000D03*
D26*
X235000Y265700D01*
X234800Y265500D01*
D27*
X180000Y170000D03*
D26*
X180000Y150700D01*
X178800Y149500D01*
D27*
X175000Y195000D03*
D26*
X175000Y185000D01*
X170800Y180800D01*
X170800Y149500D01*
D27*
X165000Y220000D03*
D26*
X150247Y170714D02*
X140014Y170714D01*
X136800Y167500D01*
X165000Y185467D02*
X165000Y220000D01*
X165000Y185467D02*
X150247Y170714D01*
D27*
X135000Y255000D03*
D26*
X136800Y253200D01*
X136800Y247500D01*
D27*
X160000Y295000D03*
D26*
X162800Y292200D01*
X162800Y265500D01*
D27*
X145000Y270000D03*
D26*
X150300Y270000D01*
X154800Y265500D01*
M02*
